<?xml version="1.0" standalone="no"?>
<!DOCTYPE svg PUBLIC "-//W3C//DTD SVG 20010904//EN"
 "http://www.w3.org/TR/2001/REC-SVG-20010904/DTD/svg10.dtd">
<svg version="1.0" xmlns="http://www.w3.org/2000/svg"
 viewBox="0 0 512 512" width="512" height="512"
 preserveAspectRatio="xMidYMid meet">

<g transform="translate(0.000000,500.000000) scale(0.100000,-0.100000)"
fill="#000000" stroke="none">
<path d="M2285 3585 c-172 -31 -289 -109 -316 -211 -12 -42 9 -126 42 -168 21
-26 22 -35 16 -145 -6 -113 -7 -119 -41 -170 -20 -29 -36 -62 -36 -72 0 -21
-20 -27 -21 -6 0 6 -4 3 -9 -8 -18 -41 -11 -102 19 -157 28 -54 28 -55 10 -79
-21 -27 -25 -86 -8 -122 14 -30 59 -57 96 -57 23 0 38 -10 63 -41 44 -55 124
-105 202 -125 34 -9 70 -18 78 -21 8 -3 -10 -13 -40 -22 -84 -27 -112 -45
-174 -112 -87 -94 -91 -101 -70 -140 l17 -33 -53 -48 c-30 -27 -60 -48 -67
-48 -18 0 -33 33 -26 60 4 14 1 27 -8 34 -8 6 -22 31 -31 56 -9 25 -30 81 -47
124 -29 76 -29 80 -14 110 35 68 6 203 -58 267 -63 63 -142 61 -176 -5 -38
-74 1 -236 66 -273 29 -17 35 -33 67 -205 l6 -28 -84 0 c-106 0 -197 -15 -217
-35 -15 -15 -13 -19 14 -41 l30 -25 -24 -19 c-13 -11 -32 -20 -43 -20 -34 0
-77 -30 -78 -53 0 -4 17 -16 38 -25 33 -15 37 -22 40 -58 3 -41 3 -41 -41 -52
-42 -11 -67 -37 -50 -52 4 -4 40 -15 78 -23 65 -15 76 -15 160 2 l90 19 -72 1
c-39 0 -79 4 -88 7 -21 8 -55 76 -55 109 l0 26 83 -8 c87 -9 360 -7 416 3 33
5 33 5 29 -28 -3 -18 -8 -41 -13 -50 -6 -15 -2 -18 26 -17 19 0 43 4 54 9 17
7 14 9 -14 9 -33 1 -33 1 -26 39 4 20 11 39 17 41 6 2 19 12 29 22 23 23 15
47 -19 60 -14 5 -23 11 -21 13 2 1 26 22 52 46 44 40 49 42 72 30 13 -7 35
-10 49 -8 l26 5 -6 -123 c-5 -84 -4 -124 3 -124 15 0 21 44 29 218 7 151 7
153 26 135 19 -17 21 -17 36 2 15 18 29 20 122 20 93 0 107 -2 123 -20 17 -20
17 -20 36 2 l19 22 6 -47 c3 -26 9 -109 12 -184 6 -113 10 -138 22 -138 13 0
14 17 8 119 l-7 118 25 -4 c14 -3 38 1 54 9 27 14 30 13 67 -18 30 -27 35 -36
26 -48 -8 -10 -9 -21 -1 -40 14 -38 13 -43 -14 -50 -13 -3 -27 -13 -30 -22 -7
-19 10 -44 29 -44 7 0 15 -9 18 -20 6 -23 27 -27 27 -6 0 12 29 13 178 9 97
-2 238 0 312 5 74 5 138 6 142 3 3 -3 4 -27 1 -53 -5 -43 -8 -48 -32 -49 -24
-1 -24 -2 7 -12 45 -14 57 0 56 67 -1 47 2 55 22 65 38 17 24 61 -18 61 -23 0
-23 12 3 61 28 56 22 91 -16 102 -23 6 -33 17 -41 43 -14 42 -1 62 46 78 38
12 61 45 91 131 54 155 24 235 -89 235 -33 0 -45 -6 -72 -37 -18 -20 -40 -53
-48 -72 l-16 -36 -7 76 c-3 41 -12 85 -18 97 -20 38 -81 41 -116 6 -11 -11
-15 -40 -16 -107 l-2 -92 -9 90 c-4 50 -13 102 -19 118 -21 51 -89 44 -89 -9
0 -13 14 -87 30 -164 33 -156 35 -178 18 -215 l-11 -25 -18 30 c-13 20 -27 30
-44 30 -27 0 -49 -30 -41 -58 2 -9 7 -27 11 -39 5 -17 2 -20 -13 -16 -16 4
-20 16 -24 79 -6 91 -28 127 -79 132 -62 6 -78 -62 -36 -153 16 -33 26 -78 30
-134 6 -79 6 -83 -11 -69 -9 9 -30 23 -47 32 -16 8 -43 26 -59 40 -27 22 -28
25 -15 59 12 35 12 36 -46 107 -67 82 -121 122 -191 143 l-49 14 60 13 c84 17
170 65 213 119 46 57 51 61 82 61 14 0 35 8 46 18 50 40 57 100 20 154 -24 36
-24 36 -5 64 28 43 42 102 34 151 -6 42 -24 60 -26 26 0 -10 -8 0 -18 22 l-18
40 28 35 c29 35 37 60 20 60 -6 0 -13 -4 -16 -10 -17 -27 -25 -2 -25 81 0 88
1 91 38 147 93 137 75 201 -84 295 -185 110 -383 149 -579 112z m268 -21 c77
-9 224 -64 304 -114 83 -51 123 -97 123 -141 0 -31 -33 -97 -70 -139 -34 -38
-34 -35 -6 53 8 26 11 45 6 42 -4 -3 -16 -28 -25 -55 -9 -28 -21 -50 -26 -50
-6 0 -24 7 -41 16 -30 16 -30 16 -24 76 4 32 10 67 13 75 4 10 2 14 -4 10 -6
-4 -14 -34 -18 -68 -4 -33 -12 -62 -19 -65 -6 -2 -31 2 -56 10 -50 15 -51 16
-37 131 4 35 3 54 -2 45 -5 -8 -12 -46 -16 -84 l-7 -69 -55 7 c-31 4 -58 8
-62 10 -3 2 -4 40 -1 84 3 44 2 78 -2 75 -5 -2 -8 -28 -8 -56 0 -94 -3 -97
-81 -97 l-69 0 -1 83 c-1 70 -2 76 -10 42 -4 -22 -8 -61 -8 -87 l-1 -48 -39 0
c-21 0 -52 -3 -68 -6 l-30 -6 -11 74 -11 73 5 -76 4 -75 -56 -18 c-31 -10 -57
-16 -59 -14 -1 2 -10 27 -20 56 -9 29 -19 51 -22 48 -3 -3 2 -26 11 -52 31
-93 13 -101 -33 -15 -49 93 -40 155 34 219 107 94 288 133 498 106z m110 -362
c43 -12 108 -36 145 -54 l67 -33 3 -99 3 -99 -38 5 c-21 3 -60 19 -87 36 -27
17 -71 39 -98 48 l-50 16 20 22 c36 39 34 42 -36 43 -37 1 -80 6 -95 12 -37
14 -145 14 -188 0 -19 -6 -51 -24 -71 -40 -41 -32 -53 -36 -44 -14 3 8 3 15 0
15 -3 0 -9 -12 -15 -28 -7 -21 -22 -31 -69 -48 l-60 -21 0 88 c0 84 1 88 28
107 30 21 80 39 162 58 86 20 326 12 423 -14z m-363 -349 c125 -63 379 -82
493 -38 13 6 21 -1 32 -29 22 -53 20 -101 -11 -235 l-5 -24 31 27 c17 14 35
26 40 26 18 0 50 -54 50 -85 0 -45 -27 -74 -76 -83 -34 -6 -49 -16 -83 -59
-30 -38 -58 -60 -108 -85 -67 -33 -70 -33 -209 -33 l-140 0 -77 38 c-59 29
-87 50 -115 87 -33 43 -42 49 -75 49 -82 2 -128 98 -72 151 24 22 25 22 51 5
l27 -17 -7 33 c-4 19 -9 68 -12 110 -6 67 -4 82 16 116 12 22 34 47 48 56 39
25 143 20 202 -10z m-525 -405 c61 -48 97 -195 60 -244 -20 -26 -19 -55 6
-142 11 -40 19 -75 17 -78 -2 -2 -19 42 -37 97 -18 54 -36 97 -41 94 -5 -3 -7
-11 -5 -18 2 -7 18 -56 35 -110 29 -89 31 -101 17 -114 -18 -18 -37 -9 -37 17
0 10 -9 62 -20 116 -17 88 -22 100 -54 126 -68 56 -98 206 -51 258 24 27 75
26 110 -2z m1394 -32 c22 -27 41 -256 21 -256 -5 0 -10 2 -10 4 0 3 -11 57
-25 122 -14 65 -24 123 -21 131 7 17 21 17 35 -1z m170 -22 c17 -16 28 -234
12 -234 -6 0 -11 -15 -13 -32 -4 -41 -38 -54 -38 -14 0 14 -9 31 -21 40 -19
13 -22 27 -27 125 -5 109 -5 111 19 120 21 8 56 6 68 -5z m188 -50 c-3 -3 -12
-4 -19 -1 -8 3 -5 6 6 6 11 1 17 -2 13 -5z m-26 -139 c-20 -52 -39 -95 -43
-95 -4 0 5 35 21 78 42 110 42 112 51 112 4 0 -9 -43 -29 -95z m-36 0 c-15
-42 -32 -78 -36 -81 -5 -3 -9 -3 -9 0 0 14 63 166 67 162 3 -3 -7 -39 -22 -81z
m105 81 c0 -3 -14 -42 -31 -88 -30 -82 -49 -116 -49 -88 0 23 62 180 71 180 5
0 9 -2 9 -4z m7 -73 c-7 -35 -47 -126 -53 -120 -5 5 47 147 54 147 2 0 2 -12
-1 -27z m-1088 -45 c10 -28 9 -35 -6 -45 -22 -17 -68 -16 -82 1 -8 9 -8 21 0
45 9 26 16 31 44 31 28 0 35 -5 44 -32z m772 -36 c14 -10 19 -25 19 -60 l0
-46 -21 20 c-14 15 -21 37 -24 80 -2 32 -2 50 2 39 3 -11 14 -26 24 -33z
m-869 -34 c19 -13 109 -3 119 13 5 8 9 24 9 37 0 12 4 22 10 22 14 0 22 -39
18 -95 l-3 -50 -45 -7 c-25 -4 -73 -4 -105 0 l-60 7 3 65 c4 72 23 99 34 48 3
-17 12 -35 20 -40z m-77 -44 c-4 -41 -11 -74 -17 -74 -10 0 -5 75 9 145 10 51
16 7 8 -71z m269 15 c7 -71 4 -101 -8 -88 -7 9 -14 169 -6 169 4 0 11 -36 14
-81z m-300 20 c-4 -30 -15 -60 -25 -70 -11 -11 -19 -28 -19 -39 0 -24 -37
-100 -48 -100 -21 0 -72 43 -78 65 -5 21 4 36 52 92 47 53 106 103 122 103 1
0 0 -23 -4 -51z m439 -51 c65 -73 70 -101 25 -130 -52 -34 -64 -32 -87 15 -12
24 -21 55 -21 70 0 16 -8 30 -20 37 -16 9 -20 21 -20 61 l0 51 31 -19 c18 -10
59 -48 92 -85z m244 71 c7 -14 15 -51 19 -82 7 -56 6 -57 -18 -57 -21 0 -29 9
-47 49 -22 51 -25 78 -15 106 10 24 47 14 61 -16z m247 -18 c4 -28 12 -51 21
-55 20 -7 51 -72 73 -153 l20 -69 -25 -62 -25 -62 -42 0 c-47 0 -58 6 -75 37
-17 33 -13 210 6 258 9 22 18 66 20 98 3 31 8 57 13 57 4 0 10 -22 14 -49z
m274 -12 c44 -13 56 -29 22 -29 -11 0 -37 -16 -59 -35 -45 -41 -66 -46 -54
-12 4 12 7 41 6 64 -2 40 -1 42 20 34 12 -5 41 -15 65 -22z m-118 -19 c11 -21
4 -90 -10 -90 -4 0 -13 -14 -20 -31 -17 -40 -26 -24 -33 63 -7 72 -10 66 45
77 4 0 12 -8 18 -19z m-254 -50 c15 -41 18 -120 5 -120 -5 0 -13 6 -20 13 -14
18 -40 119 -33 135 8 23 35 8 48 -28z m-118 -73 c17 -20 42 -136 42 -195 0
-52 -1 -53 -27 -50 -25 3 -28 8 -44 93 -26 134 -24 160 12 164 4 1 11 -5 17
-12z m422 10 c0 -2 -18 -23 -40 -47 -41 -44 -49 -39 -29 19 9 25 16 31 40 31
16 0 29 -2 29 -3z m-1540 -120 c23 -78 23 -94 -3 -84 -12 5 -37 114 -37 163 0
34 18 -1 40 -79z m1167 61 c-3 -8 -6 -5 -6 6 -1 11 2 17 5 13 3 -3 4 -12 1
-19z m-1513 -3 c6 -16 -3 -19 -28 -9 -22 8 -20 24 3 24 10 0 21 -7 25 -15z
m1586 -42 c0 -13 0 -26 0 -30 0 -5 -5 -8 -12 -8 -6 0 -17 21 -24 47 l-12 47
24 -17 c13 -9 24 -27 24 -39z m-1543 21 c-3 -3 -12 -4 -19 -1 -8 3 -5 6 6 6
11 1 17 -2 13 -5z m1525 -82 c21 -2 27 -10 31 -35 6 -38 8 -34 -24 -42 -25 -6
-26 -4 -42 72 -19 89 -21 121 -3 53 10 -37 16 -46 38 -48z m302 40 c-9 -21
-25 -58 -36 -84 -17 -39 -25 -48 -45 -48 -20 0 -24 4 -19 18 55 147 67 166
103 154 9 -3 9 -13 -3 -40z m-1746 31 c-10 -2 -28 -2 -40 0 -13 2 -5 4 17 4
22 1 32 -1 23 -4z m1833 -8 c0 -5 -9 -11 -21 -13 -20 -3 -27 8 -13 22 10 9 34
3 34 -9z m-1807 -15 c77 -6 141 -12 144 -14 2 -3 7 -21 12 -40 l8 -36 -140 0
c-134 0 -140 1 -163 25 -26 25 -34 75 -12 75 6 0 75 -5 151 -10z m264 -41 c-4
-42 -13 -40 -32 5 -13 31 -13 35 2 39 25 5 34 -7 30 -44z m936 -41 c4 -28 3
-48 -2 -48 -13 0 -36 86 -27 100 11 18 22 -1 29 -52z m-31 -62 c4 -9 24 -17
49 -19 24 -2 17 -3 -14 -2 -64 3 -88 13 -67 26 20 12 26 11 32 -5z m340 -33
c-40 -2 -107 -2 -150 0 -43 1 -10 3 72 3 83 0 118 -2 78 -3z"/>
<path d="M2143 2746 c-20 -18 -25 -28 -17 -36 7 -7 16 -5 29 10 24 26 72 26
101 -1 32 -30 41 -5 10 26 -33 33 -85 34 -123 1z"/>
<path d="M2606 2749 c-25 -19 -35 -49 -18 -49 5 0 17 9 27 20 22 24 71 26 96
4 31 -28 46 -10 17 19 -34 33 -84 36 -122 6z"/>
<path d="M2400 2523 c0 -12 5 -25 11 -28 17 -11 18 -2 4 25 -14 24 -14 24 -15
3z"/>
<path d="M2276 2471 c-8 -13 13 -77 34 -104 42 -53 139 -73 200 -42 37 19 76
71 85 114 l7 34 -33 -7 c-87 -17 -198 -18 -243 -3 -25 9 -48 12 -50 8z m256
-52 c-27 -21 -93 -41 -113 -35 -8 2 -26 7 -41 10 -15 4 -32 15 -38 27 -11 20
-10 20 57 14 37 -4 86 -2 108 3 50 11 57 6 27 -19z"/>
<path d="M1750 2446 c0 -2 8 -10 18 -17 15 -13 16 -12 3 4 -13 16 -21 21 -21
13z"/>
<path d="M3271 2323 c1 -62 14 -139 20 -128 10 15 -2 165 -12 165 -5 0 -9 -17
-8 -37z"/>
<path d="M3314 2314 c3 -26 6 -62 6 -80 0 -19 5 -34 10 -34 6 0 10 15 10 34 0
58 -12 126 -23 126 -6 0 -7 -18 -3 -46z"/>
<path d="M3178 1930 c-14 -53 -17 -89 -8 -95 15 -9 22 17 18 71 -3 38 -5 43
-10 24z"/>
<path d="M3229 1910 c-2 -34 -3 -38 -6 -15 -8 53 -23 52 -23 -1 0 -56 7 -69
27 -53 10 9 13 8 13 0 0 -7 5 -9 11 -6 11 8 3 78 -12 105 -6 10 -9 1 -10 -30z"/>
<path d="M3261 1929 c-2 -46 11 -89 25 -89 19 0 16 26 -6 75 -17 36 -19 38
-19 14z"/>
<path d="M4227 2493 c-11 -10 -8 -43 3 -43 6 0 10 11 10 25 0 26 -2 29 -13 18z"/>
<path d="M760 2436 c0 -31 14 -55 25 -44 8 7 -7 78 -16 78 -5 0 -9 -15 -9 -34z"/>
<path d="M1128 2424 c-5 -4 -8 -21 -8 -38 0 -33 14 -64 22 -50 8 14 -6 97 -14
88z"/>
<path d="M3858 2387 c-3 -23 -3 -46 0 -51 8 -14 22 17 22 51 0 48 -17 49 -22
0z"/>
<path d="M4210 2394 c0 -28 15 -25 23 6 3 13 0 20 -9 20 -8 0 -14 -10 -14 -26z"/>
<path d="M890 2376 c0 -13 3 -38 6 -56 l7 -32 53 7 c43 5 54 3 62 -11 15 -26
22 -2 16 53 -6 49 -6 49 -43 48 -20 0 -51 3 -68 7 -30 7 -33 5 -33 -16z"/>
<path d="M4055 2389 c-22 -6 -50 -7 -61 -5 -19 5 -22 0 -28 -51 -7 -58 -1 -78
14 -53 7 10 10 11 10 3 0 -15 95 -18 104 -4 10 16 19 121 10 120 -5 -1 -27 -5
-49 -10z"/>
</g>
</svg>
