<?xml version="1.0" encoding="UTF-8"?>
<svg version="1.1" xmlns="http://www.w3.org/2000/svg" width="1050" height="600">
<path d="M0 0 C14.90774009 12.84328607 27.01882027 32.08936839 29 52 C30.59999767 76.42056065 26.93043748 97.20930496 10.6394043 116.07568359 C5.98396682 121.23678562 0.89778345 125.96538203 -4.25390625 130.625 C-13.48284141 138.76842911 -13.48284141 138.76842911 -19.25 149.375 C-19.55550781 150.30441406 -19.86101562 151.23382813 -20.17578125 152.19140625 C-20.71437203 154.02669899 -21.23350625 155.8678441 -21.73046875 157.71484375 C-23.26205769 163.34195228 -24.73124269 166.93451685 -29 171 C-32.42492304 172.88370767 -35.12059131 173.2216805 -39 173 C-39 173.99 -39 174.98 -39 176 C-33.555 175.01 -33.555 175.01 -28 174 C-27.67 176.31 -27.34 178.62 -27 181 C-8.19 181 10.62 181 30 181 C30.33 180.01 30.66 179.02 31 178 C39.20037776 171.71783926 47.72868958 169.1698001 58 170 C59.33651441 170.32034063 60.67042342 170.6519842 62 171 C61.72389893 170.05012207 61.44779785 169.10024414 61.16333008 168.12158203 C57.06831865 153.81358905 53.6275425 139.34887098 50.16680908 124.87744141 C49.35769623 121.49715687 48.54488125 118.1177627 47.73242188 114.73828125 C46.15142157 108.15969767 44.5743754 101.58017211 43 95 C54.51294778 92.05661966 63.82326899 92.2826487 75 97 C79.72579613 100.42851876 80.53356619 103.4895681 82 109 C79.14732627 109.81806834 76.29304815 110.62957796 73.4375 111.4375 C72.23770508 111.78264648 72.23770508 111.78264648 71.01367188 112.13476562 C70.22412109 112.35712891 69.43457031 112.57949219 68.62109375 112.80859375 C67.9036499 113.01282959 67.18620605 113.21706543 66.44702148 113.42749023 C63.32148637 114.15874633 60.18043603 114.57853722 57 115 C57.32436035 116.18372192 57.32436035 116.18372192 57.65527344 117.39135742 C60.76040169 128.86873141 63.60408528 140.40760321 66.42871094 151.95678711 C67.25953307 155.35145125 68.09450621 158.7450779 68.9296875 162.13867188 C69.45858246 164.29681396 69.98723739 166.45501489 70.515625 168.61328125 C70.76556213 169.62771805 71.01549927 170.64215485 71.27301025 171.68733215 C71.61401764 173.08600777 71.61401764 173.08600777 71.96191406 174.51293945 C72.2635849 175.74413261 72.2635849 175.74413261 72.5713501 177.00019836 C73 179 73 179 73 181 C83.56 181 94.12 181 105 181 C105 191.70697889 104.81041855 202.01611186 103.8125 212.625 C103.71130859 213.9140625 103.61011719 215.203125 103.50585938 216.53125 C102.31481342 229.33016543 98.34175347 240.4962379 92 251.625 C91.52852539 252.46635498 91.05705078 253.30770996 90.57128906 254.17456055 C85.67179075 262.79194173 80.27012318 271.06751935 74.78271484 279.31835938 C71.52372722 284.22067656 68.29186077 289.14063812 65.0625 294.0625 C64.14065918 295.45335815 64.14065918 295.45335815 63.20019531 296.87231445 C51.23077791 315.09580142 49.72299751 327.78945187 50.04101562 349.12695312 C50.39147349 374.93171876 45.27192691 393.90649364 27 413 C26.44828125 413.61488281 25.8965625 414.22976563 25.328125 414.86328125 C2.67879287 439.25055718 -35.93662092 450.51025313 -67.375 456.9375 C-68.40262451 457.14914795 -69.43024902 457.3607959 -70.48901367 457.57885742 C-76.43596159 458.72642833 -81.94484657 459.20685307 -88 459 C-88.42410156 458.07960938 -88.84820312 457.15921875 -89.28515625 456.2109375 C-90.84897157 452.82777854 -92.43123298 449.45355568 -94.02099609 446.08251953 C-94.64274042 444.75995617 -95.26070367 443.4356035 -95.87353516 442.10888672 C-102.05757217 428.75180151 -110.74895032 413.78516074 -124.41015625 406.875 C-134.16839568 403.57809859 -146.60783802 406.43748905 -156.67333984 407.27416992 C-189.81484385 409.97659979 -189.81484385 409.97659979 -203.484375 400.2890625 C-207.02034217 397.28166774 -209.16370494 394.55294007 -210 390 C-210.0788575 387.98170272 -210.1083601 385.96124141 -210.10546875 383.94140625 C-210.13791482 365.61635013 -210.13791482 365.61635013 -217 349 C-218.02643321 346.0447747 -217.94657431 343.83267783 -217.625 340.75 C-217.53462339 336.53705955 -218.62805131 334.72626515 -221.4375 331.625 C-222.07558594 330.99851562 -222.71367187 330.37203125 -223.37109375 329.7265625 C-226.20591544 326.72178747 -226.12037541 323.82494573 -226.09765625 319.89453125 C-226.09443359 318.91162109 -226.09121094 317.92871094 -226.08789062 316.91601562 C-226.07951172 315.89185547 -226.07113281 314.86769531 -226.0625 313.8125 C-226.05798828 312.77673828 -226.05347656 311.74097656 -226.04882812 310.67382812 C-226.0370401 308.11582734 -226.02058515 305.55794267 -226 303 C-226.7748877 302.84926025 -227.54977539 302.69852051 -228.34814453 302.54321289 C-235.88745545 300.99884106 -241.90653771 298.36589232 -246.7109375 292.1953125 C-249.37559118 287.65732653 -249.51850145 283.79048051 -248.5703125 278.6875 C-245.70622509 269.23896422 -239.71115763 260.83726881 -234.54833984 252.51000977 C-225.3187537 237.54795125 -222.08999346 227.89834795 -225.9375 210.375 C-226.11933838 209.63161377 -226.30117676 208.88822754 -226.48852539 208.12231445 C-228.60267991 198.90605681 -228.47772186 190.92328474 -229 181 C-206.23 180.505 -206.23 180.505 -183 180 C-185.0625 176.761875 -187.125 173.52375 -189.25 170.1875 C-190.53019979 168.17333715 -191.81018914 166.15904051 -193.08984375 164.14453125 C-195.57178688 160.23941895 -198.0637434 156.34108049 -200.56640625 152.44921875 C-201.64849927 150.75785202 -202.73053348 149.06644766 -203.8125 147.375 C-204.32135742 146.58891357 -204.83021484 145.80282715 -205.35449219 144.99291992 C-206.05493652 143.89427612 -206.05493652 143.89427612 -206.76953125 142.7734375 C-207.17792236 142.13841309 -207.58631348 141.50338867 -208.00708008 140.84912109 C-209.04702409 138.91242674 -209.56122618 137.14663484 -210 135 C-204.34354321 131.6491239 -198.67514129 128.31912631 -193 125 C-192.07010254 124.45504883 -191.14020508 123.91009766 -190.18212891 123.34863281 C-187.33393375 121.683445 -184.48024033 120.02807297 -181.625 118.375 C-180.71596924 117.84229492 -179.80693848 117.30958984 -178.87036133 116.76074219 C-178.01853271 116.26993164 -177.1667041 115.77912109 -176.2890625 115.2734375 C-175.53318848 114.83435059 -174.77731445 114.39526367 -173.99853516 113.94287109 C-172 113 -172 113 -169 113 C-168.43192627 114.11109131 -167.86385254 115.22218262 -167.27856445 116.36694336 C-165.10808389 120.61156175 -162.93660941 124.85567096 -160.76473999 129.09957886 C-159.79941601 130.98598424 -158.83426604 132.87247868 -157.86929321 134.75906372 C-150.83512062 148.51216351 -150.83512062 148.51216351 -143.7109375 162.21875 C-142.80154419 163.95523804 -142.80154419 163.95523804 -141.8737793 165.72680664 C-140.77216569 167.82429042 -139.66701053 169.919919 -138.55786133 172.01342773 C-138.07857178 172.92552002 -137.59928223 173.8376123 -137.10546875 174.77734375 C-136.69449951 175.55327881 -136.28353027 176.32921387 -135.86010742 177.12866211 C-135 179 -135 179 -135 181 C-122.625 180.505 -122.625 180.505 -110 180 C-108.68 173.4 -107.36 166.8 -106 160 C-108.97 159.01 -108.97 159.01 -112 158 C-115.49971333 154.40569982 -116.99733146 151.60956238 -117.00244141 146.61254883 C-116.95265137 145.73622803 -116.90286133 144.85990723 -116.8515625 143.95703125 C-116.29001701 130.14482369 -117.56169018 120.20190157 -124 108 C-124.70458392 106.60946848 -125.40638547 105.21752381 -126.10546875 103.82421875 C-127.13892869 101.76983735 -128.17304274 99.71593376 -129.21533203 97.66601562 C-138.67073868 78.91349076 -140.1703168 59.04462797 -134.35546875 38.87109375 C-130.65692768 27.7470421 -124.94944755 17.61902467 -117 9 C-115.76636719 7.62908203 -115.76636719 7.62908203 -114.5078125 6.23046875 C-83.97938715 -26.11196448 -33.91272887 -27.26145817 0 0 Z M-112.1875 16.3125 C-125.42681015 31.76725922 -130.51319127 50.93829226 -129 71 C-127.69322878 81.19471977 -123.86133126 89.96073135 -119.09765625 98.96875 C-116.93088205 103.0714702 -114.99475582 107.25477154 -113.125 111.5 C-112.69610474 112.45132813 -112.69610474 112.45132813 -112.25854492 113.421875 C-108.42087411 122.19632739 -107.76157134 129.43322526 -108 138.875 C-108.05085653 140.93468944 -108.09297821 142.99461916 -108.125 145.0546875 C-108.14820313 145.95687012 -108.17140625 146.85905273 -108.1953125 147.78857422 C-108.22016064 150.20794313 -108.22016064 150.20794313 -106 152 C-103.6836251 152.64784906 -103.6836251 152.64784906 -100.9921875 153.0703125 C-100.00605469 153.24433594 -99.01992188 153.41835937 -98.00390625 153.59765625 C-96.97136719 153.77167969 -95.93882812 153.94570312 -94.875 154.125 C-93.31458984 154.39763672 -93.31458984 154.39763672 -91.72265625 154.67578125 C-89.14958172 155.12429883 -86.57545229 155.56538056 -84 156 C-82.19375723 151.05401672 -81.16531336 146.15098099 -80.23828125 140.98828125 C-80.08336716 140.1382402 -79.92845306 139.28819916 -79.7688446 138.41239929 C-79.44475528 136.62520134 -79.12300336 134.83757811 -78.8034668 133.04956055 C-78.31193932 130.30937429 -77.80770611 127.57172091 -77.30273438 124.83398438 C-76.98880867 123.09388958 -76.67563138 121.35365956 -76.36328125 119.61328125 C-76.21127762 118.79451004 -76.05927399 117.97573883 -75.90266418 117.13215637 C-75.07872709 112.52875209 -75.07872709 112.52875209 -76 108 C-78.20266928 107.15549001 -78.20266928 107.15549001 -80.8125 106.625 C-85.36101285 105.39690153 -87.53029581 104.18775928 -90 100 C-91.60227219 96.79545562 -91.35040981 93.48463087 -91 90 C-89.68240434 86.12041277 -88.67694825 84.47228948 -85.3125 82.125 C-80.31313554 80.42710264 -76.16487323 80.03783412 -71.1875 82.25 C-67.29335167 85.36531866 -65.91246534 87.48162195 -65.3125 92.4375 C-65.02669656 95.6597937 -65 98.74565622 -65 102 C-59.06 102.99 -59.06 102.99 -53 104 C-52.773125 102.63875 -52.54625 101.2775 -52.3125 99.875 C-51.24448432 95.00361913 -49.50477524 92.50477524 -46 89 C-42.28986322 87.14493161 -38.04907177 87.54665301 -34 88 C-29.86198676 90.06900662 -27.72192167 91.74900587 -26 96 C-25.25277478 100.28936017 -25.0382775 104.31319334 -27.23828125 108.171875 C-29.71035298 111.14081474 -31.28189226 112.76063075 -35 114 C-37.06145107 114.068991 -39.12501401 114.08467727 -41.1875 114.0625 C-42.27417969 114.05347656 -43.36085938 114.04445313 -44.48046875 114.03515625 C-45.72763672 114.01775391 -45.72763672 114.01775391 -47 114 C-48.14302625 120.21066852 -49.28193654 126.42208158 -50.41796875 132.6340332 C-50.80503799 134.74781445 -51.19305422 136.86142251 -51.58203125 138.97485352 C-52.14050508 142.01013027 -52.69558652 145.04601058 -53.25 148.08203125 C-53.42499023 149.02899368 -53.59998047 149.97595612 -53.78027344 150.95161438 C-53.94043945 151.83230087 -54.10060547 152.71298737 -54.265625 153.62036133 C-54.40774414 154.39535477 -54.54986328 155.17034821 -54.69628906 155.96882629 C-55.07394042 158.1522102 -55.07394042 158.1522102 -55 161 C-52.6263603 161.50734284 -50.25142575 162.00602386 -47.875 162.5 C-47.20984375 162.64308594 -46.5446875 162.78617188 -45.859375 162.93359375 C-41.85448069 163.75813081 -38.07487794 164.51969458 -34 164 C-30.63528643 161.02982143 -30.18247005 157.19079498 -29.25 152.9375 C-25.44154133 137.5962805 -14.54666982 127.25677953 -2.75 117.375 C10.83189393 105.64777646 19.78735888 88.89780129 21.15527344 70.96435547 C22.30200245 50.34692608 16.41828543 30.54003521 2.6875 14.875 C1.14157818 13.23422062 -0.42056102 11.60854087 -2 10 C-2.67675781 9.29875 -3.35351562 8.5975 -4.05078125 7.875 C-18.03806136 -5.61179362 -37.47937126 -11.4320526 -56.59375 -11.21484375 C-79.11203461 -9.7945391 -96.85854535 0.00887193 -112.1875 16.3125 Z M-82.3125 89.6875 C-84.24019357 91.86811423 -84.24019357 91.86811423 -84.0625 94.5625 C-82.6432271 97.818479 -81.2317229 98.60448329 -78 100 C-75.29046449 100.25196129 -75.29046449 100.25196129 -73 100 C-72.91868537 98.56344146 -72.86066441 97.1255517 -72.8125 95.6875 C-72.77769531 94.88699219 -72.74289062 94.08648437 -72.70703125 93.26171875 C-72.82819327 90.94847565 -72.82819327 90.94847565 -74.26171875 89.20703125 C-77.32115552 87.08261336 -79.44427448 87.59447057 -82.3125 89.6875 Z M-42.125 96 C-44.99274387 99.05892679 -44.72940456 101.87341955 -45 106 C-43.56344146 106.08131463 -42.1255517 106.13933559 -40.6875 106.1875 C-39.88699219 106.22230469 -39.08648438 106.25710937 -38.26171875 106.29296875 C-35.93746378 106.17694243 -35.93746378 106.17694243 -34.19921875 104.6796875 C-32.68914267 102.92793451 -32.68914267 102.92793451 -33.125 99.9375 C-33.74650413 96.70744585 -33.74650413 96.70744585 -37 95 C-39.93901345 94.78710148 -39.93901345 94.78710148 -42.125 96 Z M-67 110 C-68.16962647 116.03006577 -69.32691862 122.06231976 -70.47290039 128.09692383 C-70.8643824 130.14900281 -71.25921283 132.20044597 -71.6574707 134.2512207 C-72.22971376 137.20102291 -72.78983102 140.15291057 -73.34765625 143.10546875 C-73.52780777 144.02023483 -73.70795929 144.93500092 -73.89356995 145.87748718 C-74.05381149 146.73800186 -74.21405304 147.59851654 -74.37915039 148.48510742 C-74.59566002 149.61428841 -74.59566002 149.61428841 -74.81654358 150.76628113 C-75.14282049 153.48069867 -75.14282049 153.48069867 -74 158 C-70.37 158.33 -66.74 158.66 -63 159 C-61.85730757 152.78926909 -60.71806363 146.57791938 -59.58203125 140.3659668 C-59.19496201 138.25218555 -58.80694578 136.13857749 -58.41796875 134.02514648 C-57.85949492 130.98986973 -57.30441348 127.95398942 -56.75 124.91796875 C-56.57500977 123.97100632 -56.40001953 123.02404388 -56.21972656 122.04838562 C-56.05956055 121.16769913 -55.89939453 120.28701263 -55.734375 119.37963867 C-55.59225586 118.60464523 -55.45013672 117.82965179 -55.30371094 117.03117371 C-54.92605958 114.8477898 -54.92605958 114.8477898 -55 112 C-60.94 111.01 -60.94 111.01 -67 110 Z M-179.56640625 127.0625 C-180.69111328 127.69414062 -181.81582031 128.32578125 -182.97460938 128.9765625 C-184.17059856 129.65099619 -185.36656177 130.32547596 -186.5625 131 C-187.76226063 131.67467332 -188.96212904 132.34915503 -190.16210938 133.0234375 C-193.10914197 134.68040362 -196.05504632 136.33934267 -199 138 C-195.47597973 144.61776003 -191.82425271 151.05951648 -187.6875 157.3125 C-186.7354064 158.7667499 -185.78358819 160.22118014 -184.83203125 161.67578125 C-184.36104004 162.39330566 -183.89004883 163.11083008 -183.40478516 163.85009766 C-180.81542899 167.81288362 -178.27304858 171.80596041 -175.72924805 175.7980957 C-174.04920004 178.54125557 -174.04920004 178.54125557 -172 181 C-169.92737924 181.08767112 -167.85179706 181.10695873 -165.77734375 181.09765625 C-164.51728516 181.09443359 -163.25722656 181.09121094 -161.95898438 181.08789062 C-160.61848891 181.07953403 -159.27799412 181.07106907 -157.9375 181.0625 C-156.59310058 181.0574866 -155.2486994 181.05292342 -153.90429688 181.04882812 C-150.60282059 181.03699488 -147.30143197 181.02050971 -144 181 C-144.48251221 180.03570068 -144.96502441 179.07140137 -145.4621582 178.07788086 C-148.67810349 171.64919105 -151.89248492 165.21975522 -155.09494019 158.78433228 C-156.45041691 156.06081181 -157.80754409 153.33811522 -159.16479492 150.61547852 C-159.85266818 149.2346415 -160.53983061 147.85345018 -161.22631836 146.47192383 C-164.99356213 138.89221872 -168.77245387 131.33740718 -173 124 C-175.21832228 124 -177.72959954 126.02871934 -179.56640625 127.0625 Z M-98 162 C-98.50333542 164.60356241 -99.00279378 167.20776651 -99.5 169.8125 C-99.64308594 170.55048828 -99.78617188 171.28847656 -99.93359375 172.04882812 C-100.50926281 175.07794391 -101 177.909196 -101 181 C-100.01 181 -99.02 181 -98 181 C-97.67 178.69 -97.34 176.38 -97 174 C-96.16855469 174.2165625 -95.33710938 174.433125 -94.48046875 174.65625 C-93.39378906 174.9346875 -92.30710937 175.213125 -91.1875 175.5 C-90.10855469 175.7784375 -89.02960938 176.056875 -87.91796875 176.34375 C-85.01066025 177.10970948 -85.01066025 177.10970948 -82 177 C-80.02 173.37 -78.04 169.74 -76 166 C-83.14887376 163.77590594 -90.48900875 162 -98 162 Z M-70 167 C-67.51047079 169.66735273 -65.36591866 171.55746343 -62 173 C-60.68 171.68 -59.36 170.36 -58 169 C-59.2375 168.67 -60.475 168.34 -61.75 168 C-62.44609375 167.814375 -63.1421875 167.62875 -63.859375 167.4375 C-66.28901861 166.86650651 -66.28901861 166.86650651 -70 167 Z M-73 177 C-74.4694809 178.76732099 -74.4694809 178.76732099 -75.6875 181 C-76.450625 182.32 -77.21375 183.64 -78 185 C-81.96 184.67 -85.92 184.34 -90 184 C-90.33 187.96 -90.66 191.92 -91 196 C-94.63 196.66 -98.26 197.32 -102 198 C-101.855625 199.2375 -101.71125 200.475 -101.5625 201.75 C-101.48128906 202.44609375 -101.40007812 203.1421875 -101.31640625 203.859375 C-100.98698863 206.32991923 -100.98698863 206.32991923 -100 210 C-102.64 211.98 -105.28 213.96 -108 216 C-106.68775452 219.93673644 -105.08089673 222.22719294 -102 225 C-102.94945748 227.44146208 -103.8984445 229.80817295 -105.125 232.125 C-106.21144273 234.10823854 -106.21144273 234.10823854 -106 237 C-104.71086513 237.67154933 -103.41859796 238.33708859 -102.125 239 C-101.40570313 239.37125 -100.68640625 239.7425 -99.9453125 240.125 C-98.05151023 241.13673746 -98.05151023 241.13673746 -96 241 C-96.33 244.96 -96.66 248.92 -97 253 C-93.04 253 -89.08 253 -85 253 C-84.01 256.63 -83.02 260.26 -82 264 C-77.90399524 263.18079905 -74.00064296 262.17665969 -70 261 C-69.27683594 261.75796875 -69.27683594 261.75796875 -68.5390625 262.53125 C-67.90742187 263.1809375 -67.27578125 263.830625 -66.625 264.5 C-65.99851562 265.1496875 -65.37203125 265.799375 -64.7265625 266.46875 C-63.13524093 268.22117431 -63.13524093 268.22117431 -61 268 C-59.42159428 266.44294806 -59.42159428 266.44294806 -57.875 264.5 C-57.33617187 263.8503125 -56.79734375 263.200625 -56.2421875 262.53125 C-55.62730469 261.77328125 -55.62730469 261.77328125 -55 261 C-54.38511719 261.2165625 -53.77023437 261.433125 -53.13671875 261.65625 C-52.32847656 261.9346875 -51.52023437 262.213125 -50.6875 262.5 C-49.88699219 262.7784375 -49.08648438 263.056875 -48.26171875 263.34375 C-45.91230578 264.13933107 -45.91230578 264.13933107 -43 264 C-42.49384702 262.73160474 -41.99530901 261.46016898 -41.5 260.1875 C-41.2215625 259.47980469 -40.943125 258.77210938 -40.65625 258.04296875 C-39.8470838 255.88158784 -39.8470838 255.88158784 -40 253 C-36.04 253 -32.08 253 -28 253 C-27.979375 251.576875 -27.95875 250.15375 -27.9375 248.6875 C-27.92589844 247.88699219 -27.91429687 247.08648437 -27.90234375 246.26171875 C-27.90342145 243.83138666 -27.90342145 243.83138666 -29 241 C-28.113125 240.731875 -27.22625 240.46375 -26.3125 240.1875 C-23.23122452 239.08289181 -20.73778595 237.77150856 -18 236 C-18.45052734 235.22076172 -18.45052734 235.22076172 -18.91015625 234.42578125 C-21.98109545 228.79399105 -21.98109545 228.79399105 -22.0625 225.375 C-20.56302083 222.02322304 -18.46620559 219.71914975 -16 217 C-16.90105469 216.45085937 -16.90105469 216.45085937 -17.8203125 215.890625 C-20.37407822 214.07269008 -22.19578833 212.57805601 -24 210 C-24.11584986 205.77148007 -23.21836557 202.03252516 -22 198 C-25.63 197.01 -29.26 196.02 -33 195 C-33.99 189.555 -33.99 189.555 -35 184 C-35.84304688 184.0721875 -36.68609375 184.144375 -37.5546875 184.21875 C-38.65039062 184.3115625 -39.74609375 184.404375 -40.875 184.5 C-42.51082031 184.63921875 -42.51082031 184.63921875 -44.1796875 184.78125 C-45.78329564 184.90562958 -47.39157551 185 -49 185 C-49.12375 184.236875 -49.2475 183.47375 -49.375 182.6875 C-49.88102792 179.79732864 -49.88102792 179.79732864 -52 177 C-55.7910119 178.44950455 -59.3874638 180.15172566 -63 182 C-63.47050781 181.6390625 -63.94101562 181.278125 -64.42578125 180.90625 C-65.04839844 180.4421875 -65.67101562 179.978125 -66.3125 179.5 C-66.92738281 179.0359375 -67.54226563 178.571875 -68.17578125 178.09375 C-70.07433005 176.74288717 -70.07433005 176.74288717 -73 177 Z M-220 190 C-219.38735097 197.9644374 -218.86064521 204.67052551 -216.9375 212.1875 C-212.65427286 230.45622861 -218.11219473 242.40572182 -227.71728516 257.93554688 C-228.14058105 258.61681641 -228.56387695 259.29808594 -229 260 C-230.13715116 261.84141219 -231.27348438 263.68332436 -232.40917969 265.52563477 C-233.36918625 267.07709835 -234.33853954 268.62276757 -235.30859375 270.16796875 C-238.88467065 276.15562637 -240.99461805 280.03767366 -240 287 C-235.81884142 291.17473591 -231.61912487 293.29479329 -226.125 295.3125 C-225.43664062 295.57611328 -224.74828125 295.83972656 -224.0390625 296.11132812 C-222.36333884 296.75136147 -220.68220438 297.37719914 -219 298 C-218.02910584 304.9176209 -218.01359209 311.56504441 -218.2578125 318.546875 C-217.91180626 323.18126161 -216.44018084 325.57832255 -213.17578125 328.80078125 C-212.56089844 329.29964844 -211.94601562 329.79851562 -211.3125 330.3125 C-210.68988281 330.82425781 -210.06726563 331.33601562 -209.42578125 331.86328125 C-208.95527344 332.23839844 -208.48476563 332.61351562 -208 333 C-208.15597656 333.57878906 -208.31195313 334.15757812 -208.47265625 334.75390625 C-210.44135817 343.13911814 -208.22500495 348.5170116 -204.41015625 355.984375 C-202.17792205 360.75801712 -201.88280202 365.0222629 -201.859375 370.25390625 C-201.84003906 371.43791016 -201.82070313 372.62191406 -201.80078125 373.84179688 C-201.76687601 376.32600739 -201.7486939 378.81048136 -201.74609375 381.29492188 C-201.72160156 382.47763672 -201.69710937 383.66035156 -201.671875 384.87890625 C-201.65785645 386.49647827 -201.65785645 386.49647827 -201.64355469 388.14672852 C-200.79050768 391.92880755 -199.18900518 392.92992818 -196 395 C-193.95747237 396.03591886 -193.95747237 396.03591886 -191.9375 396.6875 C-191.28652344 396.91824219 -190.63554687 397.14898437 -189.96484375 397.38671875 C-183.65619253 399.35582062 -177.64506881 399.19098008 -171.0625 399.1875 C-169.8137207 399.18814453 -168.56494141 399.18878906 -167.27832031 399.18945312 C-157.90000045 399.13672554 -148.70053449 398.51924117 -139.390625 397.4375 C-128.34986996 396.24866256 -121.1691708 398.40468315 -112.13671875 405.1328125 C-97.85013439 417.37845624 -90.59157968 433.14869663 -83 450 C-75.64251134 450.18556087 -69.12594697 448.6839891 -62 447 C-61.33860016 446.84449677 -60.67720032 446.68899353 -59.99575806 446.52877808 C-29.66095473 439.34512046 -0.48355862 428.17272601 22 406 C22.66386719 405.41992188 23.32773437 404.83984375 24.01171875 404.2421875 C31.85514033 397.22717225 37.55559407 386.16145604 40 376 C40.26127686 374.97229492 40.26127686 374.97229492 40.52783203 373.92382812 C41.15991812 370.00973146 41.08353517 366.21063825 41.02734375 362.25390625 C41.01468051 360.51106982 41.00232084 358.76823115 40.99023438 357.02539062 C40.96562415 354.30730043 40.93783346 351.58933011 40.90405273 348.87133789 C40.5746617 320.54630225 48.38861084 303.17182075 64.01367188 279.96606445 C84.39991559 249.6379378 96 227.23574758 96 190 C58.05 190 20.1 190 -19 190 C-19 190.33 -19 190.66 -19 191 C-16.69 191.33 -14.38 191.66 -12 192 C-13.32 196.95 -14.64 201.9 -16 207 C-10.555 210.96 -10.555 210.96 -5 215 C-6.94038039 218.88076078 -8.86624433 221.10386723 -11.85546875 224.12109375 C-13.23287108 225.97526144 -13.23287108 225.97526144 -12.8359375 228.390625 C-11.93518313 231.20232557 -10.79932479 233.69360618 -9.4375 236.3125 C-8.98246094 237.19550781 -8.52742187 238.07851563 -8.05859375 238.98828125 C-7.70925781 239.65214844 -7.35992188 240.31601562 -7 241 C-7.60328125 241.19335938 -8.2065625 241.38671875 -8.828125 241.5859375 C-9.62734375 241.84632813 -10.4265625 242.10671875 -11.25 242.375 C-12.03890625 242.63023437 -12.8278125 242.88546875 -13.640625 243.1484375 C-16.32716625 244.06608073 -16.32716625 244.06608073 -20 246 C-19.67 251.28 -19.34 256.56 -19 262 C-22.3 262 -25.6 262 -29 262 C-28.35312257 272.09891826 -26.41872379 281.82075449 -24.4375 291.72265625 C-24.08219081 293.51810228 -23.72729875 295.31363091 -23.37280273 297.10923767 C-22.63322276 300.84916512 -21.88987827 304.58831685 -21.14355469 308.3269043 C-20.18601191 313.12424069 -19.23611258 317.92305107 -18.28874207 322.72240543 C-17.55846148 326.41934683 -16.82517018 330.1156856 -16.09085083 333.81182671 C-15.73928056 335.58237102 -15.38842736 337.35305788 -15.03829956 339.12388802 C-14.55059178 341.58717297 -14.05907117 344.04966528 -13.56640625 346.51196289 C-13.42196075 347.24490067 -13.27751526 347.97783844 -13.12869263 348.73298645 C-12.39488206 352.47303189 -12.39488206 352.47303189 -11 356 C-12.15000488 355.48445557 -12.15000488 355.48445557 -13.32324219 354.95849609 C-16.17301905 353.68986625 -19.02852688 352.4354875 -21.88867188 351.19042969 C-23.12487791 350.64885989 -24.35864662 350.10169053 -25.58984375 349.54882812 C-27.36066247 348.75481586 -29.14118947 347.9825679 -30.921875 347.2109375 C-31.99018555 346.73962402 -33.05849609 346.26831055 -34.15917969 345.78271484 C-36.88366259 344.7650244 -36.88366259 344.7650244 -39.12304688 345.6171875 C-41.31850896 347.23465593 -43.19457745 348.97025287 -45.109375 350.9140625 C-45.86347656 351.67460937 -46.61757813 352.43515625 -47.39453125 353.21875 C-48.17183594 354.0128125 -48.94914063 354.806875 -49.75 355.625 C-50.54277344 356.42679688 -51.33554687 357.22859375 -52.15234375 358.0546875 C-54.10610107 360.03198406 -56.05365433 362.01540737 -58 364 C-59.32 359.05 -60.64 354.1 -62 349 C-63.69057475 352.38114949 -64.45815467 354.6299825 -65.125 358.25 C-65.37636719 359.58804688 -65.37636719 359.58804688 -65.6328125 360.953125 C-65.75398437 361.62859375 -65.87515625 362.3040625 -66 363 C-68 363 -68 363 -69.87939453 361.34765625 C-70.62302246 360.59355469 -71.36665039 359.83945312 -72.1328125 359.0625 C-73.34130859 357.84433594 -73.34130859 357.84433594 -74.57421875 356.6015625 C-75.41597656 355.74304688 -76.25773438 354.88453125 -77.125 354 C-77.97449219 353.14148438 -78.82398438 352.28296875 -79.69921875 351.3984375 C-81.80399951 349.27000751 -83.90398833 347.13706041 -86 345 C-91.99238194 346.88721972 -97.72092082 349.08708079 -103.4375 351.6875 C-110.73566398 355 -110.73566398 355 -113 355 C-112.77449463 353.8496376 -112.54898926 352.69927521 -112.31665039 351.51405334 C-110.19654478 340.69818774 -108.07742233 329.88212992 -105.95927429 319.06588078 C-104.87015807 313.50451602 -103.78068974 307.94322072 -102.69042969 302.38208008 C-101.6392258 297.0200876 -100.58892986 291.65791802 -99.53927612 286.29562187 C-99.13769184 284.24493448 -98.73577466 282.19431225 -98.33352661 280.14375496 C-97.7722635 277.28228526 -97.21216082 274.42059079 -96.65234375 271.55883789 C-96.48403046 270.70216522 -96.31571716 269.84549255 -96.14230347 268.96286011 C-95.34680873 265.50585696 -95.34680873 265.50585696 -95 262 C-98.63 262 -102.26 262 -106 262 C-105.67 256.72 -105.34 251.44 -105 246 C-106.588125 245.175 -108.17625 244.35 -109.8125 243.5 C-110.70582031 243.0359375 -111.59914063 242.571875 -112.51953125 242.09375 C-115.00568026 240.79826859 -115.00568026 240.79826859 -118 241 C-117.55527344 240.19175781 -117.11054688 239.38351562 -116.65234375 238.55078125 C-116.08644531 237.48214844 -115.52054687 236.41351563 -114.9375 235.3125 C-114.36902344 234.25675781 -113.80054688 233.20101562 -113.21484375 232.11328125 C-111.87582234 228.6817698 -111.70185344 227.40203927 -113 224 C-114.59240314 221.71706521 -114.59240314 221.71706521 -116.5625 219.6875 C-117.696875 218.470625 -118.83125 217.25375 -120 216 C-116.37 213.03 -112.74 210.06 -109 207 C-110.98 199.575 -110.98 199.575 -113 192 C-109.535 191.505 -109.535 191.505 -106 191 C-106 190.67 -106 190.34 -106 190 C-143.62 190 -181.24 190 -220 190 Z M-80.625 272.5 C-82.40777344 273.19609375 -82.40777344 273.19609375 -84.2265625 273.90625 C-85.14179688 274.2671875 -86.05703125 274.628125 -87 275 C-87.33 274.01 -87.66 273.02 -88 272 C-88.33 272 -88.66 272 -89 272 C-90.69946458 280.53536433 -92.39482957 289.07152969 -94.08496857 297.60874557 C-94.86989832 301.57290056 -95.65623655 305.53676526 -96.44580078 309.5 C-97.2077395 313.32483869 -97.96596899 317.15039563 -98.72163391 320.97647858 C-99.01056475 322.43596836 -99.30083046 323.89519453 -99.592453 325.35414886 C-100.00072073 327.39785203 -100.40422967 329.44244145 -100.80664062 331.48730469 C-101.03758423 332.65090515 -101.26852783 333.81450562 -101.50646973 335.0133667 C-102.10869026 338.1532242 -102.10869026 338.1532242 -102 342 C-101.45472656 341.81824219 -100.90945313 341.63648438 -100.34765625 341.44921875 C-94.8984375 339.6328125 -89.44921875 337.81640625 -84 336 C-80.04 339.96 -76.08 343.92 -72 348 C-69.80970467 344.71455701 -69.32799095 342.50035553 -68.5637207 338.6484375 C-68.43502594 338.00908264 -68.30633118 337.36972778 -68.17373657 336.71099854 C-67.75087316 334.60030274 -67.33798554 332.48780132 -66.92578125 330.375 C-66.63515272 328.90666463 -66.34414708 327.43840386 -66.05278015 325.97021484 C-65.44404385 322.89441579 -64.84031255 319.81768631 -64.23999023 316.74023438 C-63.46967498 312.79379367 -62.68636214 308.85006488 -61.89921284 304.9069519 C-61.29581892 301.87632185 -60.69964059 298.84430688 -60.1056118 295.81182861 C-59.81963929 294.35689975 -59.53133959 292.90242633 -59.24068642 291.44842529 C-58.83576547 289.41750113 -58.44066538 287.38490495 -58.0480957 285.3515625 C-57.70739799 283.61640381 -57.70739799 283.61640381 -57.3598175 281.84619141 C-56.78269516 278.93071987 -56.78269516 278.93071987 -58 276 C-59.65 277.32 -61.3 278.64 -63 280 C-63.62648438 279.278125 -64.25296875 278.55625 -64.8984375 277.8125 C-65.71570313 276.884375 -66.53296875 275.95625 -67.375 275 C-68.59316406 273.6078125 -68.59316406 273.6078125 -69.8359375 272.1875 C-70.55007813 271.465625 -71.26421875 270.74375 -72 270 C-75.14029447 270 -77.71830469 271.36011949 -80.625 272.5 Z M-37 271 C-37.33 272.32 -37.66 273.64 -38 275 C-41.3 274.01 -44.6 273.02 -48 272 C-49.46234007 279.05784578 -50.90405271 286.11948839 -52.32739258 293.18530273 C-52.8137023 295.58487217 -53.30548044 297.98334047 -53.80297852 300.38061523 C-54.52004107 303.84078368 -55.21688064 307.30452845 -55.91015625 310.76953125 C-56.13405533 311.82831985 -56.35795441 312.88710846 -56.58863831 313.97798157 C-58.47797725 323.60213877 -57.59763402 332.20169408 -55.4375 341.6875 C-55.16808594 342.88761719 -54.89867187 344.08773437 -54.62109375 345.32421875 C-54.41613281 346.20722656 -54.21117187 347.09023438 -54 348 C-50.60312324 346.53438126 -48.39277314 344.63352456 -45.8125 342 C-45.11769531 341.29875 -44.42289063 340.5975 -43.70703125 339.875 C-41.93810675 338.10241668 -41.93810675 338.10241668 -41 336 C-35 338 -29 340 -23 342 C-23.60206449 333.75896696 -25.09896057 325.77335117 -26.72265625 317.6796875 C-26.9906799 316.32642593 -27.25828631 314.97308167 -27.52549744 313.61965942 C-28.22332584 310.09096435 -28.92674365 306.56340704 -29.63140869 303.03607178 C-30.35211211 299.42316705 -31.06741703 295.80919404 -31.78320312 292.1953125 C-33.18357824 285.12916344 -34.58987138 278.06420985 -36 271 C-36.33 271 -36.66 271 -37 271 Z " fill="#D136CF" transform="translate(582,82)"/>
<path d="M0 0 C0.65742188 0.47308594 1.31484375 0.94617188 1.9921875 1.43359375 C8.28879072 6.37292917 14.56171234 14.00951298 16 22 C16.93063234 34.4428991 16.93063234 34.4428991 13 40 C7.97573268 45.70322236 2.55753335 49.63716612 -5 51 C-12.39916511 51.1993787 -18.37803526 49.99334843 -24 45 C-28.19612117 40.65446205 -29.63790806 37.92954942 -30.5 31.8125 C-31.63923175 24.4845158 -33.37494054 17.43484912 -35.375 10.29614258 C-35.58511719 9.53325928 -35.79523438 8.77037598 -36.01171875 7.984375 C-36.20209717 7.31116211 -36.39247559 6.63794922 -36.58862305 5.94433594 C-37 4 -37 4 -37 0 C-36.01 -0.33 -35.02 -0.66 -34 -1 C-34.7940625 -1.63808594 -35.588125 -2.27617188 -36.40625 -2.93359375 C-37.4271875 -3.75988281 -38.448125 -4.58617188 -39.5 -5.4375 C-40.5209375 -6.26121094 -41.541875 -7.08492188 -42.59375 -7.93359375 C-43.3878125 -8.61550781 -44.181875 -9.29742187 -45 -10 C-45 -10.33 -45 -10.66 -45 -11 C-28.31704306 -13.35226074 -13.67997265 -10.00705395 0 0 Z M-22 -1 C-21.60167969 -0.30777344 -21.20335937 0.38445312 -20.79296875 1.09765625 C-16.33339115 9.33322655 -14.42809487 16.8301277 -13 26 C-16.66666667 22.33333333 -20.33333333 18.66666667 -24 15 C-23.52120743 28.63524389 -23.52120743 28.63524389 -17 40 C-12.49046408 42.70572155 -8.12158254 42.74481785 -3 42 C1.35837759 40.29327398 4.22316122 38.01224447 7.0625 34.3125 C8.73449786 28.40477423 8.15848674 23.15147538 5.25 17.75 C4.5075 16.8425 3.765 15.935 3 15 C2.278125 14.01 1.55625 13.02 0.8125 12 C-4.32119855 5.98443912 -11.88775655 2.18824706 -19 -1 C-19.99 -1 -20.98 -1 -22 -1 Z " fill="#D136CF" transform="translate(369,127)"/>
<path d="M0 0 C2.5 -0.375 2.5 -0.375 5 0 C7.65640846 3.98461269 6.78942661 6.69537587 6.0625 11.1875 C5.9284375 12.06083984 5.794375 12.93417969 5.65625 13.83398438 C5.12338055 17.22598952 4.56234199 20.61275156 4 24 C3.73666265 25.60886156 3.47348982 27.21775005 3.21044922 28.82666016 C2.47495664 33.30929387 1.72366079 37.78908145 0.96286011 42.26748657 C0.65493785 44.08531814 0.35001296 45.90366004 0.04812622 47.72250366 C-0.38447968 50.31692631 -0.83103959 52.90858159 -1.28125 55.5 C-1.4093959 56.28260696 -1.53754181 57.06521393 -1.66957092 57.87153625 C-2.65553659 63.42009337 -4.12397408 67.27208139 -8.375 71.1875 C-14.34607304 75.31038377 -19.90805336 75.78691463 -27 75 C-34.18451819 72.95517559 -38.85160935 69.22258597 -43 63 C-43.65628793 58.98628116 -43.89072713 54.84262007 -42.08984375 51.1171875 C-38.31537281 46.28683562 -33.65294993 44.11228916 -27.75 43.125 C-21.02981303 42.54508539 -14.87810313 44.91971255 -9 48 C-8.91363281 47.18144531 -8.82726562 46.36289063 -8.73828125 45.51953125 C-7.70500971 36.52343315 -6.34254205 27.59625827 -4.83383179 18.66732788 C-4.50231905 16.70125339 -4.17752681 14.7340496 -3.8527832 12.7668457 C-3.64355225 11.54827881 -3.43432129 10.32971191 -3.21875 9.07421875 C-3.03248047 7.97682373 -2.84621094 6.87942871 -2.65429688 5.7487793 C-2 3 -2 3 0 0 Z " fill="#D033CE" transform="translate(698,160)"/>
<path d="M0 0 C6.4328844 3.7525159 9.61189011 10.08366637 12 17 C11.70811037 21.5972617 10.89847587 23.14666635 7.58984375 26.2890625 C3.04942429 29.9453671 -2.1009957 32.62627752 -7.1875 35.4375 C-8.16525391 35.98470703 -9.14300781 36.53191406 -10.15039062 37.09570312 C-12.11334365 38.19199877 -14.07915683 39.28318953 -16.04785156 40.36914062 C-18.05513874 41.47802901 -20.05693079 42.5969107 -22.05371094 43.72460938 C-23.02469727 44.26794922 -23.99568359 44.81128906 -24.99609375 45.37109375 C-25.86548584 45.86150146 -26.73487793 46.35190918 -27.63061523 46.85717773 C-30.98460286 48.47490222 -33.35837171 48.72832566 -37 48 C-42.72339511 45.06850494 -45.6996524 38.77892202 -48 33 C-48.60387144 29.57024472 -48.23029666 28.45654777 -47 25 C-41.0683994 19.0345529 -33.83411314 15.3360898 -26.5 11.375 C-25.28994018 10.71431837 -24.08030159 10.05286467 -22.87109375 9.390625 C-20.57785234 8.13497967 -18.28200386 6.88465802 -15.98413086 5.63745117 C-13.5807606 4.31867474 -11.20890828 2.96601995 -8.84765625 1.57421875 C-5.47610313 -0.28961652 -3.78778552 -0.72532063 0 0 Z M-10.4453125 11.8515625 C-11.52296875 12.45613281 -12.600625 13.06070313 -13.7109375 13.68359375 C-14.83757812 14.32425781 -15.96421875 14.96492187 -17.125 15.625 C-18.2284375 16.24246094 -19.331875 16.85992187 -20.46875 17.49609375 C-26.82832549 21.08374025 -33.00251973 24.83363448 -39 29 C-38.27031096 33.50871015 -36.67844067 36.28474359 -34 40 C-27.87096552 37.69096411 -22.32315993 34.38779144 -16.625 31.1875 C-14.95824219 30.26227539 -14.95824219 30.26227539 -13.2578125 29.31835938 C-7.59587279 26.1469991 -2.17727915 22.91652962 3 19 C1.86059291 15.14354522 0.82205934 11.93494171 -2 9 C-5.67309879 9 -7.25428657 10.05578587 -10.4453125 11.8515625 Z " fill="#D136CF" transform="translate(401,166)"/>
<path d="M0 0 C2.53857876 1.35177989 4.48577698 2.83131236 6.23828125 5.1171875 C7.40653806 9.5306021 7.30441491 12.27366124 5.17578125 16.3671875 C1.737619 20.52917338 -1.87264368 23.22199633 -7.19921875 24.2421875 C-13.81792635 24.70495893 -19.05599784 24.68691488 -24.44921875 20.4921875 C-26.68288719 17.62032807 -27.12654085 15.87608265 -27.19921875 12.2421875 C-25.41138918 7.08903168 -22.58037147 4.39661746 -18.19921875 1.2421875 C-12.49983718 -1.45652629 -6.03505921 -2.07957635 0 0 Z " fill="#D033CE" transform="translate(603.19921875,220.7578125)"/>
<path d="M0 0 C22.99190394 5.32337357 37.99244658 21.99452924 50.54296875 40.8203125 C50.85546875 43.3828125 50.85546875 43.3828125 50.54296875 45.8203125 C47.54296875 47.8203125 47.54296875 47.8203125 45.65234375 47.8515625 C42.34663633 46.23543887 40.76661992 43.30564777 38.79296875 40.3203125 C37.90460665 39.03398897 37.01266085 37.75013321 36.1171875 36.46875 C35.67938965 35.84194336 35.2415918 35.21513672 34.79052734 34.56933594 C25.50277666 21.54830934 12.34254298 12.04217299 -3.45703125 9.1328125 C-4.73578125 8.92269531 -6.01453125 8.71257812 -7.33203125 8.49609375 C-10.45703125 7.8203125 -10.45703125 7.8203125 -12.45703125 5.8203125 C-12.76953125 3.3203125 -12.76953125 3.3203125 -12.45703125 0.8203125 C-8.08410255 -2.0949733 -5.02145562 -0.88056602 0 0 Z " fill="#D136CF" transform="translate(540.45703125,78.1796875)"/>
<path d="M0 0 C1.98 1.65 3.96 3.3 6 5 C4.70700306 7.88437779 3.34058637 9.87219421 1 12 C2.29299694 14.88437779 3.65941363 16.87219421 6 19 C4.60667426 22.36720387 3.0210714 23.9859524 0 26 C-1.98 24.02 -3.96 22.04 -6 20 C-4.66666667 17.33333333 -3.33333333 14.66666667 -2 12 C-3.32 10.68 -4.64 9.36 -6 8 C-4.55746343 4.63408134 -2.66735273 2.48952921 0 0 Z " fill="#D340D1" transform="translate(436,119)"/>
<path d="M0 0 C2.4375 0.8125 2.4375 0.8125 5 2 C6.07465731 5.22397192 6.16691803 7.67470786 6.1875 11.0625 C6.20167969 12.12597656 6.21585938 13.18945312 6.23046875 14.28515625 C6 17 6 17 4 19 C1.375 18.625 1.375 18.625 -1 18 C-3.5608283 7.71095772 -3.5608283 7.71095772 -3 3 C-1.5 1.125 -1.5 1.125 0 0 Z " fill="#D137CF" transform="translate(592,129)"/>
<path d="M0 0 C6.15234375 -0.09765625 6.15234375 -0.09765625 8 0 C9 1 9 1 9.1328125 2.8125 C9.13023437 3.534375 9.12765625 4.25625 9.125 5 C9.12757813 5.721875 9.13015625 6.44375 9.1328125 7.1875 C9 9 9 9 8 10 C5.32941149 10.14115161 2.67567762 10.04247107 0 10 C0 6.7 0 3.4 0 0 Z " fill="#D444D2" transform="translate(309,151)"/>
<path d="M0 0 C3.5 0.125 3.5 0.125 4.5 1.125 C4.64193337 4.12831018 4.54236378 7.11717134 4.5 10.125 C1.53 10.125 -1.44 10.125 -4.5 10.125 C-4.59765625 3.19140625 -4.59765625 3.19140625 -4.5 1.125 C-3.5 0.125 -3.5 0.125 0 0 Z " fill="#D444D2" transform="translate(313.5,131.875)"/>
<path d="M0 0 C2.97 0 5.94 0 9 0 C9 2.97 9 5.94 9 9 C6.03 9 3.06 9 0 9 C0 6.03 0 3.06 0 0 Z " fill="#D33DD1" transform="translate(661,393)"/>
<path d="M0 0 C2.97 0 5.94 0 9 0 C9 2.97 9 5.94 9 9 C6.03 9 3.06 9 0 9 C0 6.03 0 3.06 0 0 Z " fill="#D33DD1" transform="translate(661,374)"/>
<path d="M0 0 C2.97 0 5.94 0 9 0 C9 2.97 9 5.94 9 9 C6.03 9 3.06 9 0 9 C0 6.03 0 3.06 0 0 Z " fill="#D341D2" transform="translate(318,142)"/>
<path d="M0 0 C3.3 0 6.6 0 10 0 C10 2.64 10 5.28 10 8 C6.7 8 3.4 8 0 8 C0 5.36 0 2.72 0 0 Z " fill="#D33DD1" transform="translate(670,384)"/>
<path d="M0 0 C3.3 0 6.6 0 10 0 C10 2.64 10 5.28 10 8 C6.7 8 3.4 8 0 8 C0 5.36 0 2.72 0 0 Z " fill="#D33DD1" transform="translate(651,384)"/>
<path d="M0 0 C6.15234375 -0.09765625 6.15234375 -0.09765625 8 0 C9 1 9 1 9.09765625 2.84765625 C9.04882812 5.92382812 9.04882812 5.92382812 9 9 C6.03 9 3.06 9 0 9 C0 6.03 0 3.06 0 0 Z " fill="#D546D3" transform="translate(300,142)"/>
<path d="M0 0 C2.31 1.98 4.62 3.96 7 6 C5.35 7.98 3.7 9.96 2 12 C-0.88437779 10.70700306 -2.87219421 9.34058637 -5 7 C-3.61410019 3.90837736 -2.50816459 2.50816459 0 0 Z " fill="#D137CF" transform="translate(330,182)"/>
<path d="M0 0 C2.31 1.98 4.62 3.96 7 6 C5.35 7.98 3.7 9.96 2 12 C-0.88437779 10.70700306 -2.87219421 9.34058637 -5 7 C-3.61410019 3.90837736 -2.50816459 2.50816459 0 0 Z " fill="#D136CF" transform="translate(317,169)"/>
<path d="M0 0 C3.36720387 1.39332574 4.9859524 2.9789286 7 6 C4.69 7.98 2.38 9.96 0 12 C-1.65 10.35 -3.3 8.7 -5 7 C-3.70700306 4.11562221 -2.34058637 2.12780579 0 0 Z " fill="#D138D0" transform="translate(422,133)"/>
<path d="M0 0 C2.31 1.98 4.62 3.96 7 6 C5.35 7.98 3.7 9.96 2 12 C-0.88437779 10.70700306 -2.87219421 9.34058637 -5 7 C-3.61410019 3.90837736 -2.50816459 2.50816459 0 0 Z " fill="#D138D0" transform="translate(422,119)"/>
<path d="M0 0 C1.98 1.65 3.96 3.3 6 5 C4.73058503 8.91402949 3.48832306 10.79072873 0 13 C-1.65 11.35 -3.3 9.7 -5 8 C-3.62845496 5.04590299 -2.01136276 2.55991624 0 0 Z " fill="#D23AD0" transform="translate(317,182)"/>
<path d="M0 0 C3.36720387 1.39332574 4.9859524 2.9789286 7 6 C5.35 7.98 3.7 9.96 2 12 C-1.36720387 10.60667426 -2.9859524 9.0210714 -5 6 C-3.35 4.02 -1.7 2.04 0 0 Z " fill="#D239D0" transform="translate(330,169)"/>
</svg>
