<?xml version="1.0" encoding="UTF-8"?>
<svg id="Layer_2" data-name="Layer 2" xmlns="http://www.w3.org/2000/svg" viewBox="0 0 1186.85 1446.1">
  <defs>
    <style>
      .cls-1 {
        fill: #fff;
      }
    </style>
  </defs>
  <g id="Layer_1-2" data-name="Layer 1">
    <g>
      <rect class="cls-1" x="0" y="0" width="170.1" height="973.64" rx="83.47" ry="83.47"/>
      <rect class="cls-1" x="922.2" y="1181.45" width="170.1" height="359.2" rx="85.05" ry="85.05" transform="translate(2368.29 353.81) rotate(90)"/>
      <rect class="cls-1" x="1016.75" y="472.45" width="170.1" height="973.64" rx="83.47" ry="83.47" transform="translate(2203.6 1918.55) rotate(-180)"/>
      <path class="cls-1" d="M359.2,470.43c-139.52,0-252.62,113.1-252.62,252.62,0,139.52,113.1,252.62,252.62,252.62,139.52,0,252.62-113.1,252.62-252.62,0-139.52-113.1-252.62-252.62-252.62ZM359.2,847.73c-68.86,0-124.68-55.82-124.68-124.68s55.82-124.68,124.68-124.68c68.86,0,124.68,55.82,124.68,124.68s-55.82,124.68-124.68,124.68Z"/>
      <path class="cls-1" d="M827.64,470.43c-139.52,0-252.62,113.1-252.62,252.62,0,139.52,113.1,252.62,252.62,252.62,139.52,0,252.62-113.1,252.62-252.62,0-139.52-113.1-252.62-252.62-252.62ZM827.64,847.73c-68.86,0-124.68-55.82-124.68-124.68,0-68.86,55.82-124.68,124.68-124.68,68.86,0,124.68,55.82,124.68,124.68,0,68.86-55.82,124.68-124.68,124.68Z"/>
    </g>
  </g>
</svg>