<?xml version="1.0" encoding="UTF-8"?>
<svg id="Layer_2" data-name="Layer 2" xmlns="http://www.w3.org/2000/svg" viewBox="0 0 1018.85 1267.63">
  <defs>
    <style>
      .cls-1 {
        fill: #fff;
      }
    </style>
  </defs>
  <g id="Layer_1-2" data-name="Layer 1">
    <g>
      <g>
        <g>
          <path class="cls-1" d="M122.21,483.32c-.27.63-.58,1.24-.93,1.82.62.87,1.23,1.75,1.87,2.61.57.77,1.14,1.53,1.71,2.29.28.37,1.33,1.72.47.62.69.89,1.3,1.83,1.82,2.8,1.04,1.09,1.9,2.34,2.54,3.71-.32-4.67-.59-9.34-.84-14.02-2.15.54-4.44.59-6.63.17Z"/>
          <path class="cls-1" d="M130.36,499.81l-1.14-2.43c-.61-1.3-1.43-2.51-2.45-3.57l-.08-.11c-.53-.97-1.12-1.89-1.78-2.73h0c-.17-.23-.37-.49-.47-.62l-.31-.41c-.47-.63-.94-1.25-1.41-1.88-.42-.57-.82-1.14-1.23-1.71l-.83-1.17.17-.28c.33-.54.63-1.13.9-1.76l.16-.37.39.07c2.14.4,4.35.34,6.41-.17l.59-.15.03.6c.25,4.49.52,9.3.84,14.01l.18,2.68ZM127.55,493.17c.55.58,1.04,1.2,1.48,1.85-.25-3.8-.46-7.62-.66-11.25-1.9.4-3.91.44-5.86.12-.2.43-.41.85-.63,1.24l.46.64c.4.57.8,1.14,1.22,1.7.46.63.93,1.25,1.4,1.88l.31.41c.12.17.41.54.6.79.03.04.07.09.1.13l.08.11h0c.55.75,1.06,1.55,1.52,2.39Z"/>
        </g>
        <g>
          <path class="cls-1" d="M987.54,367.83c-7.71-138.46-42.29-197.64-53.88-215.67-27-42-60-73-103-96-87.11-44.55-185-44.02-279.17-39.59-26.97-6.59-58.62-12.21-94.25-14.7-53.16-3.71-95.46.95-118.33,4.26-22.79,3.3-62.4,9.28-111.02,28.24-20.21,7.88-55.22,21.79-94.71,50.41-19.77,14.33-45.89,33.57-71.12,67.27-9.3,12.42-30.7,43.15-44.59,87.98-11.25,36.3-11.79,65.78-12.4,123.26-.24,22.15.15,40.09,4.95,133.22,5.29,102.73,6.03,104.47,6.46,132.5.7,45.29-.63,79.98-2.62,132.16-3.24,84.73-5.99,89.11-4.87,131.06,1.09,40.74,2.23,75.37,14.04,119.98,12.13,45.82,28.86,77.03,33.09,84.73,21.34,38.93,45.1,64.76,56.46,76.33,29.35,29.87,55.58,45.52,82.45,61.55,24.38,14.54,37.9,19.76,53.78,21.13,9.32.8,28.82,2.21,48.49-9.54,4.8-2.87,21.13-12.94,28.83-32.81,6.36-16.41,3.46-30.81-1.17-52.3-5.65-26.25-12.22-31.38-18.79-56.77-5.4-20.88-6.05-37.07-6.62-51.58-1.49-37.5,4.81-65.31,14.1-104.96,10.1-43.11,15.41-50.14,28.85-105.63,5.21-21.48,8.91-39.03,10.49-46.75-.77-.6-1.54-1.2-2.3-1.82-25.49-9.07-49.29-22.25-70.85-38.58-17.12-12.98-32.85-27.67-47.22-43.62-1.1,3.33-6.61,5.11-9.34,1.22-10.14-14.38-22.13-28.35-28.69-44.75-7.26-7.79-13.49-16.2-15.42-26.53-3.97-6.08-7.32-12.56-9.89-19.43-8.53-16.92-16.23-34.27-23.93-51.6-1.13-2.55-.13-4.95,1.58-6.36-2.43-7.83-4.44-15.76-6.04-23.76-2.5.89-5.52.07-6.21-3.26-2.08-10.12-3.36-20.31-4.26-30.54-2.02,6.81-9.61,11.21-16.53,9.19-16.39-4.78-34.05-12.14-46.16-24.61-11.39-11.73-12.33-27.29-11.97-42.77.45-19.28,3.57-41.36,14.47-57.8.24-.75.53-1.5.87-2.24,3.44-7.41,9.29-12.86,16.48-15.65,11.64-8.72,25.97-15.65,39.23-14.02,28.33-112.15,183.51-213.07,296.38-238.82,44.11-10.06,49.4-1.26,248.71-13.6,11.21-.69,34.78-2.18,63.99,5.22,48.29,12.23,79.4,40.49,92.54,52.43,36.85,33.48,93.6,111.52,100.71,205.69,13.56-6.63,28.7-2.21,41.43,6.52,5.72,1.92,11.38,4.03,17.03,6.03.07.03.14.06.21.09-.01-6.46-.1-11.22-.28-14.41Z"/>
          <path class="cls-1" d="M259.24,1256.98c-4.33,0-7.92-.31-10.49-.53-16.13-1.39-29.75-6.74-53.99-21.2-27.34-16.31-53.16-31.71-82.55-61.63-21.67-22.05-41.22-48.48-56.55-76.44-7.71-14.06-22.26-43.78-33.13-84.84-12.07-45.57-13.03-81.77-14.05-120.09-.66-24.75.02-36.27,1.36-59.22.92-15.66,2.18-37.1,3.5-71.87,2-52.29,3.32-86.84,2.62-132.13-.27-17.77-.66-24.74-2.27-54.08-.95-17.24-2.25-40.84-4.19-78.41-4.8-93.25-5.19-111.42-4.95-133.25.6-55.64.93-86.29,12.43-123.41,9.84-31.75,25.29-62.23,44.67-88.13,25.79-34.45,53.13-54.26,71.22-67.38,40.35-29.24,75.78-43.05,94.82-50.47,49.67-19.36,89.65-25.15,111.14-28.26C377.55.03,417.39-1.4,457.27,1.38c31.64,2.21,63.36,7.15,94.27,14.69,93.54-4.4,192.15-4.95,279.35,39.65,43.01,23.01,75.8,53.57,103.19,96.17,30.04,46.73,48.7,121.39,53.96,215.92.18,3.16.27,7.88.28,14.44v.72s-.8-.3-.8-.3c-2.06-.73-4.05-1.45-6.03-2.16-3.62-1.3-7.37-2.65-11.07-3.9l-.12-.06c-8.42-5.78-24.94-14.3-40.93-6.48l-.66.32-.06-.74c-7.29-96.63-66.64-174.55-100.55-205.36-13.21-12-44.16-40.12-92.33-52.32-29.05-7.36-52.48-5.91-63.74-5.21h-.1c-97.84,6.07-149.78,7.04-180.82,7.63-33.04.62-45.41.86-67.82,5.97-57.67,13.16-124.85,45.65-179.7,86.92-62.12,46.74-103.43,100.55-116.3,151.53l-.11.43-.44-.05c-14.42-1.76-29.09,6.59-38.87,13.92l-.12.07c-7.13,2.76-12.88,8.23-16.21,15.4-.32.7-.61,1.43-.84,2.18l-.06.13c-8.97,13.53-13.81,32.89-14.39,57.53-.33,14.29.28,30.52,11.83,42.41,10.1,10.4,25.13,18.4,45.94,24.47,6.51,1.9,13.95-2.24,15.91-8.85l.75-2.52.23,2.62c1.03,11.68,2.38,21.36,4.26,30.48.25,1.24.89,2.18,1.83,2.71,1.03.58,2.42.65,3.72.18l.54-.2.11.57c1.6,7.99,3.63,15.97,6.03,23.71l.1.32-.26.21c-1.42,1.17-2.54,3.3-1.44,5.77l.21.48c7.5,16.89,15.26,34.35,23.71,51.1,2.48,6.64,5.79,13.14,9.86,19.38l.07.18c2.04,10.88,8.88,19.39,15.3,26.28l.1.16c5.03,12.58,13.37,23.86,21.44,34.77,2.39,3.23,4.86,6.57,7.19,9.87,1.06,1.5,2.7,2.21,4.51,1.94,1.85-.27,3.44-1.49,3.95-3.03l.27-.82.58.64c14.73,16.35,30.59,31.01,47.15,43.56,22.03,16.7,45.83,29.66,70.72,38.51l.15.08c.76.61,1.52,1.22,2.29,1.81l.25.19-.06.31c-1.36,6.63-5.09,24.46-10.5,46.77-6.94,28.65-11.81,44.69-16.1,58.83-4.05,13.34-7.87,25.94-12.75,46.79-8.72,37.23-15.61,66.64-14.08,104.83.57,14.37,1.22,30.65,6.61,51.47,3.04,11.76,6.09,19.18,9.04,26.35,3.45,8.4,6.72,16.34,9.75,30.43,4.46,20.73,7.69,35.71,1.14,52.59-3.61,9.32-11.58,22.63-29.04,33.06-14.15,8.45-28.21,10.14-38.3,10.14ZM417.81,1c-26.56,0-52.95,1.88-78.83,5.63-21.44,3.11-61.35,8.89-110.92,28.21-19,7.4-54.35,21.19-94.6,50.35-18.04,13.08-45.31,32.83-71.01,67.17-19.32,25.81-34.71,56.18-44.52,87.83-11.46,36.98-11.79,67.57-12.38,123.12-.23,21.81.15,39.96,4.95,133.19,1.94,37.56,3.24,61.17,4.19,78.4,1.62,29.35,2,36.33,2.28,54.12.7,45.32-.62,79.88-2.62,132.19-1.33,34.79-2.59,56.24-3.51,71.89-1.34,22.92-2.02,34.42-1.36,59.13,1.02,38.26,1.98,74.4,14.02,119.86,10.84,40.96,25.36,70.6,33.04,84.62,15.28,27.88,34.78,54.23,56.38,76.22,29.3,29.82,55.07,45.19,82.35,61.47,24.09,14.37,37.61,19.69,53.57,21.07,8.46.73,28.26,2.44,48.19-9.47,17.22-10.28,25.07-23.38,28.62-32.56,6.43-16.6,3.23-31.46-1.19-52.02-3.02-14.01-6.26-21.91-9.7-30.27-2.96-7.2-6.02-14.65-9.08-26.48-5.41-20.93-6.06-37.26-6.64-51.68-1.53-38.33,5.37-67.8,14.11-105.1,4.89-20.88,8.72-33.5,12.77-46.86,4.29-14.14,9.15-30.16,16.08-58.78,5.32-21.96,9.02-39.57,10.43-46.43-.67-.52-1.33-1.05-1.99-1.58-24.96-8.89-48.81-21.88-70.9-38.63-16.41-12.44-32.14-26.94-46.77-43.11-.83,1.52-2.51,2.67-4.43,2.95-2.19.33-4.19-.53-5.47-2.35-2.32-3.29-4.79-6.63-7.18-9.86-8.09-10.94-16.45-22.24-21.53-34.91-6.48-6.96-13.37-15.57-15.47-26.61-4.09-6.28-7.41-12.82-9.88-19.45-8.44-16.72-16.2-34.2-23.71-51.09l-.21-.48c-1.05-2.35-.47-4.96,1.46-6.73-2.32-7.5-4.28-15.22-5.85-22.96-1.42.37-2.85.22-4-.42-1.2-.68-2-1.84-2.32-3.38-1.77-8.6-3.07-17.7-4.08-28.48-2.89,5.92-10.02,9.36-16.36,7.51-20.98-6.12-36.15-14.21-46.38-24.74-11.82-12.17-12.45-28.64-12.11-43.13.58-24.8,5.46-44.32,14.52-58,.24-.76.54-1.51.87-2.23,3.42-7.38,9.35-13.02,16.69-15.88,9.83-7.35,24.53-15.72,39.1-14.12,13.05-51.07,54.43-104.91,116.56-151.66,54.96-41.35,122.28-73.91,180.08-87.1,22.51-5.14,34.9-5.37,68.02-5.99,31.02-.58,82.95-1.57,180.77-7.62h.1c11.31-.71,34.85-2.17,64.04,5.23,48.41,12.26,79.48,40.49,92.75,52.55,33.94,30.83,93.26,108.69,100.82,205.3,12.05-5.55,26.65-3.14,41.21,6.83,3.7,1.24,7.42,2.58,11.03,3.88,1.83.66,3.66,1.32,5.49,1.97-.02-6.17-.11-10.64-.28-13.67-5.25-94.35-23.86-168.85-53.8-215.43-27.29-42.46-59.96-72.91-102.82-95.83-87-44.49-185.48-43.92-278.91-39.53h-.07s-.07-.01-.07-.01c-30.87-7.54-62.56-12.48-94.17-14.68-13.14-.92-26.29-1.37-39.39-1.37Z"/>
        </g>
        <g>
          <path class="cls-1" d="M984.24,505.52c-9.29,10.92-25.27,16.32-38.99,18.72-4.82.84-9.67-.28-12.99-3.37-1.78,5.06-3.65,10.09-5.53,15.12-.01,0-.02,0-.03-.01-.39,1.08-.83,2.16-1.33,3.24-.39.86-.91,1.62-1.49,2.31-.77,2.67-1.57,5.34-2.41,7.99.73,2.46.65,5.01.18,7.65-.85,4.71-2.46,9.12-4.24,13.55-1.4,3.5-3.59,6.29-6.39,7.99-1.12,2.82-2.27,5.63-3.44,8.44-2.05,4.87-4.16,9.71-6.33,14.53-3.71,16.66-10.05,32.62-19.07,47.65-2.39,3.97-5.8,5.91-9.35,6.34-2.67,4.33-5.41,8.63-8.24,12.86-2.73,4.09-5.55,8.1-8.44,12.05-4.47,8.39-9.7,16.43-15.89,24-2.2,2.69-4.99,3.95-7.88,4.14-2.5,2.54-5.05,5.04-7.68,7.45-.51,1.14-1.03,2.27-1.53,3.41-1.07,2.46-3.18,3-5.11,2.38-1.12.93-2.26,1.84-3.4,2.75-.13.14-.27.27-.41.4-.65,1.72-1.59,3.38-2.8,4.88-6.85,8.52-16.12,15.35-25.79,20.4-7.71,10.89-19.06,18-31.56,22.31-3.46,1.19-5.79-1.39-6.06-4.23-6.66,4.99-13.01,10.39-18.84,16.49-2.09,2.19-4.74,1.79-6.52.28-.07,2.08-.11,4.18-.1,6.3.41,84.33-2.8,106.4-9.23,150.53-5.04,34.57-13.69,68.07-13.69,68.07-.2.76-.2.77-.56,2.14-15.46,59.47-22.43,96.79-15.44,117.86,2.58,7.8,6.56,14.98,6.56,14.98,4.89,8.83,10.01,14.48,11.44,16.02,4.09,4.41,6.33,6.83,10.25,9.25,3.5,2.17,7.16,3.61,11.75,7.75,1.66,1.5,2.75,2.73,3,3,4.49,4.88,28.54,16.49,62.62,12.5,30.1-3.52,50.81-17.19,60.38-23.5,3.1-2.05,4.74-3.13,7-5,13.22-10.95,14.5-21.5,29-36,1.75-1.75,1.94-1.8,3-3,8.46-9.53,9.61-20.85,10-24,3.93-31.69,16.67-61.7,23-93,14.23-70.34,35.23-72.91,47-145,3.15-19.3,3.95-33.22,5-53,8.24-154.83,11.39-272.1,12.23-307.89-.48.78-1.04,1.53-1.65,2.26Z"/>
          <path class="cls-1" d="M775.26,1194.99c-27.22,0-45.31-9.5-48.97-13.49l-.09-.1c-.34-.38-1.38-1.52-2.88-2.87-3.3-2.98-6.08-4.52-8.76-6.01-1.01-.56-1.96-1.09-2.92-1.68-3.98-2.46-6.24-4.9-10.35-9.33-2.39-2.58-7.07-8.1-11.51-16.11-.04-.07-4.03-7.32-6.6-15.07-7.16-21.61.24-59.69,15.43-118.14l.56-2.14c.09-.33,8.7-33.87,13.68-68.02,6.42-44.05,9.64-66.16,9.23-150.46-.01-2.03.02-4.16.1-6.32l.04-1.03.79.67c1.43,1.21,3.81,1.88,5.84-.25,5.37-5.63,11.55-11.04,18.9-16.55l.71-.53.09.88c.15,1.5.89,2.82,1.98,3.52.97.62,2.15.72,3.42.28,13.73-4.74,24.27-12.18,31.31-22.13l.07-.1.11-.06c10.52-5.49,19.38-12.5,25.63-20.27,1.16-1.44,2.08-3.04,2.72-4.74l.12-.18.09-.09c.1-.1.21-.2.3-.3,1.19-.95,2.33-1.86,3.44-2.79l.21-.18.26.08c1.97.63,3.65-.15,4.5-2.1.44-1.01.89-2.02,1.35-3.02l.3-.56c2.34-2.13,4.77-4.5,7.66-7.43l.13-.14h.19c2.97-.21,5.57-1.58,7.52-3.97,5.87-7.18,11.2-15.23,15.83-23.92,2.91-3.98,5.75-8.03,8.47-12.09,2.72-4.07,5.41-8.27,8.23-12.84l.13-.21.24-.03c2.62-.32,6.3-1.64,8.98-6.1,8.89-14.8,15.29-30.78,19.01-47.5l.03-.1c2.19-4.84,4.32-9.73,6.33-14.52,1.07-2.55,2.2-5.31,3.44-8.43l.06-.16.14-.09c2.67-1.62,4.81-4.3,6.19-7.75,1.95-4.89,3.42-9.05,4.21-13.46.52-2.92.47-5.27-.17-7.42l-.04-.15.05-.15c.76-2.42,1.55-5.04,2.4-7.98l.1-.19c.6-.7,1.06-1.42,1.42-2.19.46-1.01.89-2.05,1.31-3.2l.19-.51.04.02c1.63-4.37,3.53-9.46,5.34-14.61l.25-.72.56.52c3.08,2.87,7.77,4.08,12.57,3.24,12.28-2.15,28.97-7.12,38.7-18.55h0c.6-.7,1.14-1.44,1.61-2.2l.97-1.56-.04,1.83c-.77,32.78-3.93,151.85-12.24,307.91-1.1,20.6-1.92,34.18-5.01,53.05-6.14,37.6-14.65,56.04-23.67,75.57-8.12,17.59-16.52,35.79-23.33,69.45-2.68,13.22-6.55,26.42-10.3,39.19-5.12,17.45-10.42,35.49-12.69,53.77l-.04.32c-.44,3.61-1.78,14.61-10.08,23.96-.65.73-.99,1.06-1.51,1.55-.36.34-.8.77-1.51,1.47-6.88,6.88-10.7,12.76-14.39,18.44-3.94,6.07-7.67,11.81-14.65,17.59-2.28,1.89-3.97,3.01-7.04,5.03-9.86,6.51-30.37,20.04-60.59,23.58-4.92.58-9.62.83-14.08.83ZM723.14,786.2c-.05,1.83-.08,3.62-.07,5.35.41,84.37-2.81,106.51-9.24,150.61-4.98,34.21-13.61,67.79-13.7,68.12l-.56,2.14c-15.15,58.28-22.54,96.2-15.45,117.58,2.54,7.66,6.49,14.83,6.53,14.9,4.38,7.92,9,13.37,11.36,15.92,4.05,4.37,6.29,6.78,10.15,9.17.94.58,1.88,1.1,2.88,1.66,2.6,1.45,5.56,3.09,8.94,6.14,1.53,1.38,2.6,2.55,2.95,2.94l.08.09c4.18,4.54,27.6,16.39,62.2,12.34,29.99-3.51,50.37-16.96,60.16-23.42,3.04-2.01,4.72-3.11,6.96-4.97,6.86-5.68,10.54-11.36,14.45-17.36,3.72-5.73,7.57-11.65,14.52-18.6.71-.71,1.16-1.14,1.52-1.49.52-.5.84-.8,1.46-1.49,8.1-9.12,9.41-19.88,9.84-23.41l.04-.32c2.28-18.36,7.59-36.45,12.73-53.93,3.74-12.74,7.61-25.92,10.28-39.1,6.83-33.78,15.26-52.03,23.41-69.67,8.99-19.46,17.47-37.84,23.59-75.31,3.07-18.83,3.9-32.38,4.99-52.95,8.17-153.48,11.36-271.19,12.19-306.2-.23.31-.48.61-.73.91h0c-9.92,11.66-26.84,16.71-39.29,18.89-4.89.86-9.53-.24-12.85-3-1.81,5.11-3.68,10.14-5.29,14.43l-.18.49h-.03c-.37.97-.75,1.89-1.16,2.77-.37.81-.88,1.6-1.5,2.34-.83,2.85-1.59,5.39-2.33,7.76.64,2.26.69,4.73.15,7.74-.9,4.99-2.67,9.67-4.26,13.65-1.44,3.59-3.67,6.41-6.45,8.15-1.22,3.06-2.33,5.78-3.39,8.29-2.01,4.78-4.13,9.66-6.32,14.5-3.75,16.81-10.18,32.87-19.12,47.75-2.81,4.67-6.66,6.15-9.48,6.55-2.78,4.51-5.43,8.65-8.12,12.67-2.73,4.08-5.57,8.14-8.46,12.07-4.63,8.69-9.99,16.79-15.91,24.02-2.09,2.56-4.87,4.05-8.04,4.31-2.82,2.85-5.2,5.17-7.5,7.26l-.14.31c-.45,1-.91,2-1.34,3.01-1.21,2.78-3.55,3.25-5.45,2.73-1.05.87-2.13,1.73-3.2,2.58-.06.07-.17.17-.28.28h-.01c-.68,1.78-1.63,3.43-2.84,4.92-6.31,7.85-15.25,14.93-25.84,20.47-7.17,10.07-17.84,17.61-31.73,22.4-1.98.68-3.42.17-4.29-.38-1.14-.73-1.96-1.97-2.3-3.42-7.01,5.3-12.95,10.52-18.11,15.94-2.04,2.14-4.55,2.02-6.42.89Z"/>
        </g>
        <g>
          <path class="cls-1" d="M742.85,758.26c-1.04,1.34-2.09,2.67-3.14,4,1-.77,2.01-1.52,3.02-2.27-.07-.55-.03-1.13.12-1.74Z"/>
          <path class="cls-1" d="M736.82,765.11l2.5-3.16c1.05-1.33,2.1-2.67,3.14-4l1.43-1.84-.55,2.27c-.13.54-.17,1.06-.11,1.56l.04.29-.23.17c-1.01.75-2.02,1.5-3.01,2.26l-3.19,2.46Z"/>
        </g>
      </g>
      <g>
        <path class="cls-1" d="M124.68,518.36c-.74-1.57-1.37-3.2-1.87-4.96-.36-1.28-.25-2.4.15-3.31l-.26-.67c-1.06-1.15-2.93.06-4.32.75-.13-.37-.09-.83-.04-1.29-.82-1.32-1.35.64-1.87.91l-.4-1.36-.46,1.09c-1.28.37-2.67-.33-1.96-2.15-.52.21-1.05.43-.68,1.14-.37-.71-1.28-1.3-2.36-1.71-1.07-.45-2.3-.75-3.37-.8.72.79.43,1.31.08,2.47-1.02,1.81-.3-.52-1.52.3.26-.71-.31-1.79.82-1.93-.76-1.76-2.19-2.46-3.77-3.08-.79-.31-1.63-.57-2.45-.88-.81-.32-1.59-.73-2.27-1.25-.75-.05-.74.34-1.3.65-.44-1.42-1.43-2.04-2.57-2.52-1.13-.47-2.32-.95-3.03-1.96-.04.98-2.05,2.59-3.16,1.8-2.17.48.92-2.25.51-3.82-.99.26-2.06-.33-2.38-.74l.22-.2c-1.16.2-2.5-.18-2.66-1.41h.18c-.47-.62-.4-1.99-1.07-2.42-1.36.94-2.06-1.14-3.38-.48.06-.2.24-.17.33-.56l-.99.89-.59-1.67c.62-.11,1.1-.46,1.67-.41-.51-1.83-1.29.46-2.44.3-1.52-.23-.5-1.09-.46-1.88.82-.09.35.85.73.91,1.23-.23-.17-.82.38-1.35-.13-.22-1.42.79-1.77-.06-.4-.65-1.82-1.77-.56-2.53-1,0-1.37-.67-2.19-.65.17.64.61,1.75-.02,2.44-.5-.32-1.54-.95-1.15-1.48l.58.12c-.59-.11-1.2-1.74-1.77-.22l.79-2.08c-1.15.31-1.84-.67-2.57-1.34,1.21-.88,2.99-1.21,2.31-2.85l-2.11-.42c-.55-.61-.36-.97.45-1.33-.34-1.37-1.58-1.43-2.75-1.5-1.15-.06-2.21-.15-2.16-1.43,2-.02,1.77-.78,1.75-1.85-.28.1-.84.29-1.09-.03-.59.62,1.36-.06.66,1.14-.86.72-1.07-.45-1.61-.68,1.28-1.74.8-3.24.08-4.81-.34-.79-.75-1.6-1.05-2.42-.3-.82-.4-1.7-.25-2.56-1.93.9-1.07-1.08-1.99-1.44,2.18-.49-.87-1.56.19-2.75l-1.97,1.05c.32-1.09-.66-1.62-1.46-2.15-.8-.52-1.43-1.02-.29-1.9.39-1.2,1.64.02,2.1.36.98-.98.29-1.8-.31-2.65-.62-.83-1.21-1.67-.02-2.46-.89,0-2.25.69-3.21-.5.8-1.2,1.67-3.37,2.11-3.21-.5-.79-1.22-.97-.51-1.96.58.04.69.43.96.7.45-1.5-.61-2.58-1.43-3.87.82-.43,1.01-1.27,1.09-2.22.13-.95.19-2.01.67-2.82-2.08-1.05,1-2.64-1.66-2.96.28.06.64-.12.82-.21-.71-.69-2.4-1.38-2.43-2.22l1.7.45c2.03.4.92-1.87,1.67-2.24-1.22.29.27-.95-.98-1.2-.15-.34-.26-.68-.39-1.03-.17-1.58-.82-.32-.71-2.25.11-1.09,2.05.05,1.77.36,1.03-.69.76-1.67.6-2.64-.07.33-.22.42-.52.02.23.03.38-.02.5-.11-.06-.36-.09-.73-.02-1.08.03.02.05.02.09.04.01.4.01.75-.02,1.01.21-.19.3-.54.39-.89.14,0,.15-.11.09-.29.1-.28.25-.53.54-.65l1.26.6c.24-.58-.75-2.71-1.33-2.85.98-1.19,1.67-2.97,1.98-4.71.33-1.34.45-2.64.45-3.48.16.43.54.62.24.13.11-.91-.5-2.32.34-2.02-.13-1.03,1.19-.33,1.89-1.44.21.08-.54-.41-.92-.48,1.29-.58,1.58-1.8,1.86-3.14.34-1.33.62-2.81,1.88-3.59-.03.24.46.93.72,1.34.55-2.08,1.16-4.03,1-6.54.37.53.88.84.87,1.44.42-.59.81-1.27,1.03-1.98.23-.69.3-1.4.02-2.07-1.13.37.54.53.06,1-1.63.07-1.39-2.2-.5-2.77l.24.17c.92-1.19.43-1.71,1.43-2.85,1.18-.15-.25.84.63,1.15.93.6,1.75.22,2.39-.33.62-.55,1.14-1.2,1.32-1.23-.09-.58.01-1.19-.45-1.57.42-1.24,1.28.54,1.76-.1-.18-1.7-.27-3.39-.35-5.14.3.53,2.01.68,1.77,1.9.79-.94,1.1-2.05,1.22-3.25.13-1.19.08-2.45.3-3.46.83-.16,2.27-2.38,2.95-2.93,1,.71-.65.34-.26,1.21.6.1,1.22.24,1.82.37-1.27,1.09,1.36,1.57,1.11,2.76.32-.67,1.24-1.27,2.3-1.79,1.05-.54,2.31-.89,3.22-1.25-1.22-.73-.83-1.33-.26-1.98.56-.67,1.33-1.31.75-2.27,1.87-1.49,1.89,1.02,2.88,1.04,1.72-1.88,4.04-2.33,5.95-3.39,0,0,.15.26.1.45.78-.71,1.98-1.24,3.16-1.83,1.17-.62,2.28-1.41,2.94-2.66.05.46.36.81-.02,1.3,2.3.1-.51-2.85,2.32-2.35l-.24,1.24c1.19-1.53,3.16.14,4.45-1.99.2.57-.13.86-.29,1.24,1.45-.9,3.29-1,4.35-2.79.35.65.25,1.31-.27,1.95,1.72.5,1.34-2.26,2.94-1.81.39.02,1.14.64,1.15.84.62-1.07,2.78-1.27,3.53-1.76.29.7.9.84,1.87,1.53,1.8-.16,3.61-.25,5.43-.3,1.51-4.66,3.29-9.24,5.11-13.81-2.33-.17-4.67-.23-7-.2-1.12.02-2.25.1-3.37.17-1.12.06-2.24.14-3.36.29l-3.34.41-3.31.58c-1.11.18-2.2.42-3.29.68-1.09.26-2.19.49-3.27.78-2.16.61-4.32,1.18-6.44,1.91-2.14.66-4.23,1.48-6.34,2.25l-3.13,1.27c-1.05.41-2.09.86-3.11,1.34-4.11,2.03-7.97,4.48-11.64,7.15-3.69,2.66-7.09,5.68-10.31,8.88-3.23,3.18-6.17,6.67-8.92,10.29-2.77,3.62-5.25,7.48-7.54,11.49.27.99.28,1.88.16,2.73-.11.86-.33,1.69-.59,2.52-.52,1.64-1.01,3.38-.52,5.37l-.74-.57c0,1.51-.38,2.27-1.08,3.01-.68.75-1.78,1.44-2.88,2.92.97.4-.18,1.38,1.62,1.49,1.01,1.61-3.09,1.24-2.83,3.21-.58-.11,1.01.27.38.46.36,2.47.2,2.18-.47,1.93-.67-.24-1.87-.52-3.38,2.17-.37,2.04-.48,4.14-.63,6.22-.05,1.04-.05,2.09-.07,3.12-.02,1.04-.05,2.07-.01,3.1,0,2.04.02,4.08.03,6.09-.07,2-.04,3.98-.28,5.95-.1-.49,1.29-.76,1.34.01-2.8.91.96,2.57-.06,3.99-.59-.05-.83-.69-1.11-1.03-.47,1.84-.09,3.47.26,5.06.31,1.57.75,3.07.46,4.84.83,1.35.99,2.94,1.09,4.48.09,1.8.28,3.48,1.35,4.37-1.23-.16-.39,1.64-.65,2.48,2.01.57,2.19,2.14,2.44,3.82.24,1.68.35,3.56,2.03,4.41l-.57.16c1.93,3.97,4.12,8.04,6.7,11.9,2.57,3.87,5.66,7.46,9.3,10.29.92.89,1.73,1.93,2.55,3.01.81,1.09,1.57,2.3,2.44,3.41,1.69,2.29,3.7,4.45,6.4,5.59,1.1.26.89-.81,1.74-.56,1.07.91-.64.82-.43,1.47,1.5.31,2.78,1.26,4.06,2.4,1.26,1.17,2.6,2.4,4.1,3.31.62-.24,1.54.11,1.65-.75,1.12,1.9,3.21,2.89,5.41,3.61,2.17.8,4.41,1.34,5.9,2.91-.08-1.63.6-1.74,1.49-1.53.89.21,2,.8,2.75.72.67.39.5,1.14.1,1.58,1.27.29,2.29.48,3.27.81,1.24.43,2.46.95,4.23,1.9,1.65.12,2.44-1.33,4.21-.48.37,1.1,1.36,1.36,2.46,1.43,1.11.05,2.32-.05,3.2.48-.1-.9.5-1.59,1.32-1.93.68-.3,1.52-.36,2.28-.11-.18-2.32-.34-4.65-.47-6.98ZM59.99,419.2c0,.2,0,.45,0,.71-.09-.3-.13-.56,0-.71Z"/>
        <path class="cls-1" d="M60.93,456.88c.21.24.4.48.62.71l-.87.11.25-.81Z"/>
        <path class="cls-1" d="M72.21,397.45c.06-1.01,1.02.01,1.2-.02-.38.66-.7-.86-1.2.02Z"/>
        <polygon class="cls-1" points="95.33 371.36 95.11 371.51 94.32 369.9 95.33 371.36"/>
      </g>
      <g>
        <path class="cls-1" d="M573.58,23.23C498.63,1.27,418.68-3.66,341.38,6.77c-73.89,9.96-146.46,34.71-207.85,77.61C75.82,124.7,28.64,180.99,11.12,250.24,1.61,287.82,0,326.86,0,365.46c0,40.42,1.82,80.8,4.06,121.14,4.43,80.07,9.63,159.9,6.65,240.14-2.96,79.76-12.34,159.89-2.38,239.54,9.2,73.62,37,143.79,85.71,200.3,23.18,26.88,50.69,49.98,80.94,68.52,29.35,17.99,64.5,38.11,100.17,31.11,33.16-6.5,60.65-35.49,59.83-70.09-.44-18.42-6.84-36.06-13.05-53.18-6.6-18.19-12.51-36.3-15.22-55.53-11.15-79.06,19.2-156.91,39.07-232.06,4.93-18.65,9.38-37.43,12.78-56.42,1.13-6.29-8.51-8.99-9.64-2.66-13.47,75.31-44.12,146.85-52.52,223.16-4.13,37.5-1.7,75.37,10.56,111.21,10.98,32.12,30.64,70.96,5.88,101.71-10.46,13-25.61,21.77-42.04,24.54-18.04,3.04-35.97-2.29-52.27-9.74-31.61-14.44-61.38-33.74-87.27-56.92-53.34-47.76-89.52-112.18-105.5-181.76-17.41-75.8-12-154.46-7.53-231.38,2.25-38.77,3.82-77.57,3.59-116.41-.23-39.25-2.29-78.47-4.52-117.65-2.22-39.01-4.69-78-6.11-117.05-1.41-38.56-2.39-77.44.61-115.94,2.81-36.15,10.27-71.94,26.37-104.62,15.17-30.8,36.68-57.94,61.76-81.25,52.71-48.99,119.86-80.86,189.43-97.59,74.04-17.8,152.49-19.89,227.43-6.45,18.26,3.27,36.33,7.54,54.14,12.76,6.19,1.81,8.83-7.83,2.66-9.64h0Z"/>
        <path class="cls-1" d="M980.71,513.81c-2.38,88.29-4.95,176.59-9.5,264.81-2.19,42.61-3.19,85.98-15.13,127.25-5.67,19.59-14,38.43-20.94,57.6-6.67,18.43-12.97,37-18.68,55.75-5.9,19.38-11.18,38.95-15.73,58.7-2.28,9.91-3.84,20.05-7.31,29.63-1.62,4.49-3.47,8.89-5.28,13.3-.91,2.24-1.74,4.53-2.7,6.74-1.13,2.61-2.51,3.33-4.36,5.31-2.33,2.5-3.69,6.11-5.5,9-2.05,3.27-4.26,6.45-6.65,9.47-4.61,5.81-9.81,11.17-15.43,16-11.38,9.79-24.78,17.4-39,22.2-29.28,9.88-60.31,7.26-87.06-8.34-15.67-9.14-30.92-23.5-37.56-40.76-7.24-18.81-5.85-41.36-2.08-60.78,3.95-20.35,10.5-40.4,15.69-60.47,5.22-20.15,9.87-40.45,13.45-60.96,7.38-42.26,10.72-85.47,11.03-128.35.08-10.79-.08-21.59-.44-32.38-.21-6.42-10.21-6.45-10,0,1.5,45.16-.79,90.5-6.72,135.29-5.65,42.7-16.89,84.27-28.14,125.75-5.56,20.49-9.41,41.98-7.06,63.27,1.05,9.47,2.88,19.51,7.68,27.84s10.3,16.49,17.3,23.51c23.11,23.17,56.74,35.05,89.22,31.82,30.7-3.05,60.04-17.69,80.91-40.44,5.31-5.79,10.11-12.1,14.2-18.8,1.94-3.18,3.35-5.65,6.06-8.16,3.4-3.15,4.42-8.29,6.12-12.46,4.02-9.9,7.82-19.5,10.04-29.98,2.18-10.29,4.55-20.55,7.11-30.75,10.13-40.3,23.36-79.72,38.03-118.58,7.47-19.81,14.79-39.2,18.95-60.04,4.25-21.28,6.33-42.95,7.63-64.59,5.46-91.17,8.39-182.48,10.93-273.77.31-11.21.62-22.43.92-33.64.17-6.44-9.83-6.43-10,0h0Z"/>
        <path class="cls-1" d="M548.56,27.69c85.73-4.08,174.62-5.27,255.48,27.71,36.65,14.95,69.61,37.7,96.19,67.06,28.44,31.41,49.04,69.11,61.84,109.41,14.57,45.88,19.17,94.03,20.42,141.94.17,6.42,10.17,6.45,10,0-1.14-43.58-4.98-87.43-16.39-129.65-11.37-42.05-30.43-81.62-57.67-115.69-24.64-30.82-56.17-56.67-91.76-73.86-40.05-19.35-83.43-30-127.48-35.03-50-5.71-100.47-4.28-150.63-1.89-6.41.3-6.44,10.31,0,10h0Z"/>
        <path class="cls-1" d="M127.22,401.33c2.24-67.17,40.5-125.35,88.87-169.44,24.32-22.16,51.37-41.2,80.42-56.65,14.29-7.6,29.04-14.33,44.15-20.14,7.58-2.91,15.25-5.61,22.99-8.08,7.91-2.53,16.18-4.24,24-6.96,3.27-1.14,5.97-2.47,9.47-3.3,4.84-1.14,9.69-2.23,14.55-3.27,9.97-2.13,19.99-4.05,30.04-5.76,19.44-3.31,39.01-5.83,58.65-7.67,38.86-3.64,77.92-4.64,116.93-4.06,19.68.29,39.36.98,59.02,1.93,9.7.47,19.39,1,29.08,1.58,9.23.55,18.59.69,27.7,2.33,17.44,3.13,33.71,10.33,49.03,19.05,7.45,4.24,14.03,9.31,21.04,14.2,7.44,5.2,14.31,11.15,20.9,17.38,25.12,23.77,47.36,49.92,64.71,79.95,16.72,28.93,28.54,60.59,33.79,93.64,1.32,8.33,2.14,16.72,2.61,25.14.36,6.4,10.36,6.44,10,0-3.87-69.3-36.05-137.03-84.59-186.35-12.58-12.78-25.02-25.7-39.52-36.34-7.11-5.22-13.99-10.5-21.62-14.94-8.01-4.65-16.24-8.89-24.77-12.5-17.09-7.21-34.09-10.01-52.49-11.14-20.33-1.25-40.68-2.32-61.04-3.05-81.35-2.91-163.29,0-243.1,17.19-16.53,3.56-32.5,8.6-48.61,13.82-16.05,5.21-31.8,11.36-47.13,18.41-30.57,14.06-59.24,31.98-85.38,53.15-52.12,42.21-97.01,99.23-107.39,167.16-1.25,8.2-2.03,16.44-2.31,24.72-.22,6.44,9.79,6.43,10,0h0Z"/>
      </g>
      <path class="cls-1" d="M400.61,658.63c36.23,40.37,95.59,55.96,147.69,42.92,14.81-3.71,29.12-9.9,41.88-18.28,10.72-7.03.71-24.36-10.09-17.27-39.65,26.02-93.03,26.36-134.19,3.4-11.77-6.57-22.14-14.88-31.14-24.9s-22.72,4.58-14.14,14.14h0Z"/>
      <g>
        <g>
          <path class="cls-1" d="M172.53,228.36c-2.25,3.51-4.44,7.05-6.58,10.63,1.47-1.98,2.95-3.97,4.44-5.94.69-1.57,1.41-3.13,2.14-4.69Z"/>
          <path class="cls-1" d="M169.97,241.97l-8.3-5.55c2.33-3.89,4.5-7.41,6.66-10.76l8.75,4.8c-.71,1.53-1.42,3.06-2.1,4.61l-.23.52-.34.46c-1.48,1.97-2.96,3.94-4.42,5.92Z"/>
        </g>
        <g>
          <path class="cls-1" d="M939.85,371.65c-1.15-.35-2.24-.85-3.23-1.47-1.42.43-2.83.86-4.25,1.3,3.59,20.66,5.41,41.68,5.41,62.96,0,52.03-10.76,102.5-31.99,150.01-20.51,45.91-49.87,87.14-87.28,122.56-37.42,35.43-81,63.25-129.52,82.68-50.25,20.12-103.63,30.33-158.66,30.33s-108.42-10.2-158.66-30.33c-48.52-19.43-92.1-47.25-129.52-82.68-37.4-35.41-66.77-76.65-87.28-122.56-21.22-47.51-31.99-97.98-31.99-150.01,0-30.13,3.62-59.74,10.78-88.55-3.92.21-7.84.5-11.75.91-6.8,28.55-10.24,57.85-10.24,87.64,0,53.56,11.08,105.53,32.93,154.44,21.1,47.23,51.3,89.65,89.76,126.06,38.45,36.4,83.22,64.98,133.07,84.95,51.6,20.66,106.4,31.14,162.89,31.14s111.29-10.48,162.89-31.14c49.85-19.96,94.62-48.54,133.07-84.95,38.46-36.42,68.66-78.83,89.76-126.06,21.85-48.92,32.93-100.88,32.93-154.44,0-19.58-1.51-38.95-4.46-58.03-1.62-1.54-3.17-3.12-4.68-4.75Z"/>
          <path class="cls-1" d="M530.34,836.02c-57.13,0-112.56-10.6-164.75-31.5-50.44-20.2-95.74-49.12-134.64-85.96-38.94-36.87-69.52-79.82-90.89-127.66-22.14-49.56-33.37-102.21-33.37-156.48,0-30.04,3.49-59.91,10.37-88.8l.82-3.45,3.53-.37c3.88-.4,7.92-.71,12-.93l6.74-.35-1.63,6.55c-7.05,28.38-10.63,57.77-10.63,87.34,0,51.32,10.62,101.1,31.55,147.97,20.24,45.31,49.22,86,86.15,120.96,36.96,35,80.01,62.47,127.94,81.67,49.65,19.88,102.41,29.97,156.8,29.97s107.15-10.08,156.8-29.97c47.93-19.2,90.98-46.67,127.94-81.67,36.92-34.96,65.91-75.66,86.15-120.96,20.94-46.87,31.55-96.65,31.55-147.97,0-20.8-1.8-41.7-5.34-62.1l-.75-4.35,10.67-3.26,1.94,1.24c.59.38,1.27.68,2.02.91l1.29.4.91.99c1.46,1.58,2.95,3.1,4.45,4.52l1.24,1.17.26,1.68c3,19.41,4.52,39.19,4.52,58.79,0,54.27-11.23,106.92-33.37,156.48-21.37,47.83-51.95,90.78-90.89,127.66-38.91,36.84-84.21,65.76-134.64,85.96-52.19,20.9-107.62,31.5-164.75,31.5ZM125.97,351.43c-6.16,27.04-9.29,54.95-9.29,83,0,52.86,10.93,104.13,32.5,152.4,20.83,46.63,50.65,88.51,88.63,124.47,37.99,35.97,82.23,64.21,131.49,83.94,51,20.43,105.18,30.78,161.03,30.78s110.03-10.36,161.03-30.78c49.26-19.73,93.5-47.97,131.49-83.94,37.99-35.97,67.81-77.84,88.64-124.47,21.56-48.27,32.5-99.55,32.5-152.4,0-18.54-1.4-37.24-4.15-55.61-.48-.47-.96-.95-1.43-1.44,2.91,18.81,4.38,37.97,4.38,57.05,0,52.73-10.91,103.89-32.42,152.05-20.78,46.51-50.52,88.28-88.4,124.15-37.88,35.87-81.99,64.02-131.1,83.69-50.84,20.36-104.85,30.68-160.52,30.68s-109.68-10.32-160.52-30.68c-49.11-19.67-93.22-47.82-131.1-83.69-37.88-35.87-67.63-77.64-88.4-124.15-21.51-48.16-32.42-99.32-32.42-152.05,0-28.09,3.14-56.01,9.34-83.11-.42.03-.84.07-1.26.11Z"/>
        </g>
      </g>
      <path class="cls-1" d="M353.49,797.75c-12.99-12.25-27.58-22.79-43.46-30.99-13.8-7.12-32.21-11.22-42.02-24.09-3.85-5.05-12.54-.08-8.63,5.05,10.32,13.55,26.17,18.26,40.93,25.35,16.94,8.14,32.44,18.86,46.11,31.76,4.68,4.41,11.76-2.64,7.07-7.07h0Z"/>
      <path class="cls-1" d="M288.65,754.36c-5.09-7.92-11.4-14.59-18.89-20.27-2.17-1.64-5.57-.33-6.84,1.79-1.53,2.55-.35,5.22,1.79,6.84,6.06,4.59,11.2,10.29,15.31,16.68,3.47,5.4,12.13.39,8.63-5.05h0Z"/>
      <path class="cls-1" d="M273.11,744.37c-12.94-20.39-30.82-37.16-52.09-48.61-3.34-1.8-7.47.44-7.52,4.32-.15,10.28,7.66,18.19,17.7,19.07,5.4.47,6.16-6.75,2.52-9.32-8.06-5.7-12.31-15.12-16.79-23.6s-9.66-16.76-17.62-22.73c-2.69-2.02-6.5.2-7.34,2.99-4.21,13.92,2.64,29.81,15.96,35.89,5.75,2.63,10.84-5.63,5.05-8.63-11.51-5.97-20.6-16.04-24.61-28.47-.32-1-1.38-3.09-1.23-4.07.25-1.65,2.45,1.3,3.02,2.08,2.07,2.76,3.54,6.24,5.2,9.25,3.95,7.15,7.91,14.29,11.86,21.44,2.62-2.02,5.24-4.04,7.85-6.06-8.03-9.38-15.05-19.46-21.15-30.19-3.18-5.59-11.82-.56-8.63,5.05,6.52,11.47,14.14,22.2,22.72,32.22,3.79,4.42,10.52-1.23,7.85-6.06-3.04-5.5-6.08-11-9.13-16.49-2.83-5.12-5.35-10.73-8.82-15.46-4.63-6.32-16.26-9.72-20.05-.44-3.25,7.96,3.87,20.19,8.28,26.57,5.6,8.12,13.03,14.73,21.78,19.28l5.05-8.63c-9.39-4.29-14.38-14.62-11.36-24.6l-7.34,2.99c7.88,5.92,12.05,15.48,16.55,23.94s9.77,16.66,17.86,22.39l2.52-9.32c-4.68-.41-7.77-4.59-7.7-9.07-2.51,1.44-5.02,2.88-7.52,4.32,19.79,10.66,36.45,26.04,48.5,45.03,3.44,5.42,12.1.41,8.63-5.05h0Z"/>
      <path class="cls-1" d="M355,787.81c-1.69-.58-3.38-1.15-5.07-1.73-2.48-.84-5.58.97-6.15,3.49-.63,2.77.84,5.25,3.49,6.15,1.69.58,3.38,1.15,5.07,1.73,2.48.84,5.58-.97,6.15-3.49.63-2.77-.84-5.25-3.49-6.15h0Z"/>
      <path class="cls-1" d="M678.98,107.87c18.51,0,37,.76,55.45,2.31,5.76.48,6.59-8.28,1.33-9.82-21.78-6.38-44.82-11.99-66.61-2.72-5.9,2.51-.81,11.13,5.05,8.63,18.87-8.03,40.25-1.73,58.91,3.73.44-3.27.89-6.55,1.33-9.82-18.45-1.54-36.94-2.31-55.45-2.31-6.43,0-6.45,10,0,10h0Z"/>
      <path class="cls-1" d="M670.53,107.51c20.89.58,41.79,1.16,62.68,1.74,6.44.18,6.43-9.82,0-10-20.89-.58-41.79-1.16-62.68-1.74-6.44-.18-6.43,9.82,0,10h0Z"/>
      <path class="cls-1" d="M698.76,110.06c17.45,7.42,35.78,11.48,54.76,11.81,6.44.11,6.44-9.89,0-10-17.09-.3-33.97-3.75-49.71-10.45-5.85-2.49-10.96,6.12-5.05,8.63h0Z"/>
      <path class="cls-1" d="M927.84,550.11c-19.22,19.18-25.2,45.95-36.13,69.9-11.48,25.14-32.97,45.51-38.94,73.11-1.36,6.27,8.28,8.96,9.64,2.66,5.76-26.62,26.87-46.41,37.94-70.72,10.47-22.98,16.16-49.5,34.57-67.87,4.56-4.55-2.51-11.62-7.07-7.07h0Z"/>
      <path class="cls-1" d="M885.29,665.04c5.23-14.06,10.46-28.13,15.69-42.19,2.25-6.04-7.42-8.65-9.64-2.66-5.23,14.06-10.46,28.13-15.69,42.19-2.25,6.04,7.42,8.65,9.64,2.66h0Z"/>
      <path class="cls-1" d="M878.29,653.08c-13.8,7.37-26.55,16.67-37.7,27.66-5.73,5.64-10.97,11.74-15.81,18.16s-9.16,13.98-14.28,20.59c-10.67,13.78-28.06,21.46-42.74,30.16-16.6,9.85-33.2,19.69-49.81,29.54-1.37.81-2.69,2.63-2.48,4.32,2.58,19.94,5.15,39.88,7.73,59.82.81,6.29,10.82,6.37,10,0-2.58-19.94-5.15-39.88-7.73-59.82-.83,1.44-1.65,2.88-2.48,4.32,16.32-9.68,32.64-19.36,48.96-29.04,14.59-8.65,31.9-16.41,43.26-29.37,5.46-6.24,9.68-13.38,14.38-20.18s9.64-12.76,15.2-18.52c11.25-11.68,24.24-21.36,38.54-28.99,5.68-3.03.63-11.67-5.05-8.63h0Z"/>
      <path class="cls-1" d="M749.23,781.5c22.77-12.08,45.54-24.16,68.31-36.25,5.69-3.02.64-11.65-5.05-8.63-22.77,12.08-45.54,24.16-68.31,36.25-5.69,3.02-.64,11.65,5.05,8.63h0Z"/>
      <path class="cls-1" d="M795.02,756.05c13.25-10.2,27.92-19.77,39.58-31.84s15.51-26.27,18.08-42.27c1.01-6.3-8.62-9.01-9.64-2.66-2.39,14.86-5.63,28.07-16.63,38.99-10.97,10.89-24.22,19.73-36.44,29.13-5.03,3.87-.05,12.56,5.05,8.63h0Z"/>
      <path class="cls-1" d="M849.91,675.42c-13.19,10.66-24.51,23.28-33.84,37.44-3.21,4.87,3.83,9.85,7.85,6.06,10.18-9.59,20.37-19.19,30.55-28.78l-7.07-7.07c-8.7,10.49-17.41,20.99-26.11,31.48-4.08,4.92,2.96,12.03,7.07,7.07,8.7-10.49,17.41-20.99,26.11-31.48,4.05-4.89-2.3-11.56-7.07-7.07-10.18,9.59-20.37,19.19-30.55,28.78,2.62,2.02,5.24,4.04,7.85,6.06,8.87-13.46,19.74-25.29,32.27-35.41,5.01-4.05-2.11-11.08-7.07-7.07h0Z"/>
      <path class="cls-1" d="M131.45,512.08c-.87-1.84-1.71-3.7-2.49-5.61-3.15.75-6.39,1.15-9.7,1.15-29.76,0-53.98-31.8-53.98-70.9s24.21-70.9,53.98-70.9c2.13,0,4.23.18,6.3.5.19-3.33.44-6.66.77-9.99-2.32-.32-4.68-.5-7.07-.5-35.28,0-63.98,36.29-63.98,80.9s28.7,80.9,63.98,80.9c4.42,0,8.73-.58,12.9-1.66-.25-1.29-.49-2.59-.71-3.88Z"/>
      <g>
        <path class="cls-1" d="M927.56,524.09c.99-1.88,1.94-3.77,2.83-5.72,3.58.77,7.26,1.18,11.03,1.18,33.85,0,61.39-32.43,61.39-72.3s-27.54-72.3-61.39-72.3c-2.42,0-4.81.18-7.16.51-.21-3.4-.5-6.79-.87-10.19,2.64-.33,5.32-.51,8.04-.51,40.12,0,72.76,37.01,72.76,82.5s-32.64,82.5-72.76,82.5c-5.03,0-9.93-.59-14.67-1.7.29-1.32.56-2.64.81-3.96Z"/>
        <path class="cls-1" d="M941.43,534.41c-5.27,0-10.56-.61-15.73-1.82l-4.47-1.04.97-4.49c.28-1.28.54-2.56.79-3.84l.13-.68.32-.61c1.06-2.02,1.95-3.81,2.72-5.5l1.56-3.4,3.65.78c3.31.71,6.7,1.07,10.05,1.07,31.28,0,56.72-30.34,56.72-67.64s-25.45-67.64-56.72-67.64c-2.12,0-4.25.15-6.53.46l-4.98.68-.31-5.01c-.21-3.33-.5-6.69-.85-9.98l-.5-4.56,4.55-.57c2.92-.37,5.82-.55,8.61-.55,42.69,0,77.42,39.1,77.42,87.17s-34.73,87.17-77.42,87.17ZM932.64,524.43c2.92.43,5.86.65,8.79.65,37.55,0,68.1-34.92,68.1-77.84s-30.55-77.84-68.1-77.84c-.96,0-1.94.03-2.93.08.03.29.05.58.07.87.97-.05,1.92-.08,2.86-.08,36.42,0,66.05,34.53,66.05,76.97s-29.63,76.97-66.05,76.97c-2.79,0-5.59-.21-8.37-.62-.14.28-.28.55-.42.84Z"/>
      </g>
      <path class="cls-1" d="M981.82,372v11.86c0,6.43,10,6.45,10,0v-11.86c0-6.43-10-6.45-10,0h0Z"/>
      <path class="cls-1" d="M993.66,384.09c-2.47-6.07-4.94-12.13-7.41-18.2-2.36-5.8-11.75-3.57-9.64,2.66,2.35,6.96,4.71,13.92,7.06,20.88,2.05,6.06,11.71,3.46,9.64-2.66-2.35-6.96-4.71-13.92-7.06-20.88-3.21.89-6.43,1.77-9.64,2.66,2.47,6.07,4.94,12.13,7.41,18.2s12.07,3.31,9.64-2.66h0Z"/>
      <path class="cls-1" d="M993.61,385.03c-1.27-9.02-2.54-18.03-3.8-27.05-.89-6.35-10.53-3.65-9.64,2.66,1.27,9.02,2.54,18.03,3.8,27.05.89,6.35,10.53,3.65,9.64-2.66h0Z"/>
      <path class="cls-1" d="M986.09,373.69c-.56-.85-1.12-1.7-1.68-2.55-.72-1.09-1.71-1.95-2.99-2.3-1.2-.33-2.79-.18-3.85.5s-2.01,1.71-2.3,2.99-.24,2.73.5,3.85c.56.85,1.12,1.7,1.68,2.55.72,1.09,1.71,1.95,2.99,2.3,1.2.33,2.79.18,3.85-.5s2.01-1.71,2.3-2.99.24-2.73-.5-3.85h0Z"/>
      <path class="cls-1" d="M981.74,377.85c6.43,0,6.45-10,0-10s-6.45,10,0,10h0Z"/>
      <path class="cls-1" d="M445.62,319.44l-138.79-44.54v55.93l77.68,20.02-77.68,21.75v54.2l138.79-44.88v-62.49Z"/>
      <path class="cls-1" d="M540.62,430.16h33.14l-48.33,146.21h-33.32l48.51-146.21Z"/>
      <path class="cls-1" d="M633.66,319.44l138.79-44.54v55.93l-77.68,20.02,77.68,21.75v54.2l-138.79-44.88v-62.49Z"/>
    </g>
  </g>
</svg>