<?xml version="1.0" encoding="UTF-8"?>
<svg version="1.1" xmlns="http://www.w3.org/2000/svg" width="1050" height="600">
<path d="M0 0 C0.81344768 -0.00235223 1.62689536 -0.00470446 2.46499297 -0.00712797 C5.19613974 -0.01379541 7.92723869 -0.01336043 10.65839291 -0.01294994 C12.63421114 -0.01624996 14.61002871 -0.01997582 16.58584541 -0.02409142 C22.01994778 -0.03410366 27.4540391 -0.03782696 32.88814938 -0.04048073 C38.74724777 -0.04438603 44.60633744 -0.05396415 50.46543026 -0.0626936 C63.94779841 -0.08151687 77.43016646 -0.09171265 90.91254459 -0.10015428 C97.57744893 -0.10436327 104.2423524 -0.10958491 110.907256 -0.11483881 C133.72936986 -0.13272726 156.55148399 -0.14772263 179.37360382 -0.155159 C180.80589914 -0.15563375 182.23819446 -0.15610964 183.67048978 -0.15658666 C184.38076613 -0.15682303 185.09104247 -0.15705941 185.82284234 -0.15730295 C189.42134109 -0.15850412 193.01983984 -0.15971958 196.61833858 -0.16094494 C197.33246589 -0.16118509 198.0465932 -0.16142524 198.78236073 -0.16167267 C221.93228837 -0.16956432 245.08216476 -0.19299428 268.23207002 -0.22550088 C292.71696229 -0.25981918 317.20182458 -0.27951196 341.68674129 -0.28280324 C344.3760115 -0.28322076 347.0652817 -0.28370032 349.75455189 -0.28422642 C350.41670862 -0.28434961 351.07886535 -0.2844728 351.76108743 -0.28459973 C361.74627104 -0.28678507 371.73138403 -0.30014735 381.71654606 -0.31926441 C393.07930555 -0.34096879 404.44197139 -0.34902302 415.80474926 -0.33929763 C421.60076235 -0.33475236 427.39658218 -0.33665272 433.19256878 -0.35605907 C438.50321685 -0.37368665 443.81353061 -0.37269604 449.12418222 -0.35716178 C451.04078006 -0.35478514 452.95740103 -0.35911213 454.87396354 -0.37099043 C467.4908434 -0.44431456 479.5568259 -0.43541329 489.86418819 7.88422108 C496.73117201 14.67574354 499.82877074 23.19312658 500.02776241 32.81673145 C500.02383447 34.69744175 500.00722824 36.57814726 499.98137569 38.45868397 C499.97379238 39.55751187 499.96620907 40.65633978 499.95839596 41.7884655 C499.92208638 45.90405052 499.86422947 50.01896779 499.80168819 54.13422108 C499.78942699 54.96799573 499.77716579 55.80177039 499.76453304 56.66081095 C499.54441201 71.54632757 499.27161094 86.43082156 498.99397182 101.31535697 C498.87986507 107.46718676 498.76887216 113.61907267 498.65764523 119.77095509 C498.3511663 136.69219617 498.04009364 153.61335215 497.7287817 170.53450489 C497.44312505 186.06258247 497.15850036 201.59067708 496.87782001 217.11884552 C496.74616883 224.39468373 496.6121877 231.67047393 496.4763689 238.94623548 C496.39206714 243.48673413 496.30961918 248.02726477 496.22787762 252.56781018 C496.18887738 254.72235491 496.14927864 256.87688891 496.1090498 259.03141105 C495.93004037 268.67922214 495.75219244 278.32209783 495.85344601 287.97165394 C495.87110516 289.86577943 495.87110516 289.86577943 495.88912106 291.79817009 C495.91774957 293.97932281 495.95976599 296.1603792 496.02065182 298.3408699 C496.17276944 308.18729571 493.53068332 315.88761094 486.80168819 323.13422108 C475.74646823 334.07777215 462.36977835 334.72420427 447.69927093 334.65079015 C446.75851724 334.64572015 445.81776354 334.64065015 444.84850216 334.63542652 C442.8390397 334.63932431 440.82958001 334.64496858 438.82012677 334.65219742 C433.32560985 334.66690067 427.83138101 334.65680134 422.33687353 334.6424607 C416.40093668 334.63132592 410.46503942 334.64330169 404.52910519 334.65230274 C393.58310211 334.66541575 382.63719918 334.66046821 371.69119984 334.64622746 C361.58021678 334.63315824 351.46926668 334.62798308 341.35827541 334.63054562 C340.35092822 334.63078624 340.35092822 334.63078624 339.32323057 334.63103172 C336.59694243 334.63169534 333.87065431 334.63239776 331.14436619 334.63315706 C305.59187756 334.64017465 280.03944694 334.6247103 254.48697307 334.59853361 C231.79400834 334.57540948 209.10110735 334.57003496 186.40813351 334.580266 C180.59439122 334.5828681 174.78064892 334.58545313 168.96690655 334.58786392 C167.89323199 334.58831009 167.89323199 334.58831009 166.79786703 334.58876528 C147.82183767 334.59638154 128.84581353 334.58996701 109.8697865 334.5791679 C107.82784329 334.57802012 105.78590009 334.57687694 103.74395687 334.57574108 C102.38945275 334.57498583 101.03494863 334.57422019 99.68044451 334.57344407 C89.57400046 334.56778915 79.46757291 334.56911331 69.36112881 334.57367229 C57.87106236 334.57859765 46.38106184 334.57262003 34.89101049 334.552778 C29.02865212 334.54290381 23.16639415 334.53780241 17.30403042 334.54567051 C11.93777531 334.55272548 6.57172282 334.54592679 1.20549443 334.52806688 C-0.73571398 334.52402132 -2.67694086 334.52502405 -4.6181424 334.53158575 C-7.25805393 334.53974557 -9.89728422 334.52941204 -12.53715229 334.51453781 C-13.28950503 334.52127546 -14.04185778 334.52801311 -14.81700909 334.53495494 C-23.40768236 334.4414461 -30.5693533 331.67747187 -37.18268681 326.23187733 C-43.00479677 320.17282102 -45.32769377 312.47877233 -45.31877995 304.22252369 C-45.32009607 303.25052965 -45.3214122 302.27853561 -45.32276821 301.27708721 C-45.31899984 300.21311277 -45.31523148 299.14913834 -45.31134892 298.05292225 C-45.31115568 296.91070776 -45.31096245 295.76849327 -45.31076336 294.59166622 C-45.30885102 291.40246691 -45.30221221 288.21331921 -45.29329896 285.02413297 C-45.28632787 282.26676014 -45.28297647 279.50938697 -45.27948397 276.7520079 C-45.23024271 239.28575727 -45.01897002 201.81965088 -44.80947244 164.35402763 C-44.76523897 156.38341806 -44.72535519 148.4127907 -44.68631989 140.44215423 C-44.64759115 132.57710011 -44.60566696 124.71206685 -44.56143326 116.84704179 C-44.53549091 112.22462342 -44.51067349 107.60220754 -44.48923779 102.97976589 C-44.43824391 92.17609902 -44.35615094 81.37333924 -44.22624159 70.57032156 C-44.19767543 68.07871455 -44.17398868 65.58709102 -44.15071583 63.09542942 C-44.10974054 58.96727519 -44.04683594 54.83993784 -43.96871269 50.71232545 C-43.94245724 49.18116239 -43.92243453 47.64987635 -43.90944684 46.11854327 C-43.78436828 32.48369115 -41.751015 21.3359402 -32.19831181 11.13422108 C-31.66335087 10.55801014 -31.12838993 9.9817992 -30.57721806 9.38812733 C-22.37225915 1.49798699 -10.92580498 -0.02159555 0 0 Z M-20.19831181 28.13422108 C-23.77426875 33.69124986 -23.73649743 38.854817 -23.86603642 45.2611742 C-23.89883418 46.39416195 -23.93163195 47.5271497 -23.96542358 48.69447041 C-24.35823405 63.65574105 -24.42655029 78.62475551 -24.50163484 93.59030437 C-24.52415851 97.91603591 -24.55127657 102.24173941 -24.57769108 106.56744862 C-24.62169676 113.88298608 -24.66242872 121.19853585 -24.70099735 128.51410389 C-24.73957557 135.82727551 -24.78105576 143.1404217 -24.82599735 150.45355701 C-24.96370323 172.89873952 -25.08065597 195.3439061 -25.16603172 217.78935242 C-25.1839991 222.51061695 -25.20279212 227.23187552 -25.22329807 231.95312977 C-25.26952453 242.63181564 -25.30927718 253.31046241 -25.3312971 263.98922873 C-25.34080931 268.57260223 -25.35341179 273.15591044 -25.3743391 277.73924732 C-25.39352999 281.98863607 -25.40320719 286.23793804 -25.4053576 290.48736858 C-25.40776379 292.04401982 -25.41359444 293.60067004 -25.42307448 295.15729427 C-25.43544181 297.28012276 -25.43545192 299.40260249 -25.43230534 301.52545643 C-25.43542697 302.71239346 -25.4385486 303.89933048 -25.44176483 305.1222353 C-25.19931948 308.12175414 -25.00875373 309.74617209 -23.19831181 312.13422108 C-18.91714462 314.38603936 -14.81642645 314.41615897 -10.09067059 314.38869667 C-9.2748908 314.39190315 -8.45911101 314.39510963 -7.61861062 314.39841327 C-4.87351048 314.40674247 -2.12862687 314.40077877 0.61647701 314.39491749 C2.59983388 314.39793684 4.58318959 314.40182523 6.56654322 314.40651006 C12.02590914 314.4168267 17.48520966 314.41459892 22.94458103 314.41032946 C28.82880653 314.40786887 34.713016 314.41686809 40.59723568 314.42436695 C52.12864843 314.43713463 63.66003791 314.43890506 75.19145654 314.43656669 C84.56199028 314.43473486 93.93251716 314.43649133 103.30305004 314.44079113 C104.64875736 314.44139353 105.99446468 314.44199473 107.340172 314.44259473 C109.36796627 314.44350198 111.39576053 314.44441064 113.42355479 314.44532708 C132.28020248 314.45375827 151.13684759 314.45809118 169.99349689 314.45392036 C170.70454607 314.45376399 171.41559525 314.45360761 172.14819137 314.4534465 C175.75216171 314.4526407 179.35613204 314.45179493 182.96010236 314.4509332 C183.67587626 314.45076211 184.39165016 314.45059102 185.12911418 314.45041475 C186.57658336 314.45006809 188.02405253 314.44971956 189.47152171 314.44936916 C211.99532966 314.44401167 234.51909848 314.45194248 257.04289913 314.47040272 C282.34246084 314.49111359 307.6419983 314.50184717 332.94156897 314.49782723 C335.63861092 314.49743188 338.33565286 314.49707033 341.03269482 314.49672985 C342.02883119 314.49659375 342.02883119 314.49659375 343.04509154 314.49645491 C353.07512659 314.49528838 363.10513616 314.50197749 373.13516521 314.51254177 C384.5409338 314.52443321 395.94664477 314.52588565 407.35241412 314.5137516 C413.17396954 314.50784716 418.99541946 314.50680665 424.81696796 314.51875401 C430.14395333 314.52955952 435.47074443 314.52657322 440.79772051 314.51249232 C442.72702324 314.50983064 444.65634093 314.51225774 446.58562903 314.52022818 C449.20477671 314.53029938 451.82324453 314.52194215 454.44236469 314.50895119 C455.19423652 314.51626053 455.94610834 314.52356988 456.72076416 314.53110072 C463.26375497 314.4636715 467.75887585 312.9549886 472.67668819 308.57172108 C476.37230251 304.33263407 475.99568817 300.70146909 476.07379818 295.29279041 C476.09098681 294.36516407 476.10817545 293.43753774 476.12588495 292.48180151 C476.18266907 289.35233274 476.23250646 286.22279111 476.28240108 283.09320545 C476.32155226 280.85565968 476.36111801 278.61812113 476.40106869 276.38058949 C476.50879986 270.27484775 476.61041616 264.1690178 476.7107985 258.06315136 C476.81719457 251.64184293 476.92850267 245.2206194 477.03909969 238.79938221 C477.22482037 227.97127131 477.40665002 217.14310132 477.58611202 206.31488514 C477.76923247 195.2659853 477.95627092 184.21716092 478.14763546 173.16840076 C478.37923558 159.79625103 478.60709995 146.42404401 478.83189869 133.05177784 C478.91714415 127.98436208 479.00372314 122.91697194 479.09146976 117.84959888 C479.34753994 103.00169383 479.58106992 88.15375221 479.7626586 73.30473423 C479.78878115 71.18270658 479.81576892 69.06068942 479.8436017 66.93868351 C479.9224548 60.88122908 479.98548709 54.82405225 480.02196872 48.76618767 C480.03494252 46.94243063 480.0529159 45.11870119 480.07628739 43.29504776 C480.10673179 40.81944333 480.11810262 38.34448539 480.1241827 35.86871815 C480.13699256 35.15138665 480.14980242 34.43405516 480.16300046 33.69498634 C480.14691718 29.32287028 479.70174504 26.4679981 476.80168819 23.13422108 C471.63618454 20.44712034 467.36066773 19.70157458 461.53162479 19.75669765 C460.31805517 19.75015717 460.31805517 19.75015717 459.07996899 19.74348456 C456.36969745 19.73253862 453.65993573 19.74294724 450.94966793 19.75327015 C448.98663316 19.74981332 447.02360032 19.74504859 445.06057155 19.73908842 C439.66656062 19.72655207 434.2727087 19.73276087 428.87869716 19.74204707 C423.06126843 19.74882649 417.24386732 19.73836176 411.42644405 19.73010731 C400.02964393 19.71675547 388.63290303 19.71965433 377.23610057 19.72834523 C367.97384841 19.73511632 358.71161286 19.73604098 349.44935894 19.73277378 C348.13183393 19.73231408 346.81430891 19.73185438 345.4568589 19.73138075 C343.4514043 19.73066694 341.44594971 19.7299433 339.44049513 19.72920008 C314.37772619 19.7200225 289.31498955 19.72834399 264.2522256 19.74449077 C241.98988722 19.75872433 219.72760034 19.75745655 197.46526241 19.7431078 C172.45132656 19.72703943 147.43741926 19.72067669 122.42347896 19.72994459 C119.75620231 19.73090673 117.08892565 19.73184335 114.42164898 19.73277378 C112.45307123 19.73346802 112.45307123 19.73346802 110.44472424 19.73417629 C101.19399618 19.73676713 91.94328638 19.73239306 82.69256115 19.72533512 C71.41828001 19.7169225 60.14406154 19.71919519 48.86978759 19.73517735 C43.11683191 19.74306368 37.36398072 19.74614543 31.61102581 19.7362299 C26.34445738 19.72728997 21.07809028 19.73220449 15.81154011 19.74816255 C13.90648944 19.75151334 12.00142176 19.74980961 10.09638204 19.74253519 C7.50515818 19.73339972 4.91462205 19.74278255 2.32343388 19.75669765 C1.5854095 19.74967416 0.84738513 19.74265066 0.08699638 19.73541433 C-7.91129177 19.82114042 -15.08349089 21.66547698 -20.19831181 28.13422108 Z " fill="#D032CE" transform="translate(296.1983118057251,45.86577892303467)"/>
<path d="M0 0 C0.66 0.66 1.32 1.32 2 2 C1.625 5.625 1.625 5.625 1 9 C-6.94450433 11.9746128 -15.05771237 13.58795831 -23.35791016 15.21704102 C-25.75980666 15.6894287 -28.15921806 16.17319171 -30.55859375 16.65820312 C-32.09621978 16.96421772 -33.6339759 17.26957948 -35.171875 17.57421875 C-35.88341736 17.71792404 -36.59495972 17.86162933 -37.32806396 18.00968933 C-40.9517563 18.71392772 -44.31674168 19.06026655 -48 19 C-48.09878448 19.61296936 -48.19756897 20.22593872 -48.29934692 20.85748291 C-49.72718407 29.22571363 -51.79548164 37.40052791 -53.9296875 45.609375 C-54.32093254 47.12592311 -54.71182363 48.64256256 -55.10238647 50.1592865 C-55.92895705 53.36654288 -56.75784071 56.57318887 -57.58850098 59.77938843 C-58.88325284 64.7783366 -60.17019948 69.7792748 -61.45605469 74.78051758 C-64.95896847 88.39769407 -68.46891063 102.01279465 -72.04629517 115.61062622 C-73.19451184 119.97833962 -74.33400547 124.34830119 -75.472229 128.71862793 C-76.23336332 131.62399521 -77.00880376 134.52529592 -77.78466797 137.42675781 C-78.23743541 139.16320781 -78.68947215 140.89984856 -79.140625 142.63671875 C-79.34795258 143.39371567 -79.55528015 144.15071259 -79.76889038 144.9306488 C-81.61252507 152.1568806 -80.76518777 157.32574563 -77.0859375 163.73046875 C-76.48910156 164.78169922 -75.89226562 165.83292969 -75.27734375 166.91601562 C-74.33568359 168.53540039 -74.33568359 168.53540039 -73.375 170.1875 C-72.77042969 171.24775391 -72.16585937 172.30800781 -71.54296875 173.40039062 C-69.06445726 177.73646456 -66.57163 182.05838204 -63.97973633 186.32788086 C-63.34060303 187.3875708 -62.70146973 188.44726074 -62.04296875 189.5390625 C-61.4605542 190.48861816 -60.87813965 191.43817383 -60.27807617 192.41650391 C-58.99367177 195.01279184 -58.60562693 196.34770203 -58.9375 199.1875 C-60 202 -60 202 -62 203 C-63.35752296 203.11704964 -64.72025888 203.17677189 -66.08251953 203.20532227 C-66.92324005 203.22526749 -67.76396057 203.24521271 -68.63015747 203.26576233 C-69.99272171 203.29083107 -69.99272171 203.29083107 -71.3828125 203.31640625 C-72.77691849 203.3475779 -72.77691849 203.3475779 -74.19918823 203.37937927 C-77.1743821 203.44487646 -80.14966577 203.50376052 -83.125 203.5625 C-85.13933228 203.60568506 -87.15365541 203.64929934 -89.16796875 203.69335938 C-94.11188663 203.80055803 -99.05589503 203.90182501 -104 204 C-103.030625 204.78375 -102.06125 205.5675 -101.0625 206.375 C-99.16037654 207.91288705 -98.10370043 208.79259913 -97 211 C-96.46790234 216.33842242 -96.35942568 220.69597371 -98.75 225.5625 C-101.45025654 228.48777792 -103.41179829 229.77461164 -107.3671875 230.3359375 C-113.0591402 230.4245972 -116.68232699 230.10705481 -121 226 C-123.66574406 221.52842932 -124.52756492 217.98433559 -123.65234375 212.9296875 C-122.33524272 209.03359225 -119.70574676 205.85287338 -116 204 C-148.34 204 -180.68 204 -214 204 C-211.03 206.475 -211.03 206.475 -208 209 C-206.0454406 213.01382734 -205.80788583 216.89000701 -206.5625 221.25 C-208.56169577 225.07454843 -211.10094683 228.05047341 -215 230 C-219.89355743 230.5368831 -223.89355898 230.48281063 -228.4375 228.5 C-231.7353479 225.28258742 -233.28548616 222.56004341 -234 218 C-233.9002326 214.00930389 -233.54706232 210.4861254 -230.56201172 207.61865234 C-229.07317473 206.37335562 -227.53900538 205.18273495 -226 204 C-226.68626465 203.98018066 -227.3725293 203.96036133 -228.07958984 203.93994141 C-231.17845779 203.84489055 -234.27663294 203.73513153 -237.375 203.625 C-238.45523438 203.5940625 -239.53546875 203.563125 -240.6484375 203.53125 C-242.1953125 203.47324219 -242.1953125 203.47324219 -243.7734375 203.4140625 C-244.72653809 203.3826416 -245.67963867 203.3512207 -246.66162109 203.31884766 C-249 203 -249 203 -251 201 C-251.375 198.0625 -251.375 198.0625 -251 195 C-248.65713984 192.5370996 -247.21751835 192.02633183 -243.82162094 191.61523914 C-242.55692097 191.61063018 -241.29222099 191.60602121 -239.98919678 191.60127258 C-239.28340807 191.59462576 -238.57761937 191.58797893 -237.85044312 191.58113068 C-235.48576076 191.5624799 -233.12158346 191.56510728 -230.75683594 191.56762695 C-229.06167891 191.55861104 -227.36652843 191.54828424 -225.67138672 191.53674316 C-221.06844746 191.50912694 -216.46563174 191.49988238 -211.86262035 191.49388909 C-207.05258968 191.48451745 -202.24265173 191.45831505 -197.43267822 191.43388367 C-188.32384299 191.39018166 -179.21502572 191.36165743 -170.10611749 191.33856028 C-159.73615669 191.31152844 -149.36628901 191.2676157 -138.99639463 191.22227156 C-117.66431314 191.12937228 -96.33220378 191.05771573 -75 191 C-75.62044189 189.90328979 -75.62044189 189.90328979 -76.25341797 188.78442383 C-77.7952915 186.05551118 -79.33436075 183.32504147 -80.87158203 180.59350586 C-81.53583661 179.41449438 -82.20118601 178.23609899 -82.86767578 177.05834961 C-83.82876727 175.35955935 -84.78552197 173.65831789 -85.7421875 171.95703125 C-86.3182373 170.93585205 -86.89428711 169.91467285 -87.48779297 168.86254883 C-88.85054283 166.28291659 -89.97829531 163.72966167 -91 161 C-92.23136499 161.00276538 -92.23136499 161.00276538 -93.48760605 161.00558662 C-113.4507206 161.04973146 -133.41382676 161.08283991 -153.37697983 161.10362434 C-163.0309601 161.11394237 -172.68490781 161.12801276 -182.33886719 161.15087891 C-190.75203607 161.17079666 -199.16518139 161.18371261 -207.57837319 161.18817699 C-212.03418918 161.19078711 -216.48993772 161.19693295 -220.94573212 161.21146011 C-225.13829269 161.22501852 -229.33075791 161.22922617 -233.52333832 161.22621536 C-235.06326821 161.22676631 -236.60320123 161.23075413 -238.14311218 161.23841095 C-240.24378017 161.24834506 -242.34408703 161.24597465 -244.44476318 161.24050903 C-245.62097103 161.24235262 -246.79717888 161.24419621 -248.00902939 161.24609566 C-250.93030941 161.00573411 -252.5911617 160.63301083 -255 159 C-256.05194092 156.79672241 -256.05194092 156.79672241 -256.87011719 153.86083984 C-257.2015271 152.68285828 -257.53293701 151.50487671 -257.87438965 150.29119873 C-258.25228132 148.86150699 -258.62725259 147.43104156 -259 146 C-259.21543961 145.18183052 -259.43087921 144.36366104 -259.65284729 143.52069855 C-261.51036344 136.43494839 -263.29757807 129.33197398 -265.078125 122.2265625 C-265.65526814 119.93018963 -266.23247876 117.63383371 -266.80975342 115.3374939 C-268.0124567 110.549041 -269.21216921 105.7598497 -270.41015625 100.97021484 C-271.94442451 94.83845138 -273.48955507 88.70948056 -275.03731155 82.58111 C-276.23019241 77.85043744 -277.41563918 73.11792515 -278.59902191 68.38486862 C-279.16568163 66.12360788 -279.73503771 63.86302102 -280.30716705 61.60313797 C-281.10485124 58.4490742 -281.89206454 55.29257087 -282.67675781 52.13525391 C-282.91359283 51.20836761 -283.15042786 50.28148132 -283.3944397 49.32650757 C-284.59848875 44.43140397 -285.45569099 40.0451797 -285 35 C-282.3871405 32.3871405 -280.54271441 32.75015525 -276.98375213 32.71566427 C-276.13356919 32.717599 -275.28338625 32.71953374 -274.40744019 32.7215271 C-273.50734982 32.7157347 -272.60725945 32.7099423 -271.67989361 32.70397437 C-268.64577232 32.686888 -265.61180233 32.68409047 -262.57763672 32.68115234 C-260.40987776 32.67186012 -258.2421224 32.66169252 -256.07437134 32.65071106 C-250.17385916 32.62331739 -244.27337098 32.60823399 -238.37281179 32.59528303 C-232.21214628 32.57969333 -226.05153007 32.55288995 -219.89089966 32.5272522 C-208.21788192 32.48039049 -196.54485498 32.44368223 -184.87179101 32.41057932 C-171.58538843 32.37241005 -158.299038 32.32298637 -145.012676 32.27259517 C-117.67515393 32.16916541 -90.33760013 32.07994104 -63 32 C-62.85377197 31.40461426 -62.70754395 30.80922852 -62.55688477 30.19580078 C-61.89454315 27.50492304 -61.22856732 24.81495783 -60.5625 22.125 C-60.33240234 21.18785156 -60.10230469 20.25070313 -59.86523438 19.28515625 C-59.64287109 18.38925781 -59.42050781 17.49335937 -59.19140625 16.5703125 C-58.98717041 15.74289551 -58.78293457 14.91547852 -58.57250977 14.06298828 C-58 12 -58 12 -57 10 C-54.30893151 9.27337525 -51.6706752 8.66899643 -48.94140625 8.125 C-48.12308823 7.95500488 -47.3047702 7.78500977 -46.46165466 7.60986328 C-43.8301843 7.06521095 -41.1964516 6.53250951 -38.5625 6 C-36.82080356 5.64140116 -35.07926488 5.28203514 -33.33789062 4.921875 C-29.2520551 4.07869115 -25.16384668 3.24783667 -21.07452393 2.42175293 C-19.2890832 2.05877092 -17.50543891 1.68697261 -15.72216797 1.31347656 C-14.41916748 1.04229004 -14.41916748 1.04229004 -13.08984375 0.765625 C-12.39624756 0.61899414 -11.70265137 0.47236328 -10.98803711 0.32128906 C-7.38502246 -0.26099846 -3.62052301 -0.53059389 0 0 Z M-272 44 C-270.93581578 53.94972715 -270.93581578 53.94972715 -266 71 C-252.8 71 -239.6 71 -226 71 C-226.99 62.09 -227.98 53.18 -229 44 C-243.19 44 -257.38 44 -272 44 Z M-218 44 C-218.04558658 57.18961885 -218.04558658 57.18961885 -215 71 C-202.79 71 -190.58 71 -178 71 C-178 62.09 -178 53.18 -178 44 C-191.2 44 -204.4 44 -218 44 Z M-167 44 C-167 52.91 -167 61.82 -167 71 C-161.4640601 71.02290734 -155.92828345 71.04283491 -150.39233398 71.05493164 C-148.5075627 71.05997244 -146.62279535 71.06680498 -144.73803711 71.07543945 C-142.03498364 71.08751617 -139.33198169 71.09323068 -136.62890625 71.09765625 C-135.35703209 71.10539818 -135.35703209 71.10539818 -134.0594635 71.11329651 C-132.03928932 71.11349195 -130.01922066 71.06206211 -128 71 C-126.22808941 69.22808941 -126.63939662 66.62367341 -126.46484375 64.21484375 C-126.34677368 62.63497681 -126.34677368 62.63497681 -126.22631836 61.02319336 C-126.1310083 59.67491455 -126.03569824 58.32663574 -125.9375 56.9375 C-125.628125 52.668125 -125.31875 48.39875 -125 44 C-138.86 44 -152.72 44 -167 44 Z M-114 44 C-116.22739701 59.13175686 -116.22739701 59.13175686 -116 71 C-101.48 71 -86.96 71 -72 71 C-71.01 67.2875 -70.02 63.575 -69 59.75 C-68.68675781 58.5856543 -68.37351562 57.42130859 -68.05078125 56.22167969 C-67.80714844 55.29774414 -67.56351563 54.37380859 -67.3125 53.421875 C-66.93544922 52.00793457 -66.93544922 52.00793457 -66.55078125 50.56542969 C-65.86005978 47.78550094 -65.86005978 47.78550094 -66 44 C-81.84 44 -97.68 44 -114 44 Z M-263 83 C-262.030625 87.104375 -261.06125 91.20875 -260.0625 95.4375 C-259.75836182 96.73357178 -259.45422363 98.02964355 -259.14086914 99.36499023 C-258.89973389 100.37762939 -258.65859863 101.39026855 -258.41015625 102.43359375 C-258.16402588 103.47572021 -257.91789551 104.51784668 -257.66430664 105.59155273 C-257.23176541 107.93278013 -257.23176541 107.93278013 -256 109 C-253.47905924 109.08847743 -250.98569107 109.11527301 -248.46484375 109.09765625 C-247.71159317 109.0962413 -246.95834259 109.09482635 -246.18226624 109.09336853 C-243.7673044 109.08775376 -241.35243399 109.07519883 -238.9375 109.0625 C-237.30403779 109.0574869 -235.67057414 109.05292366 -234.03710938 109.04882812 C-230.02470415 109.03777954 -226.01236759 109.02050506 -222 109 C-222.30817816 105.60376001 -222.62230647 102.20809553 -222.9375 98.8125 C-223.06801758 97.37293945 -223.06801758 97.37293945 -223.20117188 95.90429688 C-223.33168945 94.50727539 -223.33168945 94.50727539 -223.46484375 93.08203125 C-223.543396 92.22843018 -223.62194824 91.3748291 -223.70288086 90.49536133 C-224.00267235 87.97755618 -224.50272985 85.48635076 -225 83 C-237.54 83 -250.08 83 -263 83 Z M-214 83 C-213.690625 86.5475 -213.38125 90.095 -213.0625 93.75 C-212.96718994 94.86213867 -212.87187988 95.97427734 -212.77368164 97.12011719 C-212.69496826 98.00344727 -212.61625488 98.88677734 -212.53515625 99.796875 C-212.456604 100.69760742 -212.37805176 101.59833984 -212.29711914 102.52636719 C-212.01875768 105.27944248 -212.01875768 105.27944248 -211 109 C-200.11 109 -189.22 109 -178 109 C-178 100.42 -178 91.84 -178 83 C-189.88 83 -201.76 83 -214 83 Z M-167 83 C-167 91.58 -167 100.16 -167 109 C-155.12 109 -143.24 109 -131 109 C-130.67 106.195 -130.34 103.39 -130 100.5 C-129.89558594 99.63310547 -129.79117188 98.76621094 -129.68359375 97.87304688 C-129.60238281 97.16212891 -129.52117187 96.45121094 -129.4375 95.71875 C-129.35371094 95.00654297 -129.26992188 94.29433594 -129.18359375 93.56054688 C-128.93180146 90.04884797 -129 86.52071421 -129 83 C-141.54 83 -154.08 83 -167 83 Z M-118 83 C-118.66 91.58 -119.32 100.16 -120 109 C-107.46 109 -94.92 109 -82 109 C-80.515 103.67875 -80.515 103.67875 -79 98.25 C-78.68675781 97.13786133 -78.37351562 96.02572266 -78.05078125 94.87988281 C-77.80714844 93.99655273 -77.56351563 93.11322266 -77.3125 92.203125 C-76.93544922 90.85202637 -76.93544922 90.85202637 -76.55078125 89.47363281 C-75.85510769 86.77163743 -75.85510769 86.77163743 -76 83 C-89.86 83 -103.72 83 -118 83 Z M-253 121 C-251.71082544 128.09046009 -250.36298787 134.81396926 -248.375 141.6875 C-247.59125 144.430625 -246.8075 147.17375 -246 150 C-236.76 150 -227.52 150 -218 150 C-218.12375 147.628125 -218.2475 145.25625 -218.375 142.8125 C-218.40899902 142.09553955 -218.44299805 141.3785791 -218.47802734 140.63989258 C-218.86467783 133.93824248 -219.96142496 127.75073773 -221 121 C-231.56 121 -242.12 121 -253 121 Z M-210 121 C-209.525625 125.599375 -209.05125 130.19875 -208.5625 134.9375 C-208.41498291 136.39019287 -208.26746582 137.84288574 -208.11547852 139.33959961 C-207.99615967 140.47405518 -207.87684082 141.60851074 -207.75390625 142.77734375 C-207.63345947 143.94515381 -207.5130127 145.11296387 -207.38891602 146.31616211 C-207.28579436 148.91366881 -207.28579436 148.91366881 -206 150 C-203.92737924 150.08767112 -201.85179706 150.10695873 -199.77734375 150.09765625 C-198.64288818 150.09515869 -197.50843262 150.09266113 -196.33959961 150.09008789 C-194.88690674 150.08098389 -193.43421387 150.07187988 -191.9375 150.0625 C-187.338125 150.041875 -182.73875 150.02125 -178 150 C-178 140.43 -178 130.86 -178 121 C-188.56 121 -199.12 121 -210 121 Z M-167 121 C-167.020625 125.599375 -167.04125 130.19875 -167.0625 134.9375 C-167.071604 136.39019287 -167.08070801 137.84288574 -167.09008789 139.33959961 C-167.09258545 140.47405518 -167.09508301 141.60851074 -167.09765625 142.77734375 C-167.10289307 143.94515381 -167.10812988 145.11296387 -167.11352539 146.31616211 C-167.30661495 148.91891551 -167.30661495 148.91891551 -166 150 C-163.70848583 150.08790975 -161.41427476 150.10694038 -159.12109375 150.09765625 C-158.4344313 150.0962413 -157.74776886 150.09482635 -157.04029846 150.09336853 C-154.83932199 150.08775479 -152.63844591 150.07520007 -150.4375 150.0625 C-148.94856917 150.05748676 -147.45963676 150.05292355 -145.97070312 150.04882812 C-142.31376925 150.03778093 -138.65689442 150.02050713 -135 150 C-134.85618896 148.89744873 -134.71237793 147.79489746 -134.56420898 146.65893555 C-134.30248106 144.65235476 -134.04034268 142.64582375 -133.77368164 140.63989258 C-132.9380009 134.08702651 -132.50923761 127.62008887 -132 121 C-143.55 121 -155.1 121 -167 121 Z M-121 121 C-122.28440049 130.63300368 -123.30760313 140.30644384 -124 150 C-113.77 150 -103.54 150 -93 150 C-90.59975187 142.89997939 -90.59975187 142.89997939 -88.61328125 135.74609375 C-88.31997925 134.56164673 -88.31997925 134.56164673 -88.02075195 133.35327148 C-87.78702881 132.39106689 -87.55330566 131.4288623 -87.3125 130.4375 C-86.1678125 125.7659375 -86.1678125 125.7659375 -85 121 C-96.88 121 -108.76 121 -121 121 Z " fill="#D136CF" transform="translate(686,97)"/>
<path d="M0 0 C4.91284066 3.17794314 7.65500808 7.51935927 10.8125 12.3125 C11.96511679 14.02933714 13.11881089 15.74545138 14.2734375 17.4609375 C14.87897461 18.36424805 15.48451172 19.26755859 16.10839844 20.19824219 C19.33586406 24.97862363 22.63762221 29.70694496 25.9375 34.4375 C26.61337158 35.40792236 27.28924316 36.37834473 27.9855957 37.37817383 C32.87471689 44.3952875 37.77752129 51.40278986 42.68652344 58.40600586 C48.0665471 66.0846131 53.4169481 73.78374703 58.75976562 81.48828125 C59.39978516 82.40996094 60.03980469 83.33164062 60.69921875 84.28125 C61.26471436 85.09658203 61.83020996 85.91191406 62.4128418 86.75195312 C63.45451818 88.22738093 64.53368122 89.67717954 65.65161133 91.09570312 C67.75131099 94.06105843 67.88156233 96.38765109 68 100 C66.80928445 106.53159503 64.04999453 111.69029975 59 116 C50.6567352 121.05684982 41.51387921 120.54827648 32.1262207 120.4699707 C30.4129832 120.47045985 28.69974546 120.47270328 26.98651218 120.47653961 C22.29224826 120.48192841 17.59837586 120.46229951 12.90418196 120.43840623 C7.82595594 120.41688042 2.74772831 120.4183962 -2.33053589 120.41691589 C-12.29880596 120.41031101 -22.2669045 120.38201177 -32.23510933 120.34662217 C-43.9034378 120.30611155 -55.5717701 120.28852136 -67.24015176 120.27113461 C-97.20420807 120.22484211 -127.16803862 120.12583252 -157.13191414 120.01438236 C-161.0029357 119.99998908 -164.87395774 119.98572978 -168.74497986 119.97148895 C-216.17541292 119.79641352 -263.60575439 119.60013944 -311.03588867 119.35668945 C-313.34023919 119.34493692 -315.64458972 119.33318857 -317.94894028 119.32144451 C-327.59352103 119.2721402 -337.23809615 119.22225841 -346.88265371 119.16859138 C-369.65522316 119.04266978 -392.42668588 118.98539849 -415.1996088 118.99635029 C-442.65934521 119.00900631 -470.11840712 118.90471031 -497.57775116 118.76428509 C-506.50592477 118.71887912 -515.4340511 118.67941829 -524.36230469 118.65356445 C-532.30058021 118.63057273 -540.23873183 118.59724494 -548.17690897 118.55129844 C-552.33647852 118.5275479 -556.49592772 118.50869621 -560.65556335 118.50238609 C-564.53044854 118.49633133 -568.40501458 118.47631859 -572.27978134 118.44572449 C-573.69184528 118.43697906 -575.1039509 118.43321439 -576.5160408 118.43499184 C-586.72742363 118.44378701 -595.80461235 118.01669257 -603.55859375 110.73046875 C-606.92601414 106.68773913 -608.1240494 102.12715841 -608.375 96.9375 C-607.65094372 89.33490905 -603.71162511 83.72095134 -599.5 77.5625 C-598.70323853 76.38288696 -598.70323853 76.38288696 -597.89038086 75.17944336 C-596.26733529 72.78138449 -594.63537578 70.38966342 -593 68 C-592.52965332 67.31164062 -592.05930664 66.62328125 -591.57470703 65.9140625 C-589.3373034 62.64320302 -587.09155872 59.37820908 -584.83984375 56.1171875 C-581.75522196 51.64950638 -578.68957077 47.16894913 -575.625 42.6875 C-575.08544678 41.89947998 -574.54589355 41.11145996 -573.98999023 40.29956055 C-571.16177145 36.16775227 -568.3410054 32.03110797 -565.53125 27.88671875 C-564.96067871 27.04729736 -564.39010742 26.20787598 -563.80224609 25.34301758 C-562.72459278 23.75728289 -561.64920257 22.17000655 -560.57666016 20.58081055 C-550.78291701 6.18861134 -550.78291701 6.18861134 -546 3 C-541.78821757 2.53202417 -539.71400886 2.53434205 -536.125 4.875 C-533.32199696 7.67800304 -533.05326436 8.55433858 -532.57421875 12.5625 C-532.65823613 18.13021886 -535.59379753 21.66768395 -538.8125 26 C-540.01704648 27.68741478 -541.22147175 29.37491608 -542.42578125 31.0625 C-543.03115723 31.89652344 -543.6365332 32.73054688 -544.26025391 33.58984375 C-546.73510847 37.01838209 -549.11805205 40.50662406 -551.5 44 C-552.39793247 45.30633687 -553.29637699 46.6123219 -554.1953125 47.91796875 C-557.80751282 53.17219484 -561.40786057 58.43452789 -565.00585938 63.69848633 C-567.84499458 67.85211413 -570.68812391 72.00290008 -573.5390625 76.1484375 C-574.11865723 76.99237061 -574.69825195 77.83630371 -575.29541016 78.70581055 C-576.39531608 80.3071488 -577.49646256 81.90763599 -578.59912109 83.50708008 C-579.35443115 84.60765747 -579.35443115 84.60765747 -580.125 85.73046875 C-580.56070313 86.36364014 -580.99640625 86.99681152 -581.4453125 87.64916992 C-582.86475752 89.79550097 -584.23561483 91.96360165 -585.59716797 94.14692688 C-586.27221878 95.22885803 -586.27221878 95.22885803 -586.96090698 96.33264637 C-587.30380768 96.88287307 -587.64670837 97.43309977 -588 98 C-586.73102277 97.99777939 -585.46204554 97.99555878 -584.15461445 97.99327087 C-500.18912302 97.85231391 -416.22642192 98.06481202 -332.26171875 98.4375 C-331.02630996 98.44297317 -329.79090116 98.44844633 -328.51805574 98.45408535 C-296.70634527 98.59509545 -264.89466189 98.74177485 -233.0829879 98.89076424 C-214.70905751 98.9767886 -196.33512189 99.06161394 -177.96118164 99.14550781 C-175.99878592 99.1544688 -175.99878592 99.1544688 -173.99674585 99.16361082 C-159.67095943 99.22900095 -145.34517184 99.29413215 -131.01938343 99.35908508 C-129.7581261 99.36480469 -128.49686877 99.37052429 -127.19739151 99.37641722 C-125.94119796 99.38211381 -124.68500441 99.3878104 -123.39074439 99.39367962 C-122.13986962 99.39935212 -120.88899486 99.40502461 -119.6002148 99.410869 C-117.09019938 99.42224868 -114.58018394 99.43362358 -112.07016847 99.44499362 C-97.4857723 99.51107263 -82.90138004 99.57790154 -68.31699405 99.64619088 C-59.24101973 99.68868326 -50.16504327 99.73069248 -41.08906504 99.77233958 C-35.88904778 99.79623008 -30.68903206 99.82037759 -25.48901939 99.84524918 C-1.65913754 99.95907579 22.16982643 100.02856999 46 100 C44.89868859 98.25628251 43.79564819 96.51365697 42.69189453 94.77148438 C42.07782745 93.80094116 41.46376038 92.83039795 40.83108521 91.83044434 C38.31849824 87.94655213 35.61994575 84.22135908 32.875 80.5 C27.76731567 73.50165044 22.81717804 66.41308483 17.94677734 59.24804688 C14.58782372 54.31071702 11.19567412 49.39924342 7.76391602 44.51220703 C6.59382706 42.84574124 5.42631746 41.17746121 4.26147461 39.50732422 C1.28665236 35.24253479 -1.71699414 31.00362667 -4.7734375 26.796875 C-5.97421304 25.11476513 -7.17474279 23.43247976 -8.375 21.75 C-9.22384766 20.60724609 -9.22384766 20.60724609 -10.08984375 19.44140625 C-13.66053107 14.38516981 -14.85318778 11.20560796 -14 5 C-9.48135443 -0.5888511 -6.96983704 -1.5357268 0 0 Z " fill="#D033CE" transform="translate(796,394)"/>
<path d="M0 0 C0.65594147 -0.0049649 1.31188293 -0.00992981 1.98770142 -0.01504517 C4.14415558 -0.02957683 6.3005363 -0.03645195 8.45703125 -0.04199219 C9.96248373 -0.04774895 11.4679362 -0.05350661 12.97338867 -0.05926514 C16.12386413 -0.06974803 19.27431426 -0.0756091 22.42480469 -0.07910156 C26.45656307 -0.08459525 30.48798528 -0.10865305 34.51963806 -0.13707352 C37.62692237 -0.15571388 40.73412568 -0.16090613 43.84146118 -0.16243744 C45.32778775 -0.16545892 46.81411307 -0.17347045 48.30038452 -0.18662262 C50.38020391 -0.20372094 52.45920091 -0.2017948 54.5390625 -0.1953125 C55.72089111 -0.19895813 56.90271973 -0.20260376 58.12036133 -0.20635986 C62.83124165 0.34337675 65.34991033 2.16487682 68.51953125 5.59863281 C71.33212199 9.71706925 71.41789576 13.09869468 71.79296875 18.06347656 C70.97842524 21.32772928 68.6771604 22.86425668 66.26953125 25.16113281 C65.39723877 26.0223877 64.52494629 26.88364258 63.6262207 27.77099609 C53.60443491 36.64410179 42.87144382 36.92512466 29.93041992 37.00195312 C26.46761863 37.03602863 23.0233906 37.18737469 19.56445312 37.34863281 C5.00260082 37.75246437 -4.34374367 35.4954387 -15.24491882 25.58938599 C-15.7351503 25.11806244 -16.22538177 24.64673889 -16.73046875 24.16113281 C-17.26859695 23.66845917 -17.80672516 23.17578552 -18.36116028 22.66818237 C-20.56713241 20.24030772 -20.7378896 18.0628065 -20.98046875 14.84863281 C-20.70131348 10.73109258 -20.01353135 8.58572671 -17.73046875 5.16113281 C-11.97060521 0.5281991 -7.20978674 0.04165447 0 0 Z M-7.73046875 12.16113281 C-8.14553746 16.09535608 -8.14553746 16.09535608 -6.02734375 18.30175781 C2.496443 25.3613358 9.73293062 24.97590029 20.34814453 24.30224609 C23.48409376 24.15076869 26.59511557 24.15818832 29.734375 24.18847656 C45.00913967 24.41906613 45.00913967 24.41906613 57.7421875 16.87597656 C58.24621094 16.31007813 58.75023437 15.74417969 59.26953125 15.16113281 C58.77453125 13.67613281 58.77453125 13.67613281 58.26953125 12.16113281 C36.48953125 12.16113281 14.70953125 12.16113281 -7.73046875 12.16113281 Z " fill="#D134CF" transform="translate(502.73046875,444.8388671875)"/>
</svg>
