<?xml version="1.0" encoding="UTF-8"?>
<svg version="1.1" xmlns="http://www.w3.org/2000/svg" width="1050" height="600">
<path d="M0 0 C0.81069455 -0.00205263 1.62138909 -0.00410527 2.45665014 -0.0062201 C5.19641938 -0.01191299 7.93613871 -0.01043004 10.67591286 -0.00901413 C12.65071853 -0.01159645 14.62552367 -0.01460923 16.60032809 -0.01801753 C22.04525344 -0.02610632 27.49016562 -0.02787814 32.93509626 -0.028615 C38.80022824 -0.03046227 44.66535333 -0.03800789 50.53048134 -0.04475021 C64.03225528 -0.05905609 77.53402741 -0.06486152 91.03580752 -0.06944216 C97.70533607 -0.07177704 104.37486381 -0.07537955 111.04439171 -0.07913754 C133.86725011 -0.09197302 156.69010803 -0.1026928 179.51296997 -0.10614014 C180.94592211 -0.10636177 182.37887425 -0.10658355 183.81182639 -0.10680549 C185.2482693 -0.10702613 186.68471222 -0.10724661 188.12115514 -0.10746694 C191.00298397 -0.10790949 193.88481279 -0.10835661 196.76664162 -0.10880661 C197.83843241 -0.1089707 197.83843241 -0.1089707 198.93187554 -0.1091381 C222.10925863 -0.1127701 245.28661046 -0.12869554 268.46398157 -0.15199697 C292.95895129 -0.17657812 317.45390314 -0.19031215 341.94888556 -0.19150805 C344.63637392 -0.19167951 347.32386228 -0.19189494 350.01135063 -0.19214249 C351.00397933 -0.19222614 351.00397933 -0.19222614 352.01666113 -0.19231148 C362.01722302 -0.19339197 372.01775069 -0.20276489 382.01830101 -0.21632767 C393.38903748 -0.23169401 404.75972038 -0.23686963 416.13046525 -0.22858956 C421.93555975 -0.2246709 427.74054625 -0.2256718 433.54562759 -0.23964691 C438.85531312 -0.25231295 444.1648087 -0.25125295 449.4744937 -0.2390562 C451.39978487 -0.23708649 453.32508916 -0.24023583 455.25036184 -0.24890056 C457.85931579 -0.25990285 460.46758863 -0.25256965 463.07652283 -0.24050903 C463.83101168 -0.24810423 464.58550054 -0.25569942 465.36285269 -0.26352477 C469.80596836 -0.21891923 472.64640717 0.36933016 476.16410255 3.13142776 C478.18413425 6.16147531 478.41659851 6.75739197 478.43876076 10.15633011 C478.44829277 10.96081589 478.45782478 11.76530167 478.46764565 12.5941658 C478.46627853 13.89264954 478.46627853 13.89264954 478.4648838 15.21736526 C478.46916893 16.1112999 478.47345406 17.00523453 478.47786903 17.92625809 C478.48361211 19.81755603 478.48411276 21.70887607 478.47977638 23.60017776 C478.47662204 26.48858423 478.500056 29.37596088 478.52543068 32.26424026 C478.52770429 34.10278064 478.52840688 35.94132377 478.5273838 37.77986526 C478.53659355 38.64147263 478.5458033 39.50307999 478.55529213 40.39079666 C478.51898977 45.11620734 478.26213056 48.30692329 475.16410255 52.13142776 C470.06072677 54.68311566 463.85721281 53.75188708 458.16410255 54.13142776 C457.83410255 143.23142776 457.50410255 232.33142776 457.16410255 324.13142776 C461.45410255 324.13142776 465.74410255 324.13142776 470.16410255 324.13142776 C474.4288006 325.64937114 475.66346043 326.38046458 478.16410255 330.13142776 C478.43152809 332.05302811 478.43152809 332.05302811 478.4546299 334.24812698 C478.4673896 335.07263351 478.48014931 335.89714005 478.49329567 336.74663162 C478.49663414 338.07792603 478.49663414 338.07792603 478.50004005 339.43611526 C478.50669685 340.35224594 478.51335365 341.26837662 478.52021217 342.21226883 C478.530338 344.15063341 478.53502921 346.08903285 478.53470802 348.02742386 C478.53907605 350.9884601 478.57538164 353.94799956 478.6133213 356.90877151 C478.61919055 358.79288101 478.62315922 360.67699757 478.62504005 362.56111526 C478.63941109 363.44459641 478.65378212 364.32807755 478.66858864 365.23833084 C478.63778048 369.39803716 478.51756661 371.56782529 476.26029396 375.1670723 C472.24850862 378.9265441 468.3451488 378.26866543 463.11597633 378.25168228 C462.16688334 378.25253671 461.21779034 378.25339113 460.23993695 378.25427145 C457.03999806 378.25592668 453.84011088 378.25040415 450.64017677 378.24495316 C448.35419656 378.24467127 446.06821626 378.24482905 443.7822361 378.24539566 C437.55940462 378.24568357 431.33659226 378.23978787 425.11376524 378.2328217 C418.61680224 378.2265871 412.11983884 378.22598428 405.62287331 378.2247963 C394.71262202 378.22203739 383.80237782 378.21578341 372.8921299 378.20686722 C361.65319797 378.19769195 350.41426794 378.19061167 339.17533302 378.18635941 C338.4828755 378.18609668 337.79041797 378.18583396 337.07697688 378.18556327 C333.60321363 378.18425826 330.12945037 378.18299455 326.65568709 378.18175137 C297.82515425 378.17138015 268.99462857 378.15368885 240.16410255 378.13142776 C240.1090299 382.84664176 240.10676364 387.55795173 240.15189552 392.27327347 C240.1599703 393.87450203 240.15400886 395.47586887 240.13334084 397.07698441 C239.72011444 406.31843298 239.72011444 406.31843298 242.93924904 414.62947464 C245.02114541 416.47124053 245.02114541 416.47124053 247.24784279 417.78596878 C250.19480213 419.85511045 250.9460103 422.41728678 251.82035255 425.81111526 C252.89195028 433.04439988 251.29473934 438.30214469 246.9492588 444.17830276 C242.42816383 449.12479618 237.75456358 450.36191461 231.16410255 450.69392776 C225.34202623 450.47367267 221.44263136 449.10293251 217.16410255 445.13142776 C212.63874358 439.96120513 210.7871635 435.4026034 210.8867588 428.60799026 C211.53392823 422.82904074 213.89174281 417.89506186 218.28910255 414.06892776 C221.16410255 412.13142776 221.16410255 412.13142776 223.16410255 412.13142776 C223.16410255 400.91142776 223.16410255 389.69142776 223.16410255 378.13142776 C220.26869194 378.1380896 217.37328133 378.14475143 214.390131 378.15161514 C187.84448472 378.21130021 161.29884006 378.25609291 134.75314249 378.28462375 C131.27465053 378.28837592 127.79615873 378.29225888 124.31766701 378.29622269 C123.62515593 378.29700962 122.93264486 378.29779655 122.2191486 378.29860733 C111.00307855 378.31166464 99.78705458 378.33532027 88.57101188 378.36288615 C77.06407182 378.39093131 65.55716419 378.40737755 54.05019063 378.41369325 C47.58615006 378.41760967 41.12221405 378.42683631 34.65820694 378.44861794 C28.5770242 378.46894401 22.49598933 378.47526938 16.41477585 378.47075081 C14.1802509 378.47157774 11.94572113 378.47756634 9.71122551 378.48904419 C6.66496481 378.50392737 3.61926549 378.50039641 0.57299232 378.49219131 C-0.31514347 378.50092984 -1.20327927 378.50966836 -2.11832827 378.51867169 C-6.83775252 378.48421416 -10.01741107 378.23049818 -13.83589745 375.13142776 C-14.97372555 372.85577155 -14.97958632 371.54975756 -15.0128994 369.02058792 C-15.02573463 368.17275742 -15.03856987 367.32492691 -15.05179405 366.45140457 C-15.05918098 365.53370285 -15.06656792 364.61600113 -15.0741787 363.67049026 C-15.08225044 362.72837692 -15.09032219 361.78626358 -15.09863853 360.81560135 C-15.11248165 358.81998411 -15.12320278 356.82434316 -15.13106346 354.82869339 C-15.14828982 351.77550381 -15.19217525 348.72339319 -15.23628807 345.67049026 C-15.24641371 343.73299824 -15.25493021 341.795497 -15.2616787 339.85799026 C-15.27918678 338.94433701 -15.29669487 338.03068375 -15.31473351 337.08934402 C-15.29306864 330.7641726 -15.29306864 330.7641726 -12.99678612 327.58601761 C-6.96269936 323.52420664 -3.28835402 325.13142776 5.16410255 325.13142776 C5.16410255 235.70142776 5.16410255 146.27142776 5.16410255 54.13142776 C0.54410255 54.13142776 -4.07589745 54.13142776 -8.83589745 54.13142776 C-13.83589745 51.13142776 -13.83589745 51.13142776 -14.83589745 49.13142776 C-14.94509306 47.73356543 -14.99486158 46.33079583 -15.0128994 44.92879105 C-15.02573463 44.06093979 -15.03856987 43.19308853 -15.05179405 42.29893875 C-15.05918098 41.35936325 -15.06656792 40.41978775 -15.0741787 39.45174026 C-15.08225044 38.48743088 -15.09032219 37.52312149 -15.09863853 36.52959061 C-15.11248225 34.48689449 -15.12320311 32.4441752 -15.13106346 30.4014473 C-15.14829045 27.27583995 -15.19217566 24.15128636 -15.23628807 21.02595901 C-15.24641362 19.04289389 -15.25493015 17.05981976 -15.2616787 15.07674026 C-15.27918678 14.14121323 -15.29669487 13.20568619 -15.31473351 12.24180984 C-15.29306593 5.76756742 -15.29306593 5.76756742 -12.99678612 2.57234573 C-8.8109708 -0.21882837 -4.84133765 -0.01128416 0 0 Z M1.16410255 17.13142776 C1.16410255 23.73142776 1.16410255 30.33142776 1.16410255 37.13142776 C153.29410255 37.13142776 305.42410255 37.13142776 462.16410255 37.13142776 C462.16410255 30.53142776 462.16410255 23.93142776 462.16410255 17.13142776 C310.03410255 17.13142776 157.90410255 17.13142776 1.16410255 17.13142776 Z M22.16410255 54.13142776 C22.16410255 143.56142776 22.16410255 232.99142776 22.16410255 325.13142776 C160.43410255 325.13142776 298.70410255 325.13142776 441.16410255 325.13142776 C441.16410255 235.70142776 441.16410255 146.27142776 441.16410255 54.13142776 C302.89410255 54.13142776 164.62410255 54.13142776 22.16410255 54.13142776 Z M1.16410255 341.13142776 C1.16410255 347.73142776 1.16410255 354.33142776 1.16410255 361.13142776 C153.29410255 361.13142776 305.42410255 361.13142776 462.16410255 361.13142776 C462.16410255 354.53142776 462.16410255 347.93142776 462.16410255 341.13142776 C310.03410255 341.13142776 157.90410255 341.13142776 1.16410255 341.13142776 Z M228.16410255 428.13142776 C228.12346423 429.79759892 228.12138155 431.46530871 228.16410255 433.13142776 C230.56129687 433.81101379 230.56129687 433.81101379 233.16410255 434.13142776 C233.82410255 433.47142776 234.48410255 432.81142776 235.16410255 432.13142776 C234.84368858 429.52862208 234.84368858 429.52862208 234.16410255 427.13142776 C230.87479851 426.76457079 230.87479851 426.76457079 228.16410255 428.13142776 Z " fill="#D134CF" transform="translate(293.8358974456787,59.86857223510742)"/>
<path d="M0 0 C3.44417493 3.48094548 3.32037015 6.69499873 3.30883789 11.44628906 C3.30872459 13.00745453 3.30872459 13.00745453 3.30860901 14.60015869 C3.30344772 15.71695007 3.29828644 16.83374146 3.29296875 17.984375 C3.2915538 19.13290955 3.29013885 20.28144409 3.28868103 21.46478271 C3.28308393 25.13279831 3.27053194 28.80075285 3.2578125 32.46875 C3.25279713 34.95572829 3.24823428 37.44270753 3.24414062 39.9296875 C3.23311545 46.0260625 3.21638019 52.12240189 3.1953125 58.21875 C4.19343208 58.20209541 4.19343208 58.20209541 5.2117157 58.18510437 C12.13832169 58.07447341 19.06467668 57.99906661 25.99194336 57.9440918 C28.577008 57.91894999 31.16200157 57.88483185 33.74682617 57.84155273 C37.46290624 57.78089078 41.17804636 57.75253581 44.89453125 57.73046875 C46.62759773 57.69175911 46.62759773 57.69175911 48.39567566 57.65226746 C57.33673067 57.64914309 57.33673067 57.64914309 60.42480469 60.60351562 C64.10543337 66.04020818 62.61840192 71.80962905 61.53125 78 C57.72145299 96.06888048 48.64584793 110.69300046 33.69921875 121.62890625 C16.25950215 132.70217404 -2.45543312 136.67111339 -22.8046875 132.21875 C-35.90472424 128.38950849 -46.12957981 121.71408373 -55.8046875 112.21875 C-56.4440625 111.60386719 -57.0834375 110.98898437 -57.7421875 110.35546875 C-69.43743195 98.16422063 -74.51734565 80.1646675 -74.27319336 63.5793457 C-73.41897725 44.08403746 -65.01640226 27.39688551 -50.8046875 14.21875 C-47.61508758 11.59059711 -44.3558259 9.32901116 -40.8046875 7.21875 C-39.65613281 6.53039062 -39.65613281 6.53039062 -38.484375 5.828125 C-28.5655488 0.3940486 -10.49803601 -6.66727635 0 0 Z M-43.1171875 30.03125 C-53.4406125 41.00912526 -57.88873733 54.30831034 -57.8046875 69.21875 C-57.32613357 81.87567629 -50.85049792 95.58739901 -41.61328125 104.28125 C-29.89422916 113.85727939 -17.00890847 118.60007052 -1.8046875 118.21875 C12.96506989 116.61436741 25.74247542 110.37213522 35.1640625 98.80078125 C40.68044136 91.26250929 43.94171286 84.47397787 45.1953125 75.21875 C44.25356926 75.20661972 44.25356926 75.20661972 43.2928009 75.19424438 C36.75513539 75.108151 30.21777142 75.008645 23.68041992 74.90136719 C21.24101833 74.86309698 18.80156068 74.8282407 16.36206055 74.796875 C12.85445123 74.75118255 9.34722716 74.69319395 5.83984375 74.6328125 C4.75008743 74.62126129 3.66033112 74.60971008 2.53755188 74.59780884 C1.00653084 74.5680043 1.00653084 74.5680043 -0.55541992 74.53759766 C-1.89777962 74.51761215 -1.89777962 74.51761215 -3.26725769 74.4972229 C-6.12747198 74.18332568 -8.24067544 73.52209001 -10.8046875 72.21875 C-13.01765511 68.89929858 -13.06935505 67.79502026 -13.12353516 63.92114258 C-13.14340485 62.84024857 -13.16327454 61.75935455 -13.18374634 60.64570618 C-13.19529755 59.48000595 -13.20684875 58.31430573 -13.21875 57.11328125 C-13.23811615 55.91893967 -13.2574823 54.72459808 -13.2774353 53.49406433 C-13.33729366 49.67319924 -13.38364204 45.85230413 -13.4296875 42.03125 C-13.46786147 39.44334612 -13.50691285 36.85545501 -13.546875 34.26757812 C-13.64300041 27.91808209 -13.72802968 21.56850928 -13.8046875 15.21875 C-24.55862469 15.21875 -35.63201303 23.01389894 -43.1171875 30.03125 Z " fill="#D033CE" transform="translate(416.8046875,207.78125)"/>
<path d="M0 0 C20.75122618 2.45220733 36.38280356 11.56917016 49.87890625 27.2890625 C58.67133425 38.82341192 64.39635161 54.785719 63.50390625 69.4140625 C61.84626294 72.91794326 60.76652284 74.23898478 57.50390625 76.4140625 C54.6711731 76.68148804 54.6711731 76.68148804 51.18408203 76.70458984 C49.87907745 76.71734955 48.57407288 76.73010925 47.22952271 76.74325562 C45.80275623 76.74631323 44.37598776 76.74854101 42.94921875 76.75 C41.48574696 76.7564274 40.02227646 76.76315572 38.55880737 76.77017212 C35.49050926 76.78214855 32.42232375 76.78585262 29.35400391 76.78466797 C25.42741094 76.78446484 21.5015423 76.81175754 17.57512093 76.84621239 C14.55187685 76.86848104 11.52880704 76.87250552 8.50548935 76.87144852 C7.05823141 76.8738049 5.6109687 76.88263068 4.16379166 76.89811325 C2.13679614 76.91776696 0.10958801 76.90941427 -1.91748047 76.89990234 C-3.06981171 76.90275238 -4.22214294 76.90560242 -5.40939331 76.90853882 C-9.26890736 76.29026104 -10.8914342 75.32231653 -13.49609375 72.4140625 C-14.13101196 69.42311096 -14.13101196 69.42311096 -14.14306641 65.88891602 C-14.151828 65.24287415 -14.1605896 64.59683228 -14.1696167 63.93121338 C-14.19157702 61.80110989 -14.17707204 59.67309237 -14.16015625 57.54296875 C-14.16352586 56.05850324 -14.16837969 54.57404043 -14.1746521 53.08958435 C-14.18201907 49.97994696 -14.17132648 46.87102833 -14.14794922 43.76147461 C-14.11948475 39.78193859 -14.13584927 35.8040903 -14.16581154 31.82461643 C-14.18391147 28.7592455 -14.17811408 25.69427224 -14.16517258 22.62888908 C-14.16184464 21.16211687 -14.16590419 19.69530817 -14.17757034 18.22857857 C-14.19032277 16.17428677 -14.17084856 14.12269496 -14.14306641 12.06860352 C-14.13908844 10.90152359 -14.13511047 9.73444366 -14.13101196 8.53199768 C-12.51231744 0.58296663 -6.99595396 -0.32619172 0 0 Z M3.50390625 17.4140625 C3.50390625 31.6040625 3.50390625 45.7940625 3.50390625 60.4140625 C17.36390625 60.4140625 31.22390625 60.4140625 45.50390625 60.4140625 C42.44124689 45.10076572 36.21448496 33.75248173 23.2265625 25.0546875 C16.79005564 21.17616113 10.935727 18.65269929 3.50390625 17.4140625 Z " fill="#D032CE" transform="translate(443.49609375,179.5859375)"/>
<path d="M0 0 C0.66550891 -0.00382555 1.33101781 -0.00765109 2.01669365 -0.01159257 C4.24526416 -0.02190606 6.47357624 -0.01793364 8.7021637 -0.01396179 C10.30053445 -0.01830918 11.89890311 -0.02349242 13.49726868 -0.02944946 C17.83816164 -0.04284768 22.17896758 -0.04341723 26.5198772 -0.04088616 C30.14322234 -0.03981703 33.76654984 -0.04469832 37.38989121 -0.04949158 C45.93751758 -0.06058957 54.48510001 -0.06102251 63.0327301 -0.05497742 C71.85212237 -0.04893607 80.67135516 -0.06125205 89.49072021 -0.08254749 C97.06195196 -0.10015726 104.63313291 -0.10616584 112.20438439 -0.10290974 C116.72669787 -0.10109578 121.24889759 -0.10374433 125.77119255 -0.11762428 C130.02378494 -0.13018792 134.27612853 -0.12827249 138.52871704 -0.11521339 C140.08918911 -0.11284488 141.64967861 -0.11559216 143.21013069 -0.12383652 C145.34106016 -0.13428283 147.47115149 -0.12622132 149.60205078 -0.11352539 C151.3903715 -0.113777 151.3903715 -0.113777 153.21481991 -0.1140337 C156.71927914 0.30290363 158.56457595 1.14503713 161.36451721 3.26069641 C163.36451721 6.26069641 163.36451721 6.26069641 163.30201721 9.69819641 C162.16249029 14.0283987 161.09983 14.90483588 157.36451721 17.26069641 C154.18637848 17.76406097 154.18637848 17.76406097 150.53285217 17.76863098 C149.52105652 17.77799093 149.52105652 17.77799093 148.48882055 17.78753996 C146.23543877 17.80345629 143.98314081 17.79087222 141.72975159 17.77827454 C140.11152517 17.7836963 138.49330369 17.79081927 136.87509155 17.79951477 C132.48457288 17.81774469 128.09443033 17.81068205 123.70390511 17.79799843 C119.10846572 17.78786902 114.51305846 17.79726394 109.9176178 17.80354309 C102.2004773 17.81081967 94.48348993 17.80123153 86.76637268 17.78218079 C77.84521827 17.760412 68.92442953 17.76746336 60.00328398 17.78948641 C52.34283936 17.80764012 44.68250479 17.81019888 37.02204561 17.79973173 C32.44719226 17.79349663 27.87251076 17.7926616 23.29766846 17.80587769 C18.9965472 17.81743517 14.69589725 17.80941255 10.39482689 17.78630066 C8.81662465 17.78101299 7.23838273 17.78252839 5.6601963 17.79135132 C3.50499013 17.80228897 1.35129239 17.78856753 -0.80381775 17.76863098 C-2.61231327 17.76636883 -2.61231327 17.76636883 -4.45734406 17.76406097 C-8.27752764 17.15900714 -9.93294024 15.98390097 -12.63548279 13.26069641 C-13.86188114 9.65815126 -13.96142793 8.01551673 -12.44798279 4.51069641 C-8.90369113 0.11088608 -5.47645772 0.00943288 0 0 Z " fill="#D238D0" transform="translate(550.6354827880859,315.7393035888672)"/>
<path d="M0 0 C0.66227978 -0.00694553 1.32455956 -0.01389106 2.00690842 -0.02104706 C4.21881866 -0.03929572 6.42965373 -0.0290598 8.64160156 -0.01878357 C10.23027345 -0.02584314 11.81893861 -0.03458831 13.40759277 -0.04489136 C17.71752257 -0.06738974 22.02708523 -0.06444487 26.33705139 -0.05556989 C29.93561165 -0.05045968 33.53410294 -0.05775272 37.1326561 -0.06504196 C45.62137634 -0.08204199 54.10991682 -0.07847363 62.59863281 -0.06175232 C71.35625186 -0.04482444 80.1133727 -0.0606743 88.87093735 -0.0929752 C96.39126143 -0.11966194 103.91143034 -0.12694979 111.43179703 -0.11846012 C115.92286487 -0.11352898 120.41363283 -0.11575669 124.90466309 -0.13624763 C129.12706784 -0.15459093 133.34875512 -0.1486632 137.57112122 -0.12404823 C139.12030173 -0.11903626 140.66953679 -0.12254024 142.21867371 -0.13519669 C144.33475937 -0.15111705 146.44847919 -0.13619185 148.56445312 -0.11352539 C149.74799377 -0.11293908 150.93153442 -0.11235277 152.15093994 -0.1117487 C156.22286374 0.70283771 157.72375512 2.31159251 160.28222656 5.5146637 C161.02029697 9.4510392 160.64359364 10.95392168 158.46972656 14.3271637 C154.89630953 17.90058073 151.75790219 17.6427313 146.91885376 17.65510559 C145.94637335 17.65956227 145.94637335 17.65956227 144.95424688 17.66410899 C142.77791589 17.6727931 140.60163992 17.67430398 138.42529297 17.67579651 C136.86647931 17.68042485 135.30766679 17.68544953 133.74885559 17.69084167 C129.51122979 17.70396519 125.27361983 17.71041041 121.03597689 17.71485233 C118.38909854 17.71778282 115.74222453 17.72188756 113.09534836 17.72635651 C104.81560334 17.74003061 96.53586822 17.74969799 88.25611269 17.7535584 C78.69492484 17.75804067 69.13387984 17.77559674 59.57273543 17.80455899 C52.18411993 17.82616436 44.79554466 17.83626205 37.4068979 17.83759952 C32.99298702 17.83864826 28.57921045 17.84457096 24.16533279 17.86241913 C20.01372179 17.87888031 15.86234632 17.88106489 11.71071434 17.87228012 C10.18732638 17.87150872 8.66392585 17.87586598 7.14056969 17.88573837 C5.05995417 17.89843106 2.9801763 17.89259659 0.89956665 17.88215637 C-0.2644486 17.88362293 -1.42846386 17.88508949 -2.6277523 17.88660049 C-6.07048882 17.47220838 -7.95421314 16.57491673 -10.71777344 14.5146637 C-12.28477786 11.38065485 -12.56941905 7.88311274 -11.71777344 4.5146637 C-7.88616854 0.71139605 -5.33443411 0.01265131 0 0 Z " fill="#D136CF" transform="translate(553.7177734375,254.48533630371094)"/>
<path d="M0 0 C0.66550891 -0.00694553 1.33101781 -0.01389106 2.01669365 -0.02104706 C4.24552511 -0.03933583 6.47329437 -0.02904854 8.7021637 -0.01878357 C10.30054013 -0.02584118 11.89890988 -0.03458553 13.49726868 -0.04489136 C17.83824748 -0.06741365 22.17886218 -0.064439 26.5198772 -0.05556989 C30.14324043 -0.05046341 33.76653504 -0.05774982 37.38989121 -0.06504196 C45.93756506 -0.08205014 54.48506044 -0.07846609 63.0327301 -0.06175232 C71.85224313 -0.04483003 80.67126125 -0.06066478 89.49072021 -0.0929752 C97.06197888 -0.11966241 104.63308341 -0.12694947 112.20438439 -0.11846012 C116.72676548 -0.11352832 121.24884877 -0.11575997 125.77119255 -0.13624763 C130.02395096 -0.15459121 134.27599702 -0.1486628 138.52871704 -0.12404823 C140.08918463 -0.11903604 141.64970637 -0.12254081 143.21013069 -0.13519669 C145.34159076 -0.15111589 147.47070168 -0.13619264 149.60205078 -0.11352539 C150.79426459 -0.11293908 151.9864784 -0.11235277 153.21481991 -0.1117487 C157.30047697 0.70080755 158.79712435 2.30211362 161.36451721 5.5146637 C161.98951721 8.5146637 161.98951721 8.5146637 161.36451721 11.5146637 C158.79712435 14.72721378 157.30047697 16.32851984 153.21481991 17.14107609 C152.0226061 17.1416624 150.83039228 17.14224871 149.60205078 17.14285278 C148.93498189 17.14994717 148.26791299 17.15704156 147.58062989 17.16435093 C145.35232035 17.18190998 143.12576015 17.16383979 140.8974762 17.14576721 C139.29732978 17.15090685 137.69718902 17.15818848 136.09706116 17.16744995 C131.75610478 17.18596523 127.41576254 17.17302545 123.07483172 17.15335965 C118.53231258 17.1369756 113.98983239 17.14578557 109.44729614 17.15087891 C101.82007534 17.15539968 94.1930998 17.13952994 86.56593323 17.11158752 C77.74585751 17.07952416 68.92622386 17.07955581 60.10611671 17.09680229 C51.62235494 17.11266047 43.13875536 17.10593916 34.65500069 17.08886528 C31.04380543 17.08198985 27.43274 17.08303221 23.82154655 17.09041023 C19.57047324 17.09806596 15.31990369 17.08597066 11.06891632 17.05856133 C9.50803943 17.05166929 7.94711556 17.05158831 6.38624001 17.05877686 C4.25692943 17.06745406 2.12917989 17.0515484 0 17.02932739 C-1.19183679 17.02652047 -2.38367357 17.02371355 -3.61162663 17.02082157 C-7.23901502 16.41363952 -8.41399195 15.3872323 -10.63548279 12.5146637 C-11.16673279 10.5146637 -11.16673279 10.5146637 -11.13548279 8.5146637 C-11.15095154 7.5246637 -11.15095154 7.5246637 -11.16673279 6.5146637 C-9.62273085 0.70195054 -5.36989508 0.01264676 0 0 Z " fill="#D030CE" transform="translate(552.6354827880859,193.48533630371094)"/>
</svg>
