<?xml version="1.0" encoding="UTF-8"?>
<svg version="1.1" xmlns="http://www.w3.org/2000/svg" width="1050" height="600">
<path d="M0 0 C2.09124618 -0.00461435 4.18248912 -0.01097084 6.27372533 -0.01890898 C11.99433307 -0.0355515 17.71467266 -0.02737898 23.43528116 -0.0149641 C29.61459727 -0.00589534 35.79386802 -0.01989229 41.97317505 -0.03088379 C53.3691089 -0.04762723 64.76493395 -0.04619825 76.16086504 -0.03523792 C86.68804585 -0.02516316 97.2151955 -0.02255474 107.74238014 -0.02732849 C108.44152675 -0.02763403 109.14067336 -0.02793957 109.86100623 -0.02825437 C112.69926208 -0.02949978 115.53751791 -0.03077339 118.37577373 -0.03209343 C144.98026046 -0.04431933 171.58469303 -0.03325089 198.1891714 -0.01170584 C221.81529629 0.00728174 245.44133496 0.00557168 269.06745911 -0.0135498 C295.6287928 -0.03497515 322.1900787 -0.04345841 348.75141984 -0.03110075 C351.58347943 -0.02981792 354.41553904 -0.02856656 357.24759865 -0.02732849 C357.94489406 -0.02701218 358.64218946 -0.02669587 359.36061504 -0.02636998 C369.8821487 -0.02182352 380.40364776 -0.02713465 390.92517662 -0.0372467 C402.88843229 -0.04868725 414.85158615 -0.04543189 426.8148379 -0.02412373 C432.91835398 -0.01361077 439.02169501 -0.009496 445.12520981 -0.02272034 C450.71299735 -0.03464423 456.30044764 -0.0280813 461.88820461 -0.00681013 C463.90883857 -0.0023442 465.92950106 -0.0046101 467.95011666 -0.01431328 C480.70053643 -0.07084265 491.09279815 0.39229037 501.47395325 8.67199707 C512.34419931 19.63554996 512.44548443 33.72123004 512.42797852 48.15180969 C512.42984874 49.53680807 512.43215028 50.92180591 512.43484384 52.30680293 C512.4409421 56.09842625 512.44083058 59.89002747 512.43964946 63.68165457 C512.43944496 67.77651725 512.44496894 71.87137291 512.44970703 75.9662323 C512.45800316 83.98329985 512.4607614 92.00036005 512.46131941 100.01743153 C512.46179503 106.53554977 512.46385209 113.05366559 512.46702003 119.57178307 C512.47582354 138.06220636 512.48043985 156.55262385 512.47968956 175.04304925 C512.47962963 176.53737525 512.47962963 176.53737525 512.47956848 178.06188965 C512.47950716 179.55804535 512.47950716 179.55804535 512.4794446 181.08442643 C512.47903815 197.24927928 512.48860829 213.41410885 512.50270685 229.57895497 C512.51707743 246.18705527 512.52397667 262.7951442 512.52311307 279.40325087 C512.52278135 288.72337591 512.52551748 298.04347653 512.53629112 307.36359596 C512.54540506 315.29859977 512.547564 323.23356807 512.5407817 331.16857485 C512.5375211 335.21447541 512.53744318 339.26030789 512.54613495 343.30620193 C512.55402116 347.01536425 512.55254699 350.72440473 512.54385082 354.43356415 C512.54159972 356.39943656 512.54912777 358.36531281 512.55709046 360.33117038 C512.50850955 372.87454846 511.34918976 383.49696993 502.91926575 393.25793457 C493.64392932 401.20822294 486.0352517 403.66696378 473.71275711 403.63936234 C472.85788967 403.64141497 472.00302223 403.6434676 471.12224972 403.64558244 C468.25023229 403.65124862 465.37826288 403.64979566 462.50624084 403.64837646 C460.4292895 403.65096031 458.35233864 403.65397352 456.27538848 403.65737987 C450.56185503 403.66545068 444.84833414 403.66723948 439.13479567 403.66797733 C432.97513968 403.66982772 426.81549023 403.67737493 420.65583801 403.68411255 C406.48245172 403.69840476 392.30906957 403.70422221 378.13567781 403.70880449 C371.13093098 403.71114115 364.12618498 403.71474385 357.1214388 403.71849987 C333.14071994 403.73133389 309.16000154 403.74205372 285.17927933 403.74550247 C283.67427961 403.7457241 282.16927988 403.74594589 280.66428016 403.74616782 C279.1556634 403.74638846 277.64704664 403.74660895 276.13842988 403.74682927 C273.11192465 403.74727182 270.08541942 403.74771894 267.05891418 403.74816895 C266.30851838 403.74827834 265.55812257 403.74838773 264.78498749 403.74850043 C240.4500579 403.75213156 216.11515809 403.76805446 191.7802399 403.79135931 C166.04807099 403.81595719 140.3159191 403.82967527 114.58373809 403.83087039 C111.75887155 403.83104184 108.93400502 403.83125727 106.10913849 403.83150482 C105.41358388 403.83156059 104.71802927 403.83161636 104.00139725 403.83167382 C92.81035707 403.83282422 81.61934748 403.8438452 70.42831763 403.85839188 C59.17974413 403.87276053 47.93120926 403.87573931 36.68262556 403.8679519 C30.58930476 403.86404102 24.49608682 403.86499652 18.40277863 403.87900925 C12.82402623 403.89172145 7.24545429 403.89057411 1.66670224 403.87841853 C-0.35078134 403.87645692 -2.36827758 403.87956137 -4.38574335 403.8882629 C-19.04572196 403.94748644 -30.46870269 403.61929224 -41.4283905 392.80871582 C-47.66442916 385.99044259 -49.82626583 378.66274559 -49.83716202 369.48578358 C-49.84100316 368.26977366 -49.84484431 367.05376375 -49.84880185 365.80090505 C-49.84802167 364.45477913 -49.84714289 363.10865326 -49.84617615 361.76252747 C-49.84876067 360.32990778 -49.85177408 358.89728881 -49.85517955 357.46467084 C-49.86324255 353.52752241 -49.86503873 349.59039222 -49.86577702 345.65323651 C-49.86762879 341.40700805 -49.87517676 337.16078903 -49.88191223 332.91456604 C-49.89549114 323.62936414 -49.90151959 314.34416656 -49.90592289 305.05895638 C-49.90868607 299.26050173 -49.91292357 293.46204873 -49.91742706 287.6635952 C-49.92961918 271.60729864 -49.93991859 255.55100342 -49.94330215 239.49470234 C-49.94352172 238.46716485 -49.94374129 237.43962736 -49.94396751 236.38095237 C-49.94418578 235.35096556 -49.94440406 234.32097876 -49.94462895 233.25978023 C-49.94507242 231.17265785 -49.94551898 229.08553547 -49.94596863 226.99841309 C-49.94619006 225.96312976 -49.94641149 224.92784643 -49.94663963 223.86119088 C-49.95058726 207.08760817 -49.96804049 190.31406892 -49.99132815 173.540503 C-50.01504783 156.31664568 -50.02750429 139.09281016 -50.02867007 121.86893624 C-50.02958649 112.19946341 -50.03533039 102.5300472 -50.05348969 92.86058998 C-50.06889898 84.62647085 -50.07400623 76.39242583 -50.06575158 68.15829501 C-50.06184802 63.95858794 -50.06276031 59.75903009 -50.07680893 55.55934143 C-50.08956539 51.71066768 -50.08833514 47.86225502 -50.07621822 44.01358154 C-50.07426423 42.62526904 -50.07732582 41.23693794 -50.08606258 39.84865157 C-50.15534459 28.09008508 -49.01748933 18.33300469 -40.70573425 9.50793457 C-29.98054381 -1.04835524 -13.88082881 -0.06689796 0 0 Z M-35.26823425 20.57043457 C-45.13451958 34.68509204 -38.70573425 63.53430112 -38.70573425 73.50793457 C139.49426575 73.50793457 317.69426575 73.50793457 501.29426575 73.50793457 C504.57229744 45.42494016 504.57229744 45.42494016 494.98176575 18.19543457 C494.42875793 17.55992676 493.87575012 16.92441895 493.3059845 16.26965332 C488.07960583 11.69276637 483.29966866 11.07097365 476.665905 11.12482452 C475.80597244 11.11986501 474.94603988 11.11490549 474.06004876 11.10979569 C471.17066605 11.09681423 468.28174353 11.10523242 465.39234924 11.11352539 C463.30302071 11.10863769 461.21369489 11.10244845 459.12437367 11.0950675 C453.37659752 11.07862933 447.62895817 11.08099383 441.8811667 11.08644247 C435.68468676 11.08910791 429.48824368 11.07458994 423.29177856 11.06234741 C411.14920889 11.04127008 399.00670268 11.03673512 386.86411992 11.0385353 C376.99544418 11.0399081 367.12678294 11.03609205 357.25811005 11.02861023 C355.84052623 11.02755989 354.42294241 11.02651228 353.00535859 11.02546737 C351.94983753 11.02468835 351.94983753 11.02468835 350.87299281 11.0238936 C350.16802603 11.02337345 349.46305926 11.02285331 348.73672986 11.02231741 C347.67751348 11.02153142 347.67751348 11.02153142 346.5968988 11.02072955 C326.73320751 11.00614421 306.86952156 10.99786462 287.00582504 11.00247955 C285.88238224 11.00273749 285.88238224 11.00273749 284.73624361 11.00300063 C280.9401777 11.00388952 277.14411181 11.00483434 273.34804592 11.00579864 C272.21717432 11.00608519 272.21717432 11.00608519 271.06345683 11.00637753 C269.5388578 11.00676462 268.01425876 11.00715495 266.48965973 11.0075485 C242.77067994 11.01351758 219.05179775 10.99808522 195.33283997 10.96594238 C168.68549366 10.92986178 142.03820923 10.91053334 115.39083695 10.91548109 C112.54911948 10.91595107 109.707402 10.91636132 106.86568451 10.91673279 C106.16598045 10.91683517 105.46627639 10.91693756 104.74536917 10.91704305 C94.18438703 10.9182377 83.62347176 10.90627297 73.06250763 10.8875885 C61.04965707 10.86634566 49.03698556 10.8629677 37.02411619 10.88188809 C30.89427875 10.89105585 24.76472066 10.89215671 18.63490486 10.87153244 C13.02272899 10.8528586 7.41106193 10.85728621 1.79890564 10.88007826 C-0.23068992 10.88427305 -2.26032422 10.88003459 -4.28987888 10.86648232 C-21.69666588 10.60712055 -21.69666588 10.60712055 -35.26823425 20.57043457 Z M-38.70573425 85.50793457 C-38.78823425 132.98668457 -38.87073425 180.46543457 -38.95573425 229.38293457 C-38.99215027 244.37972656 -39.02856628 259.37651855 -39.06608582 274.82775879 C-39.07946277 288.25965698 -39.07946277 288.25965698 -39.08750916 301.69155884 C-39.09123882 307.67868329 -39.10590938 313.66565838 -39.1280365 319.65274048 C-39.15352742 326.5602211 -39.16507115 333.4675585 -39.15951405 340.37508649 C-39.15710795 343.90740153 -39.16087937 347.43939663 -39.18259478 350.97165275 C-39.20250586 354.75930584 -39.19768907 358.54616014 -39.18675232 362.33383179 C-39.19840298 363.42887087 -39.21005363 364.52390995 -39.22205734 365.65213203 C-39.16886912 372.51100027 -38.25213264 378.52282109 -34.70573425 384.50793457 C-28.320503 390.76691402 -23.04124446 391.65863682 -14.29667854 391.63936234 C-13.43616691 391.64141497 -12.57565528 391.6434676 -11.68906754 391.64558244 C-8.7858463 391.65126769 -5.88267226 391.64979331 -2.97944641 391.64837646 C-0.8848712 391.65095922 1.20970351 391.65397212 3.30427754 391.65737987 C9.07565842 391.66546351 14.84702687 391.66724019 20.61841273 391.66797733 C26.83665092 391.66982548 33.05488262 391.67737154 39.27311707 391.68411255 C53.58564553 391.69841434 67.89816993 391.7042233 82.21070402 391.70880449 C89.28142666 391.71113984 96.35214848 391.71474239 103.42287048 391.71849987 C127.62086063 391.73133472 151.81885032 391.74205469 176.0168438 391.74550247 C177.53593133 391.74572411 179.05501887 391.74594589 180.5741064 391.74616782 C182.09688259 391.74638846 183.61965877 391.74660895 185.14243495 391.74682927 C188.19743975 391.74727183 191.25244455 391.74771894 194.30744934 391.74816895 C195.44364532 391.74833303 195.44364532 391.74833303 196.60279476 391.74850043 C221.17305667 391.75213245 245.7432891 391.7680583 270.31353972 391.79135931 C296.2835864 391.81594285 322.25361623 391.82967459 348.22367489 391.83087039 C351.07321557 391.83104185 353.92275624 391.83125728 356.77229691 391.83150482 C357.47394681 391.83156059 358.17559671 391.83161636 358.89850874 391.83167382 C370.20016895 391.83282545 381.50179896 391.84385685 392.80344896 391.85839188 C404.15750047 391.8727421 415.51150221 391.87574921 426.86556421 391.8679519 C433.01913311 391.86403438 439.17260013 391.86502865 445.32615662 391.87900925 C450.9553573 391.89168197 456.58437887 391.89060926 462.21357907 391.87841853 C464.25393131 391.87645001 466.29429595 391.87959281 468.33463071 391.8882629 C471.10114948 391.89927787 473.86702741 391.89192249 476.63352776 391.87987137 C477.43162977 391.88746656 478.22973178 391.89506176 479.0520187 391.90288711 C486.02923168 391.83696086 491.25373794 389.4158169 496.29426575 384.50793457 C502.78068897 375.51836145 501.44409605 363.2246597 501.42124939 352.6517334 C501.42280938 351.52132566 501.42436937 350.39091793 501.42597663 349.22625542 C501.42993672 345.4724786 501.42681653 341.71874287 501.42366028 337.96496582 C501.42446682 335.26035988 501.42676169 332.55575563 501.42897034 329.85115051 C501.43339893 323.2901438 501.4324649 316.72914857 501.4295577 310.16814142 C501.42729373 304.83712995 501.42699544 299.50612168 501.42808151 294.17510986 C501.42823475 293.41466629 501.42838798 292.65422272 501.42854585 291.87073541 C501.42886559 290.32572174 501.42918981 288.78070807 501.42951845 287.23569441 C501.4323643 272.77755252 501.42909945 258.31941699 501.42371808 243.86127615 C501.41924362 231.45524375 501.42003298 219.04922071 501.42463684 206.64318848 C501.42998596 192.22222649 501.43209729 177.80127004 501.42902458 163.3803072 C501.42870603 161.84361585 501.42839166 160.3069245 501.42808151 158.77023315 C501.42792724 158.01420553 501.42777296 157.25817791 501.42761401 156.47924036 C501.42675041 151.1504757 501.42820821 145.82171456 501.43056107 140.49295044 C501.43336267 134.00565884 501.43261284 127.51837934 501.42728032 121.03108913 C501.42464933 117.7212167 501.42416506 114.41136869 501.42692947 111.10149574 C501.42964802 107.51706566 501.42625121 103.93269299 501.42124939 100.3482666 C501.42348011 99.29809262 501.42571083 98.24791864 501.42800915 97.16592121 C501.42409753 95.72817482 501.42409753 95.72817482 501.42010689 94.26138306 C501.41986336 93.0203416 501.41986336 93.0203416 501.41961491 91.75422859 C501.34692093 89.18558701 501.34692093 89.18558701 500.29426575 85.50793457 C322.42426575 85.50793457 144.55426575 85.50793457 -38.70573425 85.50793457 Z " fill="#D137CF" transform="translate(293.7057342529297,97.4920654296875)"/>
<path d="M0 0 C3.25042778 0.41360234 4.13840947 1.27645048 6.359375 3.64453125 C7.04902344 4.37800781 7.73867188 5.11148437 8.44921875 5.8671875 C11.46153854 9.30439145 14.33119589 12.84596985 17.19140625 16.41015625 C19.73535554 19.48426621 22.39057732 22.41374503 25.109375 25.33203125 C29.36940828 29.90923059 33.35068125 34.64399997 37.26953125 39.51953125 C40.37770684 43.25556869 43.65737035 46.81638801 46.98046875 50.36132812 C52.43487353 56.20420069 52.43487353 56.20420069 52.98046875 59.73046875 C52.48349969 63.2144834 51.1183405 64.45619985 48.671875 66.95703125 C45.36816375 70.44113235 42.2321487 73.95574843 39.234375 77.70703125 C35.55235965 82.26144048 31.68037143 86.5695069 27.69360352 90.85327148 C24.7225075 94.06466532 21.90990912 97.35812888 19.171875 100.76953125 C15.65015263 105.09567581 12.09642938 109.38505529 8.421875 113.58203125 C7.93468994 114.16782959 7.44750488 114.75362793 6.94555664 115.35717773 C5.50390625 116.97265625 5.50390625 116.97265625 2.609375 119.33203125 C-0.62890625 119.37890625 -0.62890625 119.37890625 -3.390625 118.33203125 C-5.57508843 115.05533611 -5.97152503 114.13326057 -5.390625 110.33203125 C-3.51953125 107.82421875 -3.51953125 107.82421875 -0.953125 105.20703125 C-0.02232767 104.23537768 0.90600588 103.26135875 1.83203125 102.28515625 C2.30141113 101.79337891 2.77079102 101.30160156 3.25439453 100.79492188 C5.2806873 98.60725588 7.12676495 96.28841708 8.984375 93.95703125 C12.84532818 89.16835787 16.94499197 84.67528018 21.14770508 80.19042969 C25.23188329 75.80651333 29.03485504 71.26168944 32.76953125 66.57421875 C34.609375 64.33203125 34.609375 64.33203125 36.41796875 62.77734375 C37.81297436 61.40350012 37.81297436 61.40350012 37.578125 59.4609375 C36.24015235 56.52063469 34.33820939 54.60499198 32.109375 52.26953125 C28.64597636 48.58288757 25.33810991 44.84516794 22.171875 40.89453125 C18.94992888 36.89977266 15.60267175 33.08664474 12.109375 29.33203125 C7.02184769 23.86020392 2.24111461 18.19890143 -2.390625 12.33203125 C-2.97199219 11.63335937 -3.55335938 10.9346875 -4.15234375 10.21484375 C-5.390625 8.33203125 -5.390625 8.33203125 -5.203125 5.20703125 C-4.22986928 1.76320331 -3.63372888 0.50468457 0 0 Z " fill="#D134CF" transform="translate(586.390625,276.66796875)"/>
<path d="M0 0 C1.55847656 0.433125 1.55847656 0.433125 3.1484375 0.875 C4.3984375 3.5 4.3984375 3.5 5.1484375 6.875 C2.62445388 11.29953724 -0.55178325 14.87393479 -4.0390625 18.5625 C-7.62362371 22.39559079 -11.0627976 26.28033956 -14.3515625 30.375 C-17.97903381 34.88342862 -21.80209074 39.13609796 -25.74145508 43.36816406 C-30.34887006 48.34818366 -34.62204605 53.56982875 -38.8515625 58.875 C-36.11851368 63.18799312 -33.18711271 66.83609913 -29.6640625 70.5625 C-26.09885737 74.37452246 -22.6799543 78.23609491 -19.4140625 82.3125 C-16.00200885 86.55153254 -12.43004262 90.58035579 -8.7265625 94.5625 C-7.96049683 95.39116577 -7.96049683 95.39116577 -7.17895508 96.23657227 C-4.99072197 98.5985028 -2.79108183 100.93639705 -0.53125 103.23046875 C2.60250368 106.51012594 4.01274456 108.12252094 4.8359375 112.6875 C4.1484375 115.875 4.1484375 115.875 2.4609375 117.875 C-0.5917162 119.19506647 -1.70988301 118.97526981 -4.8515625 117.875 C-6.86895353 115.87540948 -8.59072624 113.95518151 -10.3515625 111.75 C-11.41332986 110.46553986 -12.47585568 109.18170638 -13.5390625 107.8984375 C-14.08433594 107.23295898 -14.62960937 106.56748047 -15.19140625 105.88183594 C-17.85418589 102.66300526 -20.60458606 99.52194149 -23.3515625 96.375 C-28.56170601 90.37440551 -33.75508312 84.35992273 -38.90625 78.30859375 C-40.92497038 75.94123454 -42.97499164 73.60609436 -45.046875 71.28515625 C-45.55976074 70.7020166 -46.07264648 70.11887695 -46.60107422 69.51806641 C-47.57468088 68.41139278 -48.55761188 67.31282717 -49.55126953 66.22412109 C-51.48406069 64.00732797 -52.76214345 62.25458682 -53.44140625 59.37109375 C-52.60291677 55.82278394 -50.55939908 53.62632998 -48.1640625 51 C-47.67147949 50.43974121 -47.17889648 49.87948242 -46.67138672 49.30224609 C-45.61561871 48.10222397 -44.55490395 46.90653915 -43.48974609 45.71484375 C-41.32946522 43.28863262 -39.20953656 40.82880824 -37.08837891 38.3684082 C-34.90323803 35.83540561 -32.70788787 33.3113367 -30.51318359 30.78662109 C-28.31370228 28.25621576 -26.11549046 25.72471926 -23.91992188 23.19091797 C-22.83951498 21.94650919 -21.75621276 20.70460779 -20.66992188 19.46533203 C-17.90193035 16.29723991 -15.21265244 13.09351831 -12.61328125 9.78515625 C-12.08613525 9.129104 -11.55898926 8.47305176 -11.01586914 7.79711914 C-10.01503801 6.5473898 -9.03248796 5.2827205 -8.07202148 4.00170898 C-5.34400425 0.63535421 -4.43918437 -0.14407089 0 0 Z " fill="#D134CF" transform="translate(463.8515625,277.125)"/>
<path d="M0 0 C3.4375 0.25 3.4375 0.25 7 1 C9.13281796 4.19922695 9.26047049 5.23482579 8.59638977 8.90105057 C7.33150476 13.35271927 5.12738021 17.39865817 3.03710938 21.50927734 C2.5216304 22.54257172 2.00615143 23.57586609 1.47505188 24.64047241 C-0.22582747 28.04384196 -1.94083813 31.43987281 -3.65625 34.8359375 C-4.84151354 37.19967477 -6.02595048 39.56382669 -7.20959473 41.92837524 C-9.68799437 46.87598976 -12.17368069 51.81988324 -14.66455078 56.76123047 C-18.18086734 63.73689434 -21.68326258 70.71948004 -25.18325138 77.70334697 C-27.90054355 83.12398631 -30.62209044 88.54249002 -33.34375 93.9609375 C-34.21777214 95.70161562 -34.21777214 95.70161562 -35.10945129 97.47745895 C-36.74973169 100.74181924 -38.39288091 104.00471674 -40.03710938 107.26708984 C-40.5275322 108.24367554 -41.01795502 109.22026123 -41.52323914 110.22644043 C-42.19205864 111.55117874 -42.19205864 111.55117874 -42.87438965 112.90267944 C-43.26300926 113.67434637 -43.65162888 114.4460133 -44.05202484 115.24106407 C-45 117 -45 117 -46 118 C-49.05760057 118.26587831 -51.20840805 118.43409881 -53.9375 116.9375 C-55.58641778 113.93064993 -54.81519845 111.18788449 -54 108 C-52.75589635 104.87839439 -51.23987359 101.91983973 -49.6953125 98.9375 C-49.26068695 98.07805786 -48.8260614 97.21861572 -48.37826538 96.33312988 C-47.45014983 94.50038492 -46.51753743 92.66991137 -45.58081055 90.84155273 C-43.61713719 87.00871788 -41.67487156 83.16518348 -39.73175049 79.32189941 C-38.77379883 77.42739468 -37.81478209 75.5334281 -36.85467529 73.64001465 C-33.64381483 67.30230086 -30.51677484 60.9326412 -27.5 54.5 C-22.13756932 43.12013337 -16.49652363 31.87834139 -10.875 20.625 C-10.39458252 19.66166748 -9.91416504 18.69833496 -9.41918945 17.70581055 C-8.04999898 14.96156533 -6.67789108 12.21880139 -5.3046875 9.4765625 C-4.88545013 8.63610382 -4.46621277 7.79564514 -4.03427124 6.92971802 C-3.64897247 6.16223236 -3.26367371 5.3947467 -2.86669922 4.60400391 C-2.52903534 3.92947174 -2.19137146 3.25493958 -1.84347534 2.55996704 C-1 1 -1 1 0 0 Z " fill="#D033CE" transform="translate(548,277)"/>
<path d="M0 0 C4.44964592 3.05802359 6.97962713 6.68888139 8.6875 11.8125 C9.16005961 18.90089408 7.85308091 23.52679103 3.875 29.5625 C-0.41903503 33.97922174 -4.20601046 35.02363335 -10.25 35.25 C-15.89668378 35.07528825 -18.92176312 34.39677501 -23.3125 30.8125 C-27.65607699 25.78846709 -29.70925204 20.47560041 -29.3125 13.8125 C-28.13465277 8.16089969 -25.49512022 3.80922599 -21.3125 -0.1875 C-14.30686553 -4.38781476 -6.99399594 -4.00954498 0 0 Z M-16.25 9.9375 C-18.50846986 12.65415741 -18.50846986 12.65415741 -18.875 15.875 C-18.49736055 18.86142256 -18.49736055 18.86142256 -16.75 21.1875 C-13.4130787 23.4121142 -11.24344707 23.31280235 -7.3125 22.8125 C-5.27367905 21.94120693 -5.27367905 21.94120693 -4.3125 19.8125 C-3.28589003 16.03489612 -2.84032691 12.99293273 -4.3125 9.3125 C-6.35770972 7.53884419 -6.35770972 7.53884419 -9.6875 7.25 C-13.4142416 7.54680313 -13.4142416 7.54680313 -16.25 9.9375 Z " fill="#D135CF" transform="translate(310.3125,127.1875)"/>
<path d="M0 0 C4.76327636 4.19621965 7.21628937 8.83875676 7.72265625 15.19921875 C7.47056622 20.65444693 5.70407407 25.00625244 2.25 29.1875 C-2.75275122 33.23734622 -6.80873141 35.28738999 -13.375 35.3125 C-19.40310771 34.36069352 -23.3758004 31.7973905 -27.375 27.3125 C-30.4313913 22.08705682 -31.28349534 17.24323924 -30.375 11.3125 C-28.50399584 5.42465075 -25.47295274 1.71113516 -20.375 -1.6875 C-13.24468214 -4.84129444 -6.76308619 -3.3815431 0 0 Z M-17.3125 10.3125 C-19.45322824 13.42628652 -19.69029243 13.96743785 -19.375 17.5 C-18.76912068 21.52937403 -18.76912068 21.52937403 -15.375 23.3125 C-11.88566956 23.85419041 -8.56125571 23.90562786 -5.375 22.3125 C-3.74352365 19.0495473 -3.7456593 15.82690821 -4.375 12.3125 C-5.83497987 9.68533423 -5.83497987 9.68533423 -8.375 8.3125 C-12.42493737 7.53698008 -13.88976535 7.98212747 -17.3125 10.3125 Z " fill="#D135CF" transform="translate(356.375,126.6875)"/>
<path d="M0 0 C5.3860847 4.52920758 8.36906493 8.04970125 9.59765625 15.01171875 C10.01146135 21.26123676 7.81831942 26.60181436 3.75 31.3125 C-0.49319415 34.15036275 -5.11093466 36.20762112 -10.25 36.3125 C-16.3793317 34.98193333 -21.75930528 32.91745288 -25.4375 27.59375 C-28.30063552 22.58326284 -29.22794966 18.02053273 -28.25 12.3125 C-26.36032119 6.40990777 -23.32963235 2.76665 -18.25 -0.6875 C-12.07815278 -3.70484753 -5.98829823 -3.1093087 0 0 Z M-16.25 10.3125 C-17.84977041 13.51204081 -17.73997712 16.84005346 -17.25 20.3125 C-15.46908768 22.68704976 -14.20219734 23.16114469 -11.30859375 23.62109375 C-8.03946109 23.81977032 -5.87268162 23.8347491 -3.3125 21.6875 C-1.99082076 18.73315816 -1.31645635 16.56886123 -1.25 13.3125 C-2.59115399 10.30270117 -2.59115399 10.30270117 -5.25 8.3125 C-9.44195902 7.78850512 -12.71579228 7.86574081 -16.25 10.3125 Z " fill="#D135CF" transform="translate(400.25,126.6875)"/>
</svg>
