<?xml version="1.0" standalone="no"?>
<!DOCTYPE svg PUBLIC "-//W3C//DTD SVG 20010904//EN"
 "http://www.w3.org/TR/2001/REC-SVG-20010904/DTD/svg10.dtd">
<svg version="1.0" xmlns="http://www.w3.org/2000/svg"
 width="500.000000pt" height="500.000000pt" viewBox="0 0 500.000000 500.000000"
 preserveAspectRatio="xMidYMid meet">

<g transform="translate(0.000000,500.000000) scale(0.100000,-0.100000)"
fill="#000000" stroke="none">
<path d="M2227 4060 c-361 -67 -656 -219 -903 -465 -231 -230 -374 -480 -454
-793 -225 -889 326 -1813 1216 -2036 157 -39 247 -49 429 -49 371 1 702 110
992 327 374 279 604 670 673 1143 17 118 12 343 -10 473 -93 554 -424 1000
-929 1255 -133 67 -321 124 -496 151 -130 20 -395 17 -518 -6z m225 -592 c37
-18 71 -78 71 -122 0 -141 -182 -199 -258 -83 -80 122 57 272 187 205z m-235
-165 c-11 -134 -55 -238 -144 -334 l-58 -62 0 -136 c-1 -75 -5 -162 -9 -193
-8 -54 -7 -58 12 -58 16 0 21 7 24 33 2 26 7 31 23 29 34 -5 216 -99 298 -152
l77 -52 0 -169 c0 -133 -3 -169 -12 -163 -7 4 -44 35 -83 69 -90 79 -238 196
-242 191 -20 -19 -70 -576 -52 -576 3 0 17 13 32 28 57 60 184 101 271 88 59
-9 105 -42 136 -96 22 -40 25 -56 25 -150 -1 -159 -58 -336 -158 -493 l-37
-57 -125 0 -126 0 26 43 c51 81 154 302 170 362 34 134 11 193 -71 181 -57 -7
-99 -39 -126 -94 -20 -42 -20 -51 -10 -126 6 -45 14 -91 18 -103 6 -23 5 -23
-94 -23 l-99 0 -11 58 c-29 150 -37 260 -36 540 l0 293 -30 -29 c-68 -62 -160
-99 -271 -108 -289 -24 -489 184 -407 422 24 69 65 116 133 153 93 51 171 64
344 57 83 -3 165 -8 183 -12 l32 -6 0 78 c-1 245 -131 424 -279 384 -106 -28
-122 -134 -27 -180 53 -25 92 -25 158 0 29 11 57 20 61 20 12 0 34 -58 45
-118 11 -64 8 -66 -106 -88 -141 -27 -258 4 -347 90 -40 40 -57 65 -69 106
-20 67 -20 83 0 150 41 138 227 233 398 201 84 -15 158 -52 210 -104 l45 -45
15 39 c9 21 18 58 21 81 3 24 8 58 11 76 l5 32 131 0 131 0 -6 -77z m1432 -19
c108 -32 174 -125 174 -244 -1 -148 -91 -235 -285 -274 -80 -17 -242 -21 -360
-9 l-68 6 0 109 0 108 28 -6 c15 -4 29 -8 31 -10 3 -3 13 27 22 66 32 123 111
216 219 253 58 21 172 21 239 1z m-816 -173 c135 -35 247 -106 247 -156 0 -52
-126 -191 -250 -275 -52 -35 -59 -44 -49 -57 35 -41 187 -93 317 -108 l62 -7
0 -160 0 -160 -45 6 c-50 8 -160 44 -217 72 -21 9 -40 15 -43 12 -8 -8 -34
-223 -45 -378 -14 -204 -17 -191 33 -143 52 50 85 67 161 83 149 31 238 -24
266 -164 29 -143 -38 -384 -162 -578 l-30 -48 -124 0 c-68 0 -124 1 -124 3 0
2 29 54 65 117 142 249 184 445 99 466 -62 16 -130 -20 -164 -87 -26 -50 -24
-148 6 -241 5 -16 -4 -18 -94 -18 l-100 0 -10 48 c-31 140 -37 238 -36 537 1
210 6 348 17 430 l15 120 -68 72 c-67 72 -117 162 -93 170 5 2 59 36 119 75
137 89 208 148 196 160 -17 17 -138 21 -203 9 -33 -7 -63 -10 -66 -8 -10 11
-52 212 -45 219 26 24 255 18 365 -11z m-427 -154 c1 -94 7 -168 18 -217 9
-41 19 -87 23 -102 l6 -28 -120 0 -120 0 -7 38 c-8 49 -8 298 1 385 l6 67 96
0 96 0 1 -143z m1018 -273 c40 -48 110 -95 179 -119 l58 -20 1 -113 c0 -62 -2
-115 -6 -119 -10 -10 -101 14 -162 43 -131 62 -256 208 -298 349 -6 19 -2 20
97 17 l102 -3 29 -35z"/>
<path d="M1431 2488 c-77 -22 -108 -67 -98 -141 7 -50 38 -81 100 -98 89 -24
183 7 254 84 38 41 83 114 83 135 0 26 -264 42 -339 20z"/>
<path d="M3444 3101 c-36 -22 -74 -93 -74 -139 l0 -32 63 0 c79 0 133 15 163
45 55 55 7 145 -78 145 -25 0 -56 -8 -74 -19z"/>
</g>
</svg>
