<?xml version="1.0" encoding="UTF-8"?>
<svg id="Layer_2" data-name="Layer 2" xmlns="http://www.w3.org/2000/svg" viewBox="0 0 1520.33 1520.33">
  <defs>
    <style>
      .cls-1 {
        fill: #fff;
      }
    </style>
  </defs>
  <g id="Layer_1-2" data-name="Layer 1">
    <g>
      <circle class="cls-1" cx="760.17" cy="760.17" r="760.17"/>
      <g>
        <rect x="159.18" y="37.12" width="170.1" height="973.64" rx="83.47" ry="83.47"/>
        <rect x="1081.37" y="1218.57" width="170.1" height="359.2" rx="85.05" ry="85.05" transform="translate(2564.59 231.75) rotate(90)"/>
        <rect x="1175.93" y="509.57" width="170.1" height="973.64" rx="83.47" ry="83.47" transform="translate(2521.95 1992.78) rotate(-180)"/>
        <path d="M518.38,507.54c-139.52,0-252.62,113.1-252.62,252.62,0,139.52,113.1,252.62,252.62,252.62,139.52,0,252.62-113.1,252.62-252.62,0-139.52-113.1-252.62-252.62-252.62ZM518.38,884.85c-68.86,0-124.68-55.82-124.68-124.68,0-68.86,55.82-124.68,124.68-124.68,68.86,0,124.68,55.82,124.68,124.68,0,68.86-55.82,124.68-124.68,124.68Z"/>
        <path d="M986.82,507.54c-139.52,0-252.62,113.1-252.62,252.62,0,139.52,113.1,252.62,252.62,252.62,139.52,0,252.62-113.1,252.62-252.62,0-139.52-113.1-252.62-252.62-252.62ZM986.82,884.85c-68.86,0-124.68-55.82-124.68-124.68,0-68.86,55.82-124.68,124.68-124.68,68.86,0,124.68,55.82,124.68,124.68,0,68.86-55.82,124.68-124.68,124.68Z"/>
      </g>
    </g>
  </g>
</svg>